<svg width="20" height="20" viewBox="0 0 20 20" fill="none" xmlns="http://www.w3.org/2000/svg">
<path d="M5 0H1C0.447266 0 0 0.447266 0 1V5C0 5.55273 0.447266 6 1 6H5C5.55273 6 6 5.55273 6 5V1C6 0.447266 5.55273 0 5 0Z" fill="#804294"/>
<path d="M12 0H8C7.44727 0 7 0.447266 7 1V5C7 5.55273 7.44727 6 8 6H12C12.5527 6 13 5.55273 13 5V1C13 0.447266 12.5527 0 12 0Z" fill="#804294"/>
<path d="M19 0H15C14.4473 0 14 0.447266 14 1V5C14 5.55273 14.4473 6 15 6H19C19.5527 6 20 5.55273 20 5V1C20 0.447266 19.5527 0 19 0Z" fill="#804294"/>
<path d="M5 14H1C0.447266 14 0 14.4473 0 15V19C0 19.5527 0.447266 20 1 20H5C5.55273 20 6 19.5527 6 19V15C6 14.4473 5.55273 14 5 14Z" fill="#804294"/>
<path d="M12 14H8C7.44727 14 7 14.4473 7 15V19C7 19.5527 7.44727 20 8 20H12C12.5527 20 13 19.5527 13 19V15C13 14.4473 12.5527 14 12 14Z" fill="#804294"/>
<path d="M19 14H15C14.4473 14 14 14.4473 14 15V19C14 19.5527 14.4473 20 15 20H19C19.5527 20 20 19.5527 20 19V15C20 14.4473 19.5527 14 19 14Z" fill="#804294"/>
<path d="M5 7H1C0.447266 7 0 7.44727 0 8V12C0 12.5527 0.447266 13 1 13H5C5.55273 13 6 12.5527 6 12V8C6 7.44727 5.55273 7 5 7Z" fill="#804294"/>
<path d="M12 7H8C7.44727 7 7 7.44727 7 8V12C7 12.5527 7.44727 13 8 13H12C12.5527 13 13 12.5527 13 12V8C13 7.44727 12.5527 7 12 7Z" fill="#804294"/>
<path d="M19 7H15C14.4473 7 14 7.44727 14 8V12C14 12.5527 14.4473 13 15 13H19C19.5527 13 20 12.5527 20 12V8C20 7.44727 19.5527 7 19 7Z" fill="#804294"/>
</svg>
