<svg width="20" height="20" viewBox="0 0 20 20" fill="none" xmlns="http://www.w3.org/2000/svg">
<path d="M19.1667 20H7.5C7 20 6.66667 19.6364 6.66667 19.0909V15.4545C6.66667 14.9091 7 14.5455 7.5 14.5455H19.1667C19.6667 14.5455 20 14.9091 20 15.4545V19.0909C20 19.6364 19.6667 20 19.1667 20ZM4.16667 20H0.833333C0.333333 20 0 19.6364 0 19.0909V15.4545C0 14.9091 0.333333 14.5455 0.833333 14.5455H4.16667C4.66667 14.5455 5 14.9091 5 15.4545V19.0909C5 19.6364 4.66667 20 4.16667 20ZM19.1667 12.7273H7.5C7 12.7273 6.66667 12.3636 6.66667 11.8182V8.18182C6.66667 7.63636 7 7.27273 7.5 7.27273H19.1667C19.6667 7.27273 20 7.63636 20 8.18182V11.8182C20 12.3636 19.6667 12.7273 19.1667 12.7273ZM4.16667 12.7273H0.833333C0.333333 12.7273 0 12.3636 0 11.8182V8.18182C0 7.63636 0.333333 7.27273 0.833333 7.27273H4.16667C4.66667 7.27273 5 7.63636 5 8.18182V11.8182C5 12.3636 4.66667 12.7273 4.16667 12.7273ZM19.1667 5.45455H7.5C7 5.45455 6.66667 5.09091 6.66667 4.54545V0.909091C6.66667 0.363636 7 0 7.5 0H19.1667C19.6667 0 20 0.363636 20 0.909091V4.54545C20 5.09091 19.6667 5.45455 19.1667 5.45455ZM4.16667 5.45455H0.833333C0.333333 5.45455 0 5.09091 0 4.54545V0.909091C0 0.363636 0.333333 0 0.833333 0H4.16667C4.66667 0 5 0.363636 5 0.909091V4.54545C5 5.09091 4.66667 5.45455 4.16667 5.45455Z" fill="white"/>
</svg>
