<svg width="42" height="42" viewBox="0 0 42 42" fill="none" xmlns="http://www.w3.org/2000/svg">
<path d="M34.8414 0.76001H7.15824L0.759766 6.24434V35.7557L7.15824 41.24H34.8414L41.2399 35.7557L41.2396 6.24434L34.8414 0.76001ZM36.931 8.42069L32.9265 4.98221L34.7112 2.37043L39.4993 6.50542L36.931 8.42069ZM29.2701 32.5782H12.7298L9.4218 29.7491L9.4215 12.2512L12.7295 9.37836H29.2698L32.5777 12.2075V29.7053L29.2701 32.5782ZM29.1832 8.116H12.8171L11.1629 5.7657H30.7936L29.1832 8.116ZM11.6418 8.63854L8.72551 11.1197L6.11373 9.20447L9.81369 6.02707L11.6418 8.63854ZM8.1159 12.2947V29.7056L5.76559 31.4465V10.5535L8.1159 12.2947ZM8.72526 30.8808L11.6416 33.362L9.85689 35.9738L6.15693 32.7964L8.72526 30.8808ZM12.8169 33.8842H29.1395L30.7936 36.2345H11.2065L12.8169 33.8842ZM30.3583 33.3617L33.2746 30.8805L35.8864 32.7958L32.1864 35.9732L30.3583 33.3617ZM33.8842 29.7055V12.2947L36.2345 10.5538V31.4467L33.8842 29.7055ZM33.2748 11.1194L30.3585 8.63825L32.1432 6.02647L35.8432 9.20387L33.2748 11.1194ZM31.7079 4.41644H10.2926L8.63846 2.06613H33.3618L31.7079 4.41644ZM9.0738 4.98238L5.06932 8.42086L2.45754 6.5056L7.24567 2.3706L9.0738 4.98238ZM4.41657 9.59617V32.4043L2.06626 34.1453L2.06596 7.85493L4.41657 9.59617ZM5.06935 33.5796L9.07384 37.0181L7.28915 39.6298L2.50102 35.4948L5.06935 33.5796ZM10.2925 37.5841H31.7078L33.3619 39.9344L8.63857 39.9347L10.2925 37.5841ZM32.9266 37.0181L36.9311 33.5796L39.5428 35.4949L34.7547 39.6299L32.9266 37.0181ZM37.5838 32.4043V9.59616L39.9341 7.85523V34.1891L37.5838 32.4043Z" fill="#272B65"/>
</svg>
