<svg width="20" height="40" viewBox="0 0 20 40" fill="none" xmlns="http://www.w3.org/2000/svg">
<path fill-rule="evenodd" clip-rule="evenodd" d="M19.273 0H0V40H19.273V0ZM2.812 2.313L1.179 0.687H18.094L16.46 2.313H2.811H2.812ZM0.692 38.826V1.174L2.322 2.798V37.202L0.692 38.826ZM16.95 37.202V2.798L18.581 1.174V38.826L16.95 37.202ZM5.134 4.625L3.502 3H15.772L14.138 4.626H5.134V4.625ZM3.014 36.514V3.486L4.355 4.822V35.179L3.014 36.514ZM14.918 35.178V4.822L16.258 3.486V36.514L14.918 35.178ZM6.586 6.07L5.824 5.312H13.448L12.687 6.07H6.586ZM5.046 34.49V5.51L6.097 6.556V33.444L5.047 34.49H5.046ZM13.176 33.444V6.556L14.226 5.51V34.49L13.176 33.444ZM6.788 33.243V6.757H12.484V33.243H6.788ZM5.534 34.977L6.586 33.93H12.686L13.739 34.977H5.534ZM3.502 37L4.844 35.664H14.429L15.77 37H3.501H3.502ZM1.179 39.313L2.812 37.688H16.462L18.094 39.313H1.179Z" fill="#272B65"/>
</svg>
