<svg width="22" height="40" viewBox="0 0 22 40" fill="none" xmlns="http://www.w3.org/2000/svg">
<path fill-rule="evenodd" clip-rule="evenodd" d="M10.345 0L18.222 15.505L21.818 29.64L17.696 35.55L10.796 40L3.662 35.546L0.176 29.924H0.09V29.786L0 29.64L2.695 15.517L10.345 0ZM1.011 29.924L3.368 33.725L2.548 29.925H1.012L1.011 29.924ZM3.503 30.977L4.358 34.939H7.08L3.503 30.977ZM7.717 35.644H5.154L9.454 38.329L7.717 35.644ZM11.507 38.701L16.245 35.644H13.485L11.506 38.701H11.507ZM14.01 34.939H16.912L17.764 30.989L14.01 34.939ZM18.705 29.999L17.811 34.145L20.755 29.925H18.767L18.771 29.929L18.705 29.999ZM18.768 29.219H20.978L18.328 18.802L18.422 20.932C18.544 23.692 18.685 26.937 18.768 29.219ZM17.31 15.277L11.16 3.17L13.939 15.277H17.309H17.31ZM13.209 15.277L10.333 2.748L7.899 15.277H13.209ZM7.175 15.277L9.495 3.33L3.605 15.276H7.175V15.277ZM2.879 18.347L0.804 29.218H2.502C2.62897 25.5937 2.75464 21.9694 2.879 18.345V18.347ZM3.669 15.982C3.619 17.565 3.434 22.932 3.289 27.048L7.042 15.982H3.669ZM6.711 19.17L3.305 29.22H5.579L6.71 19.17H6.711ZM5.721 29.924H3.508L7.048 33.844L5.721 29.924ZM8.563 35.644H12.639L10.601 38.794L8.563 35.644ZM8.228 34.939H13.006L13.048 34.816L10.762 30.239L8.228 34.939ZM7.88 34.089L6.472 29.924H10.126L7.88 34.09V34.089ZM11.399 29.924H14.702L13.368 33.868L11.399 29.924ZM14.157 33.756L17.798 29.924H15.453L14.157 33.756ZM15.555 29.219H17.966L14.318 18.244L15.555 29.219ZM13.11 15.982H8.011L10.706 27.326L13.109 15.982H13.11ZM10.362 28.952L10.328 29.11L10.403 29.126L10.426 29.219H6.296L7.625 17.428L10.362 28.952ZM11.156 29.219L11.091 28.943L13.518 17.488L14.84 29.219H11.156ZM14.316 15.982L17.97 26.973C17.857 24.185 17.707 20.836 17.602 18.481C17.552 17.376 17.512 16.489 17.492 15.981H14.316V15.982Z" fill="#272B65"/>
</svg>
