<svg width="24" height="40" viewBox="0 0 24 40" fill="none" xmlns="http://www.w3.org/2000/svg">
<path fill-rule="evenodd" clip-rule="evenodd" d="M0 0H24V28.6347L12 40L0 28.6347V0ZM0.912632 1.45789V27.9042L3.52211 27.0126V3.86526L0.912632 1.45684V1.45789ZM4.43474 4.70632V26.7011L7.04316 25.8095V7.11368L4.43474 4.70526V4.70632ZM7.88105 6.6779L5.2 4.20421H18.6042L15.9232 6.6779H7.88105ZM7.95684 7.54421V26.0389L12 29.8716L16.0432 26.0379V7.54316H7.95789L7.95684 7.54421ZM16.9568 6.93368V25.9095L19.5653 26.8V4.52632L16.9568 6.93263V6.93368ZM20.4779 3.68421V27.1126L23.0874 28.0032V1.27684L20.4779 3.68421ZM22.2242 0.865263H1.57895L4.26 3.33895H19.5421L22.2232 0.865263H22.2242ZM22.5853 28.7516L20.0379 27.8821L12.4568 35.1137V38.3442L22.5853 28.7516ZM11.5432 38.3442V35.1147L3.88526 27.8095L1.33789 28.6789L11.5432 38.3442ZM4.83263 27.4842L11.5432 33.8853V30.6632L7.30105 26.6421L4.83263 27.4842ZM12.4568 30.6632V33.8853L19.0905 27.5568L16.6211 26.7147L12.4568 30.6621V30.6632Z" fill="#272B65"/>
</svg>
