<svg width="40" height="38" viewBox="0 0 40 38" fill="none" xmlns="http://www.w3.org/2000/svg">
<path fill-rule="evenodd" clip-rule="evenodd" d="M6.22 0H34.3811L40 14.4905L27.3442 37.1432H13.2505L0 14.4863L6.22 0ZM6.66211 1.32316L1.22421 13.9853H4.87474L9.17263 4.69789L6.66 1.32316H6.66211ZM9.80421 5.54421L5.89895 13.9853H9.56632L11.7474 8.15368L9.80421 5.54526V5.54421ZM12.3842 7.45474H27.8442L29.8042 4.82316H10.4242L12.3842 7.45474ZM30.4958 3.89263H9.73158L7.52632 0.929474H32.7042L30.4947 3.89263H30.4958ZM30.5347 5.39579L34.1368 13.9853H30.4632L28.5326 8.08526L30.5347 5.39579ZM27.6537 8.38526H12.6526L10.3326 14.5895L17.6263 28.8274H22.6916L29.6832 14.5832L27.6547 8.38421L27.6537 8.38526ZM30.5537 14.9147L23.5505 29.1811L25.2 32.0989L34.0737 14.9147H30.5537ZM35.1179 14.9147L25.7453 33.0653L27.1611 35.5684L38.7 14.9147H35.1179ZM38.8084 13.9853H35.1432L31.1789 4.53053L33.7526 1.07368L33.56 0.929474H33.7463L38.8095 13.9853H38.8084ZM26.4589 36.2137H14.1032L15.6295 33.3189H24.8221L26.4589 36.2137ZM24.2968 32.3884H16.12L17.5095 29.7568H22.8095L24.2968 32.3884ZM16.7632 29.1811L15.2284 32.0905L5.95053 14.9147H9.45579L16.7632 29.1811ZM4.89579 14.9147H1.32526L13.4 35.5579L14.7084 33.0779L4.89474 14.9158L4.89579 14.9147Z" fill="#272B65"/>
</svg>
