<svg width="40" height="40" viewBox="0 0 40 40" fill="none" xmlns="http://www.w3.org/2000/svg">
<path fill-rule="evenodd" clip-rule="evenodd" d="M12.0154 1.8935L9.62203 8.25453H15.7932C16.8932 6.97344 18.011 5.61568 19.1854 4.13125C16.8987 3.97347 14.6409 3.19348 12.0154 1.8935ZM19.7776 4.99568C18.861 6.15011 17.9776 7.22899 17.1087 8.25453H19.7776V4.99568ZM20.7776 8.25453H23.4399C22.5732 7.22788 21.6932 6.15011 20.7776 4.99568V8.25565V8.25453ZM21.3399 4.09458C22.4496 5.50398 23.5877 6.89091 24.7532 8.25453H30.5121L28.0199 1.95461C25.5277 3.17793 23.3921 3.8857 21.3399 4.09458ZM29.1088 1.98905L31.5455 8.14787L35.2822 5.49901C33.8822 3.99903 31.9177 2.7746 29.1088 1.98905ZM35.9311 6.26456L32.431 8.74564L38.2677 11.4167C37.7988 9.51452 37.0855 7.76454 35.9322 6.26456H35.9311ZM38.3255 12.5423L31.6588 9.49341L30.9766 14.9356C32.4569 16.397 33.9623 17.8328 35.4922 19.2422L38.3255 12.5423ZM34.3977 19.5922C33.2296 18.5093 32.0754 17.4114 30.9355 16.2989V19.5922H34.3977ZM30.9355 20.5922V23.7621C32.0077 22.731 33.1388 21.6844 34.3588 20.5922H30.9366H30.9355ZM35.4977 20.9177C33.9571 22.2816 32.4493 23.682 30.9755 25.1177L31.2966 29.9243L38.3888 27.3676L35.4977 20.9177ZM38.35 28.4443L31.9999 30.7332L35.9333 33.5176C36.0755 33.3176 36.2111 33.1176 36.3388 32.9176C37.2136 31.5272 37.8901 30.0216 38.3488 28.4443H38.35ZM35.3277 34.3131L31.1432 31.3532L29.111 38.0997C31.8855 37.5642 33.8899 36.0498 35.3255 34.3109L35.3277 34.3131ZM28.0966 38.0053L30.1688 31.1209H25.2866C23.9245 32.6733 22.5899 34.2494 21.2832 35.8487C23.3865 36.052 25.5666 36.7675 28.0966 38.0053ZM20.7765 34.8887C21.8191 33.6185 22.8788 32.3624 23.9554 31.1209H20.7776V34.8876L20.7765 34.8887ZM19.7765 31.1209H16.5887C17.6694 32.3617 18.7325 33.6178 19.7776 34.8887V31.122L19.7765 31.1209ZM19.241 35.8131C17.9419 34.2249 16.6139 32.6606 15.2576 31.1209H9.60203L12.0065 38.0264C14.6398 36.7231 16.9265 35.9564 19.241 35.8131ZM10.9698 38.092L8.67869 31.5076L4.61978 34.4498C6.00646 36.1053 8.02425 37.5386 10.9698 38.092ZM4.012 33.6553L7.97869 30.7798L1.80755 28.351C2.03199 29.511 2.55422 31.3654 3.68311 33.1609C3.78756 33.3265 3.89756 33.492 4.012 33.6553ZM1.86644 27.2999L8.59314 29.9465L9.5087 25.0821C8.03673 23.6549 6.53225 22.2616 4.99645 20.9033L1.86644 27.2976V27.2999ZM6.15313 20.5933C7.38758 21.6977 8.53091 22.7555 9.6187 23.7966V20.5933H6.15201H6.15313ZM9.6187 19.5933V16.2656C8.46434 17.3892 7.2961 18.4986 6.11424 19.5933H9.6187ZM4.99201 19.2689C6.55788 17.8273 8.09922 16.3593 9.61537 14.8656L8.53203 9.46674L1.7231 12.5334L4.99201 19.2666V19.2689ZM1.79421 11.4067L7.86869 8.6712L4.18423 6.22234C3.04422 7.73343 2.32533 9.49563 1.79533 11.4056L1.79421 11.4067ZM4.82756 5.44901L8.65203 7.9912L10.9376 1.91905C8.13536 2.70349 6.20646 3.93681 4.82645 5.44901H4.82756ZM13.4154 1.45461C15.7687 2.53571 17.7665 3.11015 19.7765 3.15793V1.00573C17.3676 1.03906 15.1209 1.23351 13.4154 1.4535V1.45461ZM20.7765 1.00017V3.13571C22.581 3.02237 24.4765 2.4846 26.7166 1.4635C24.7966 1.14351 22.7499 1.01351 20.7776 1.00017H20.7765ZM9.6587 10.0001L12.3098 12.1134C11.7054 12.7523 11.092 13.3845 10.4654 14.0156L9.6587 10.0001ZM10.6187 15.2778V24.5932L10.5909 24.7399C12.357 26.4747 14.0636 28.269 15.7076 30.1198H24.8343C26.476 28.2636 28.1807 26.464 29.9455 24.7243L29.9344 24.5632V15.31C27.9789 13.3628 26.0971 11.3429 24.2932 9.25452H16.251C14.4489 11.3321 12.5698 13.3416 10.6176 15.2789L10.6187 15.2778ZM14.9221 9.25563H10.3287L12.9976 11.3812C13.6421 10.6878 14.2809 9.98229 14.9221 9.25452V9.25563ZM25.6199 9.25563C26.1866 9.90007 26.7499 10.5267 27.3177 11.1445L29.9832 9.25563H25.6199ZM30.5799 10.0578L28.0043 11.8834C28.6843 12.6089 29.3732 13.3234 30.081 14.0389L30.5799 10.0578ZM30.0344 26.0465C29.3926 26.689 28.7592 27.3398 28.1343 27.9987L30.2655 29.5065L30.0332 26.0465H30.0344ZM29.3988 30.1198L27.4432 28.7354C27.0188 29.191 26.5977 29.651 26.1766 30.1198H29.3988ZM14.3632 30.1198C13.8609 29.5643 13.3598 29.0198 12.8543 28.4821L10.5943 30.1198H14.3632ZM9.68759 29.5421L12.1587 27.7499C11.569 27.1346 10.9719 26.5264 10.3676 25.9254L9.68759 29.5421ZM1.25977 13.87L4.03756 19.5922H1.02199C0.965322 17.6355 1.01088 15.62 1.25977 13.87ZM1.05977 20.5922C1.06643 20.7588 1.07532 20.9255 1.08421 21.0922C1.18088 22.9133 1.34532 24.581 1.48088 25.8099L4.03423 20.5922H1.05866H1.05977ZM13.4909 38.4286C16.4576 38.7897 18.1899 38.9731 19.7765 38.9964V36.792C17.7821 36.8353 15.7965 37.3842 13.4909 38.4286ZM20.7765 36.8131V38.9908C22.311 38.9486 23.9288 38.7586 26.641 38.4286C24.4499 37.4475 22.5721 36.9253 20.7765 36.8131ZM38.76 25.7521L36.4466 20.5922H38.9911C38.9655 22.3141 38.8885 24.0348 38.76 25.7521ZM39 19.5922C39.0044 17.7122 38.9377 15.7811 38.7477 14.1111L36.4288 19.5922H39ZM11.6587 0.703512C14.9098 0.142407 22.4888 -0.58314 28.3943 0.775733C32.111 1.63128 34.6333 3.18237 36.3533 5.1979C38.0688 7.20899 38.9511 9.64007 39.4644 12.1912C39.9811 14.7567 40.0511 18.3955 39.9733 21.4888C39.8955 24.5743 39.6655 27.2043 39.5544 27.7543C39.4466 28.2876 38.8322 30.8698 37.1811 33.4565C35.5255 36.0498 32.7944 38.6897 28.4632 39.2153L27.2132 39.3675C23.9132 39.7697 22.1043 39.9897 20.2499 39.9997C18.1721 40.0097 16.0387 39.7531 11.6832 39.2153C7.13869 38.6531 4.42534 36.2198 2.83755 33.6931C1.25977 31.182 0.787543 28.5832 0.681987 27.6199C0.661464 27.4379 0.640352 27.2561 0.618653 27.0743C0.480875 25.891 0.218651 23.6588 0.0853173 21.1444C-0.0735724 18.1755 -0.060239 14.7533 0.563097 12.1723C1.17421 9.63674 2.05644 7.19455 3.74311 5.17013C5.43757 3.13348 7.91091 1.56461 11.632 0.709067L11.6454 0.705734L11.6587 0.703512Z" fill="#272B65"/>
</svg>
