<svg width="40" height="40" viewBox="0 0 40 40" fill="none" xmlns="http://www.w3.org/2000/svg">
<path fill-rule="evenodd" clip-rule="evenodd" d="M19.9064 0.00153846L19.8772 0L19.8479 0.00153846L9.3645 0.612821L9.24809 0.619487L9.14552 0.675897L3.84303 3.60769L3.72047 3.67538L3.6497 3.79538L0.318457 9.41539L0.250253 9.53077L0.247176 9.66462L0.00256407 20.0697L0.00102563 20.0733L0.00256407 20.0764L0.000512814 20.1713L0 20.1836V20.1959L0.247176 30.5805L0.250253 30.7169L0.321021 30.8338L3.65175 36.3318L3.72252 36.4487L3.842 36.5154L9.14552 39.4472L9.25014 39.5051L9.37014 39.5103L19.9767 40H20.0003L20.0233 39.999L30.877 39.5103L31.0073 39.5041L31.1191 39.4369L36.1754 36.3826L36.2836 36.3169L36.3493 36.2092L39.6795 30.7118L39.7503 30.5944L39.7533 30.458L40 20.3185V20.2938L39.7533 9.66462L39.7503 9.52615L39.6774 9.40821L36.2242 3.78821L36.1534 3.67333L36.0354 3.60769L30.7319 0.675897L30.6299 0.619487L30.5135 0.612821L19.9064 0.00153846ZM1.07896 22.4015L1.26973 30.4195L3.74867 34.5118L4.32046 29.4118L4.32097 29.4067L4.05174 28.8246L1.07896 22.4015ZM5.14045 28.9426L10.0353 28.7359L8.90706 21.2205L5.19224 28.8359L5.14045 28.9426ZM8.94347 18.9744L10.1532 11.3872L5.2348 11.1841L8.94347 18.9744ZM4.30302 10.5508L3.75175 5.63487L1.26973 9.82256L1.08563 17.6738L4.05482 11.1005L4.30302 10.5508ZM17.6208 1.15897L9.54039 1.62974L5.66506 3.77231L10.826 4.53846L10.8496 4.54205L11.2019 4.36615L17.6198 1.15897H17.6208ZM11.2634 5.51744V10.3046L19.1931 9.13692L11.2634 5.51744ZM20.7172 9.16154L28.3555 10.3015L28.255 5.63231L20.7172 9.16154ZM28.9976 4.59949L34.2298 3.78154L30.3386 1.62974L22.1064 1.1559L28.5401 4.37128L28.9976 4.59949ZM29.2796 5.59385L35.2001 4.66769L34.5642 10.159L29.3822 10.3651L29.2796 5.59385ZM30.5904 18.8323L29.4719 11.3882L34.5083 11.1882L30.5893 18.8323H30.5904ZM30.5555 21.2031L29.3565 28.7231L34.6093 28.8256L34.5821 28.7744L30.555 21.2031H30.5555ZM35.5401 29.158L35.5565 29.28L36.2298 34.4277L38.7318 30.2974L38.9333 22.0138L35.7349 28.7487L35.5401 29.158ZM38.9221 18.0349L38.7318 9.82718L36.1267 5.58769L35.5406 10.6472L35.7303 11.0626L38.9221 18.0344V18.0349ZM34.5965 29.8508L35.3154 35.3451L29.2704 34.5195V29.7472L34.5965 29.8508ZM29.7181 19.9369L28.3104 28.7687L19.9977 29.9287L11.0773 28.7662L9.79013 20.1862L11.1978 11.3508L19.8772 10.0728L28.4304 11.3497L29.7186 19.9369H29.7181ZM9.5368 38.4913L5.66249 36.3497L10.7029 35.5959L11.1399 35.5308V35.4651L11.3481 35.5615L18.589 38.9087L9.5368 38.4913ZM21.3854 38.9113L30.7006 38.4918L34.4031 36.2559L28.7894 35.4887L28.6325 35.561L21.3849 38.9113H21.3854ZM28.2443 34.2359L21.189 30.798L28.2443 29.8133V34.2359ZM18.7798 30.8041L11.3363 34.4308L11.1399 34.5267V29.8087L18.7792 30.8041H18.7798ZM5.29121 29.9631L10.1147 29.7595V34.6467L4.6743 35.4605L5.2907 29.9631H5.29121ZM5.29121 10.16L4.6743 4.66154L10.2373 5.48821V10.3636L5.2907 10.1595L5.29121 10.16ZM19.8659 1.17846L12.3957 4.9118L19.9854 8.37641L27.3591 4.92308L19.8659 1.17846ZM19.99 31.3503L12.5337 34.9846L19.99 38.4308L27.4473 34.9836L19.9905 31.3497L19.99 31.3503ZM35.1319 12.2297L38.718 20.0651L35.1319 27.6154L31.115 20.0636L35.1319 12.2292V12.2297ZM8.32348 20.0682L4.6343 12.3179L1.13434 20.0682L4.6343 27.6308L8.32348 20.0682Z" fill="#272B65"/>
</svg>
