<svg width="42" height="42" viewBox="0 0 42 42" fill="none" xmlns="http://www.w3.org/2000/svg">
<path fill-rule="evenodd" clip-rule="evenodd" d="M18.9311 2.11017C16.8383 2.11017 14.9366 2.21926 13.1272 2.44201C10.9392 2.71186 8.65419 3.10915 6.76297 4.18883C4.71567 5.35663 3.8926 7.71567 3.40464 9.64048C1.95957 15.3412 1.72212 21.9468 2.71856 28.7445C2.76851 29.0823 2.82046 29.4196 2.87386 29.7578C3.2502 32.0974 3.68995 34.3454 4.92462 36.1136C6.23675 37.9939 8.52466 38.6989 10.5898 39.1407C12.9819 39.6519 15.6482 39.8902 18.9792 39.8902H23.0805C25.8303 39.8902 28.2089 39.7142 30.3544 39.3525C32.8938 38.9239 35.448 38.2703 36.9262 36.3981C38.1709 34.8229 38.6686 32.6203 39.0383 30.6792C39.3906 28.8259 39.6308 26.7677 39.7718 24.3868C39.8413 23.1941 39.8797 22.0843 39.8872 20.9955V20.9949C39.9176 17.1824 39.5809 13.7396 38.8598 10.4692C38.3638 8.22265 37.5247 5.48691 35.4251 4.26318C33.472 3.125 31.0569 2.7056 28.9519 2.44435C27.0231 2.20551 24.9784 2.09499 22.7234 2.11165C21.5947 2.11911 20.4668 2.11911 19.3361 2.11165C19.2006 2.1105 19.0657 2.1105 18.9313 2.1105L18.9311 2.11017ZM23.0805 41.24H18.9792C15.5506 41.24 12.7954 40.9926 10.3076 40.4609C7.98504 39.9637 5.39774 39.1507 3.81826 36.8866C2.42029 34.8841 1.94343 32.4725 1.54211 29.9707C1.48728 29.6268 1.43331 29.2841 1.38336 28.9404C0.362021 21.9688 0.608867 15.1805 2.09642 9.30881C2.65046 7.1257 3.60491 4.43647 6.09433 3.01698C8.19131 1.82022 10.6348 1.38987 12.9623 1.10312C14.9459 0.858834 17.0311 0.744868 19.3446 0.76238C20.4679 0.769844 21.5917 0.76927 22.7136 0.76238C25.042 0.741424 27.1301 0.859693 29.1174 1.10571C31.3579 1.38301 33.9398 1.83657 36.1048 3.0979C38.6563 4.58486 39.6211 7.66277 40.1768 10.1778C40.9212 13.5496 41.2671 17.0908 41.237 21.0055V21.0049C41.2281 22.1181 41.189 23.2501 41.1181 24.4664C40.9737 26.9053 40.7268 29.0204 40.3637 30.931C39.9644 33.0298 39.4178 35.4207 37.9851 37.2349C36.2242 39.4652 33.3846 40.21 30.5782 40.6829C28.3587 41.0575 25.9057 41.2395 23.0802 41.2395" fill="#272B65"/>
<path fill-rule="evenodd" clip-rule="evenodd" d="M14.772 27.2278L20.999 29.7184L27.2268 27.2278L29.7174 21.0009L27.2268 14.773L20.999 12.2822L14.772 14.773L12.2811 21.0009L14.772 27.2278ZM20.999 31.1204C20.914 31.1204 20.8296 31.1043 20.7487 31.0719L14.0024 28.3732C13.8301 28.3043 13.6946 28.1688 13.6266 27.9974L10.9279 21.2508C10.8639 21.0898 10.8639 20.911 10.9279 20.7496L13.6266 14.0033C13.6946 13.832 13.8301 13.6962 14.0024 13.6276L20.7487 10.9289C20.91 10.8649 21.0888 10.8649 21.2501 10.9289L27.9964 13.6276C28.1678 13.6962 28.3042 13.832 28.3722 14.0033L31.0709 20.7496C31.1349 20.911 31.1349 21.0898 31.0709 21.2508L28.3722 27.9974C28.3042 28.1688 28.1678 28.3043 27.9964 28.3732L21.2501 31.0719C21.1692 31.1043 21.0839 31.1204 20.999 31.1204Z" fill="#272B65"/>
<path fill-rule="evenodd" clip-rule="evenodd" d="M28.7424 27.0715H34.1923L39.6554 20.9996L34.1923 14.9279H28.7424L31.0713 20.7487C31.1353 20.91 31.1353 21.0894 31.0713 21.2508L28.7424 27.0715ZM34.4925 28.4207H27.746C27.5221 28.4207 27.3134 28.3093 27.1873 28.1245C27.0625 27.939 27.0369 27.7036 27.1199 27.4952L29.7178 20.9995L27.1199 14.5041C27.0369 14.2957 27.0625 14.0603 27.1873 13.8746C27.3134 13.6897 27.5221 13.5786 27.746 13.5786H34.4925C34.684 13.5786 34.8663 13.6602 34.9943 13.8017L41.0643 20.5483C41.2948 20.8046 41.2948 21.1947 41.0643 21.4511L34.9943 28.1974C34.8663 28.3392 34.684 28.4207 34.4925 28.4207V28.4207Z" fill="#272B65"/>
<path fill-rule="evenodd" clip-rule="evenodd" d="M31.2315 20.9996L34.6013 26.616L39.655 20.9996L34.6013 15.3832L31.2315 20.9996ZM34.4928 28.4204C34.471 28.4204 34.45 28.4199 34.4279 28.4178C34.2146 28.3969 34.0243 28.2769 33.9144 28.0932L29.8665 21.3469C29.7379 21.133 29.7379 20.8658 29.8665 20.6519L33.9144 13.9053C34.0243 13.7219 34.2146 13.6019 34.4279 13.5809C34.6412 13.562 34.8507 13.6424 34.994 13.8014L41.0637 20.548C41.295 20.8043 41.295 21.1945 41.0637 21.4508L34.994 28.1971C34.8657 28.34 34.6828 28.4204 34.4928 28.4204V28.4204Z" fill="#272B65"/>
<path fill-rule="evenodd" clip-rule="evenodd" d="M7.80533 27.0715H13.2549L10.9262 21.2508C10.8619 21.0894 10.8619 20.91 10.9262 20.7487L13.2549 14.9279H7.80533L2.34192 20.9996L7.80533 27.0715ZM14.2513 28.4207H7.50505C7.31329 28.4207 7.1313 28.3392 7.00384 28.1974L0.933352 21.4511C0.702555 21.1947 0.702555 20.8046 0.933352 20.5483L7.00384 13.8017C7.1313 13.6602 7.31329 13.5786 7.50505 13.5786H14.2513C14.4755 13.5786 14.6839 13.6897 14.81 13.8746C14.9348 14.0603 14.9607 14.2957 14.8774 14.5041L12.2795 20.9995L14.8774 27.4952C14.9607 27.7036 14.9348 27.939 14.81 28.1245C14.684 28.3093 14.4755 28.4207 14.2513 28.4207V28.4207Z" fill="#272B65"/>
<path fill-rule="evenodd" clip-rule="evenodd" d="M2.34215 21L7.39593 26.6164L10.7657 21L7.39593 15.3836L2.34215 21ZM7.5044 28.4208C7.31408 28.4208 7.13208 28.3405 7.00319 28.1975L0.933508 21.4512C0.701851 21.1949 0.701851 20.8048 0.933508 20.5484L7.00319 13.8018C7.14615 13.6428 7.35742 13.5624 7.56928 13.5814C7.78227 13.6023 7.97346 13.7223 8.08341 13.9058L12.1313 20.6523C12.2593 20.8662 12.2593 21.1335 12.1313 21.3473L8.08341 28.0936C7.97346 28.2773 7.78227 28.3973 7.56928 28.4183C7.54775 28.4203 7.52679 28.4209 7.5044 28.4209L7.5044 28.4208Z" fill="#272B65"/>
<path fill-rule="evenodd" clip-rule="evenodd" d="M14.9273 34.1942L20.9987 39.6567L27.071 34.1942V28.7443L21.2496 31.0732C21.0888 31.1372 20.9094 31.1372 20.749 31.0732L14.9273 28.7443L14.9273 34.1942ZM20.9987 41.2387C20.8374 41.2387 20.6761 41.1813 20.5472 41.0659L13.8015 34.9956C13.6591 34.8679 13.5781 34.6859 13.5781 34.4941V27.7478C13.5781 27.5239 13.6895 27.3146 13.8744 27.1892C14.0604 27.0637 14.2966 27.0388 14.503 27.1217L20.9992 29.7197L27.4955 27.1217C27.701 27.0379 27.9378 27.0637 28.1241 27.1892C28.309 27.3146 28.4204 27.5239 28.4204 27.7478V34.4941C28.4204 34.6859 28.3394 34.8679 28.197 34.9962L21.4499 41.0659C21.3216 41.1813 21.1597 41.2387 20.9987 41.2387L20.9987 41.2387Z" fill="#272B65"/>
<path fill-rule="evenodd" clip-rule="evenodd" d="M15.383 34.6028L20.9985 39.656L26.6158 34.6028L20.9994 31.2324L15.383 34.6028ZM20.9985 41.2379C20.8375 41.2379 20.6762 41.1805 20.5473 41.0651L13.8016 34.9954C13.6428 34.8522 13.5613 34.6418 13.5817 34.4288C13.6018 34.2161 13.7226 34.0252 13.9061 33.9152L20.6527 29.8674C20.8657 29.7393 21.1329 29.7393 21.3468 29.8674L28.0933 33.9152C28.2762 34.0252 28.3968 34.2161 28.4172 34.4294C28.4381 34.6418 28.3557 34.8522 28.1973 34.9954L21.4502 41.0651C21.3219 41.1805 21.16 41.2379 20.9986 41.2379H20.9985Z" fill="#272B65"/>
<path fill-rule="evenodd" clip-rule="evenodd" d="M20.9987 10.8799C21.0836 10.8799 21.1686 10.8963 21.249 10.9278L27.0704 13.2568V7.80688L20.9981 2.34435L14.9267 7.80688V13.2568L20.7484 10.9278C20.8288 10.8963 20.9137 10.8799 20.9987 10.8799H20.9987ZM27.7453 14.9278C27.66 14.9278 27.5751 14.9123 27.495 14.8798L20.9988 12.2814L14.5026 14.8798C14.2956 14.9617 14.0593 14.9381 13.8739 14.8118C13.689 14.6864 13.5776 14.4771 13.5776 14.2532V7.50689C13.5776 7.31513 13.6586 7.13314 13.801 7.0054L20.5467 0.935715C20.8039 0.704345 21.1923 0.704345 21.4495 0.935141L28.1966 7.00482C28.339 7.13314 28.4199 7.31514 28.4199 7.50689V14.2532C28.4199 14.4771 28.3085 14.6864 28.1237 14.8118C28.0103 14.8887 27.8782 14.9278 27.7453 14.9278" fill="#272B65"/>
<path fill-rule="evenodd" clip-rule="evenodd" d="M15.383 7.39759L20.9994 10.768L26.6158 7.39759L20.9986 2.3444L15.383 7.39759ZM20.9994 12.2294C20.8792 12.2294 20.7592 12.197 20.6527 12.133L13.9061 8.08511C13.7226 7.97488 13.6018 7.78398 13.5817 7.57155C13.5613 7.35827 13.6428 7.14785 13.8016 7.00489L20.5473 0.935213C20.8042 0.704416 21.1929 0.704416 21.4501 0.935213L28.1972 7.00489C28.3556 7.14785 28.438 7.35827 28.4171 7.57098C28.3967 7.78398 28.2761 7.97488 28.0933 8.08511L21.3467 12.133C21.2402 12.197 21.1193 12.2294 20.9993 12.2294H20.9994Z" fill="#272B65"/>
<path fill-rule="evenodd" clip-rule="evenodd" d="M28.4207 13.5777L33.9387 13.5783L35.5813 5.24034L28.4207 7.97057V13.5777ZM34.4933 14.9278L27.7462 14.9269C27.373 14.9269 27.0713 14.6246 27.0713 14.2523V7.50603C27.0713 7.22586 27.2441 6.97496 27.5059 6.87507L36.2385 3.54569C36.4693 3.45928 36.7265 3.50263 36.914 3.66051C37.1014 3.81897 37.1884 4.06584 37.1413 4.30669L35.1552 14.3834C35.0932 14.7 34.8158 14.9274 34.4935 14.9274L34.4933 14.9278Z" fill="#272B65"/>
<path fill-rule="evenodd" clip-rule="evenodd" d="M6.4521 5.27012L8.06341 13.5794L13.5785 13.578V7.97254L6.4521 5.27012ZM7.50592 14.9287C7.18355 14.9287 6.90567 14.6999 6.84424 14.3821L4.8971 4.33774C4.8506 4.09776 4.93758 3.8506 5.12446 3.69357C5.3122 3.53569 5.56912 3.49177 5.79848 3.57875L14.4929 6.87506C14.7552 6.97496 14.9281 7.22585 14.9281 7.50602V14.2523C14.9281 14.6255 14.6264 14.9269 14.2532 14.9269L7.50592 14.9287Z" fill="#272B65"/>
<path fill-rule="evenodd" clip-rule="evenodd" d="M8.06188 28.4215L6.45285 36.7153L13.5783 34.0282V28.4224L8.06188 28.4215ZM5.56012 38.4474C5.40367 38.4474 5.24865 38.3929 5.12522 38.289C4.93834 38.1311 4.85107 37.8842 4.89844 37.6445L6.8433 27.6185C6.90474 27.3011 7.1829 27.0723 7.50584 27.0723L14.2529 27.0728C14.6255 27.0728 14.9275 27.3751 14.9275 27.7474V34.494C14.9275 34.7748 14.7536 35.0262 14.4906 35.1256L5.79845 38.4044C5.72094 38.4334 5.64057 38.4474 5.56019 38.4474L5.56012 38.4474Z" fill="#272B65"/>
<path fill-rule="evenodd" clip-rule="evenodd" d="M28.4206 34.0293L35.5699 36.7495L33.9379 28.4218L28.4206 28.4224V34.0293ZM36.4646 38.4865C36.3837 38.4865 36.3027 38.4724 36.2246 38.4425L27.506 35.1247C27.2442 35.0257 27.0708 34.7739 27.0708 34.494V27.7474C27.0708 27.3751 27.3722 27.0728 27.7454 27.0728L34.4925 27.0723C34.8149 27.0723 35.093 27.3002 35.1542 27.6174L37.1263 37.6823C37.1734 37.9226 37.0864 38.1701 36.8989 38.3279C36.7755 38.4319 36.6211 38.4864 36.4643 38.4864L36.4646 38.4865Z" fill="#272B65"/>
</svg>
