<svg width="33" height="42" viewBox="0 0 33 42" fill="none" xmlns="http://www.w3.org/2000/svg">
<path d="M27.1904 0.76001H5.25282L0.160156 6.28771V35.712L5.20937 41.24H27.147L32.1962 35.712V6.28771L27.1904 0.76001ZM26.4939 9.77011L24.0999 6.94101L25.1446 5.2869L28.0175 8.50798L26.4939 9.77011ZM23.0117 34.3194H9.43127L6.64554 31.0548V10.9018L9.43127 7.63728H23.0117L25.7974 10.9018V31.0984L23.0117 34.3194ZM22.9683 6.375H9.47491L8.51731 4.89516H23.8824L22.9683 6.375ZM7.25503 5.28682L8.29975 6.94093L5.90569 9.77003L4.38209 8.55127L7.25503 5.28682ZM4.12108 9.98774L5.38321 10.9888V31.0112L4.12108 32.0123V9.98774ZM5.94921 32.2301L8.34328 35.0592L7.29855 36.7133L4.42569 33.4922L5.94921 32.2301ZM9.47483 35.6252H22.9247L23.8823 37.105H8.51723L9.47483 35.6252ZM25.1881 36.7134L24.1434 35.0592L26.5374 32.2301L28.061 33.4489L25.1881 36.7134ZM27.0599 31.0114V10.9889L28.322 9.9879V32.0561L27.0599 31.0114ZM29.062 7.72442L25.8846 4.15504L26.9728 2.50094L30.629 6.50542L29.062 7.72442ZM24.753 3.54597H7.69037L6.73278 2.06613H25.7106L24.753 3.54597ZM6.51514 4.15534L3.33775 7.72471L1.77077 6.46258L5.42697 2.45809L6.51514 4.15534ZM2.81519 8.94316V33.1007L1.5093 34.1454V7.89859L2.81519 8.94316ZM3.38113 34.2759L6.55853 37.8453L5.47036 39.4994L1.81416 35.4949L3.38113 34.2759ZM7.69016 38.4543H24.7092L25.6668 39.9342L6.73256 39.9345L7.69016 38.4543ZM25.928 37.845L29.1054 34.2756L30.6724 35.5377L27.0162 39.5422L25.928 37.845ZM29.6279 33.1006V8.89957L30.9338 7.85484V34.1017L29.6279 33.1006Z" fill="#272B65"/>
</svg>
