<svg width="44" height="44" viewBox="0 0 44 44" fill="none" xmlns="http://www.w3.org/2000/svg">
<path fill-rule="evenodd" clip-rule="evenodd" d="M22 40.9747C32.4789 40.9747 40.9747 32.48 40.9747 22C40.9747 11.5211 32.48 3.02526 22 3.02526C11.5211 3.02526 3.02526 11.52 3.02526 22C3.02526 32.4789 11.52 40.9747 22 40.9747ZM22 42C33.0453 42 42 33.0453 42 22C42 10.9547 33.0453 2 22 2C10.9547 2 2 10.9547 2 22C2 33.0453 10.9547 42 22 42Z" fill="#272B65"/>
<path fill-rule="evenodd" clip-rule="evenodd" d="M30.3116 4.67065L4.41374 30.5685L3.68848 29.8422L29.5864 3.94644L30.3116 4.67276V4.67065Z" fill="#272B65"/>
<path fill-rule="evenodd" clip-rule="evenodd" d="M39.3371 30.318C29.1234 20.4675 23.4497 14.7906 13.4266 4.40749L14.1634 3.69485C24.1792 14.0696 29.8445 19.738 40.0487 29.5791L39.3371 30.318ZM29.3234 40.5612C19.6919 30.5738 14.0834 25.0222 3.69922 15.1927L4.40448 14.4475C14.7992 24.2875 20.4192 29.8506 30.0613 39.8485L29.3234 40.5612Z" fill="#272B65"/>
<path fill-rule="evenodd" clip-rule="evenodd" d="M27.4908 27.4905L40.5645 14.6737L39.8466 13.941L26.7655 26.7653L13.9424 39.8463L14.674 40.5642L27.4919 27.4905H27.4908Z" fill="#272B65"/>
<path fill-rule="evenodd" clip-rule="evenodd" d="M35.1774 36.2495L26.9722 27.5316L27.7195 26.8285L35.9238 35.5464L35.1764 36.2495H35.1774ZM16.7364 17.8106L7.50586 9.09269L8.21007 8.34637L17.4416 17.0643L16.7364 17.8106ZM36.4143 9.34848L27.6964 17.5537L26.9932 16.8064L35.7111 8.60216L36.4143 9.34953V9.34848ZM17.2164 27.6401L8.49849 36.8706L7.75323 36.1653L16.4711 26.9358L17.2164 27.6401Z" fill="#272B65"/>
<path fill-rule="evenodd" clip-rule="evenodd" d="M13.7959 39.9273C14.3706 25.8094 14.337 17.9662 13.7959 4.07151L14.8201 4.03151C15.3622 17.9515 15.3959 25.821 14.8201 39.9694L13.7959 39.9273ZM30.1106 39.9273C29.5359 25.8094 29.5696 17.9662 30.1106 4.07151L29.0864 4.03151C28.5433 17.9515 28.5106 25.821 29.0864 39.9694L30.1106 39.9273Z" fill="#272B65"/>
<path fill-rule="evenodd" clip-rule="evenodd" d="M39.7055 15.5895C25.717 15.9653 17.9055 15.9643 4.03809 15.5895L4.06545 14.5632C17.9139 14.939 25.7076 14.9401 39.6791 14.5632L39.7065 15.5895H39.7055ZM39.7055 28.9495C25.717 28.5727 17.9055 28.5737 4.03809 28.9495L4.06545 29.9748C17.9139 29.599 25.7076 29.598 39.6791 29.9748L39.7065 28.9495H39.7055Z" fill="#272B65"/>
<path fill-rule="evenodd" clip-rule="evenodd" d="M21.4872 15.6422V2.5127H22.5125V15.6422H21.4872ZM21.7051 41.539V29.2316H22.7304V41.539H21.7041H21.7051ZM28.8841 21.5401H41.7051V22.5653H28.8841V21.5401ZM2.21777 21.5401H14.5251V22.5653H2.21777V21.5401Z" fill="#272B65"/>
</svg>
