<svg width="40" height="40" viewBox="0 0 40 40" fill="none" xmlns="http://www.w3.org/2000/svg">
<path fill-rule="evenodd" clip-rule="evenodd" d="M8.08667 0H31.9133L40 8.48333V31.5156L31.9133 40H8.08667L0 31.5167V8.48444L8.08667 0ZM11.8078 38.9744H19.4744V36.1289L11.8078 38.9733V38.9744ZM20.5267 38.9744H28.1933L20.5267 36.1289V38.9733V38.9744ZM31.5789 38.8444L34.7156 35.5533L31.5789 32.0611V38.8444ZM30.5267 31.2822H24.0222L20.2711 34.9378L30.5256 38.7433V31.2822H30.5267ZM22.5356 31.2822H17.4656L20 33.7522L22.5356 31.2822ZM15.9767 31.2822H9.47333V38.7433L19.7278 34.9367L15.9767 31.2811V31.2822ZM9.47333 30.2567H14.9233L9.47333 24.9456V30.2567ZM16.4122 30.2567H23.5878L30.5267 23.4956V16.7356L23.35 9.74445H16.65L9.47333 16.7367V23.4967L16.4122 30.2578V30.2567ZM25.0767 30.2567H30.5267V24.9456L25.0767 30.2567ZM31.5789 30.2567H38.1833L34.5678 21.0078L31.5789 23.92V30.2567ZM8.42111 32.06V38.8444L5.28444 35.5533L8.42111 32.0611V32.06ZM5.04333 4.70222L8.42111 1.15778V7.99333L5.04333 4.70222ZM24.8389 9.74445H30.5267V15.2867L24.8378 9.74445H24.8389ZM9.47333 9.74445H15.1622L9.47333 15.2867V9.74333V9.74445ZM1.29 9.74445H8.42111V16.3122L5.11667 19.5322L1.28889 9.74333L1.29 9.74445ZM31.5789 16.3122V9.74445H38.1833L34.5022 19.16L31.5789 16.3111V16.3122ZM31.5789 1.15667V7.99333L34.9567 4.70222L31.5789 1.15778V1.15667ZM30.5267 8.71889V1.25667L20.1 5.12667L23.7856 8.71778H30.5267V8.71889ZM19.9 5.12667L9.47333 1.25667V8.71778H16.2144L19.9 5.12667ZM1.05222 12.0178V19.4867H3.97333L1.05222 12.0178ZM1.05222 20.5133V27.9822L3.97333 20.5122H1.05222V20.5133ZM1.21333 31.2822L4.56444 34.7978L7.72222 31.2822H1.21333ZM8.42111 30.2567V23.92L5.05111 20.6367L1.29 30.2567H8.42222H8.42111ZM8.42111 17.7611L6.00444 20.1167L8.42111 22.47V17.7611ZM7.67667 8.71778H1.21333L4.32556 5.45222L7.67667 8.71889V8.71778ZM35.6744 5.45222L38.7867 8.71889H32.3233L35.6744 5.45222ZM35.5011 19.4867L38.9478 10.6711V19.4867H35.5H35.5011ZM35.5011 20.5133H38.9478V29.3289L35.5011 20.5133ZM33.9956 20.1156L31.5789 22.47V17.7611L33.9956 20.1167V20.1156ZM35.4356 34.7978L32.2778 31.2822H38.7867L35.4356 34.7978ZM22.2978 8.71778L20 6.48L17.7022 8.71778H22.2978ZM11.8078 1.02556L19.4744 3.87111V1.02667H11.8078V1.02556ZM20.5267 3.87111L28.1933 1.02667H20.5267V3.87111Z" fill="#272B65"/>
</svg>
