<svg width="21" height="40" viewBox="0 0 21 40" fill="none" xmlns="http://www.w3.org/2000/svg">
<path fill-rule="evenodd" clip-rule="evenodd" d="M0.0143446 19.44H0.0113446C-0.128655 22.62 1.01434 27.805 4.15134 32.172C7.30834 36.564 12.4843 40.128 20.3673 39.997H20.5133V0H20.3563C12.3173 0 7.21134 3.435 4.12734 7.632C1.13934 11.699 0.0663446 16.459 0.0143446 19.44ZM18.6143 1.069C17.5496 1.13852 16.4912 1.28456 15.4473 1.506L13.9523 5.421L18.6133 1.069H18.6143ZM12.6493 6.052L14.2753 1.795C12.8186 2.19637 11.4193 2.78246 10.1113 3.539L12.6493 6.052ZM8.39135 4.688C7.14566 5.63998 6.03516 6.75687 5.09034 8.008L6.42634 9.078L8.39135 4.688ZM5.77834 9.843L4.50534 8.825C3.72051 9.98935 3.05863 11.232 2.53034 12.533L5.77834 9.843ZM1.65534 15.134C1.23534 16.706 1.03934 18.157 1.00634 19.322H2.84234C2.70734 18.082 2.32034 16.742 1.65534 15.134ZM2.89834 20.333H0.996345C1.03334 21.647 1.27334 23.24 1.76234 24.936C2.51434 23.26 2.88834 21.841 2.89834 20.379V20.333ZM2.62034 27.376C3.23562 28.859 4.01729 30.2674 4.95034 31.574C5.94568 32.9702 7.13421 34.218 8.48034 35.28L6.42134 30.455L6.27534 30.404L2.62034 27.376ZM7.69234 30.904L9.70735 35.625L12.0183 32.433L7.69234 30.904ZM12.6763 33.224L10.2923 36.518C11.4915 37.2249 12.7727 37.7824 14.1073 38.178L12.6763 33.224ZM15.2243 38.474C16.3271 38.7258 17.449 38.8847 18.5783 38.949L13.8883 33.85L15.2243 38.473V38.474ZM14.8693 33.44L18.4613 37.346L17.1293 34.239L14.8693 33.44ZM18.2523 34.34L19.5243 37.306V2.772L18.3583 5.232L18.2523 34.34ZM17.4093 4.914L18.5593 2.488L14.8483 5.954L17.4093 4.914ZM12.2103 7.025L9.59334 4.434L7.59334 8.9L12.2103 7.025ZM6.14134 10.843L2.27134 14.048C3.06934 15.861 3.57534 17.406 3.78134 18.858L6.37334 15.306C6.31334 13.918 6.23634 12.452 6.14134 10.843ZM6.43534 16.912L4.25534 19.898L6.52634 22.843C6.53534 20.844 6.50534 18.941 6.43534 16.912ZM7.50534 24.114C7.54034 21.207 7.49834 18.584 7.37634 15.622L13.0883 7.794L15.3593 9.541V29.834L13.1063 31.378L7.50634 24.114H7.50534ZM6.51234 24.458L3.86234 21.021C3.74834 22.608 3.24834 24.149 2.40934 25.901L6.39434 29.201C6.45234 27.487 6.49234 25.933 6.51234 24.458ZM7.36634 29.719C7.41634 28.287 7.45534 26.967 7.48034 25.714L11.7673 31.274L7.36634 29.719ZM13.9213 32.036L16.5883 32.978L15.6703 30.838L13.9213 32.036ZM16.3483 30.016L16.3903 29.998L17.2713 32.053L17.3613 7.333L16.3483 9.468V30.017V30.016ZM15.6933 8.533L16.7703 6.261L14.1333 7.332L15.6933 8.532V8.533ZM11.3743 8.453L7.30434 14.029C7.24734 12.829 7.17634 11.561 7.09434 10.19L11.3743 8.452V8.453Z" fill="#272B65"/>
</svg>
