<svg width="42" height="38" viewBox="0 0 42 38" fill="none" xmlns="http://www.w3.org/2000/svg">
<path d="M37.6794 4.06644C36.6341 3.02115 35.4584 2.19393 34.1953 1.62769L34.1519 1.58425H34.1084C31.8437 0.582665 29.3177 0.277656 26.9227 0.713317H26.8356C24.7015 1.14864 22.698 2.10678 20.9995 3.63089C19.3011 2.10647 17.2976 1.14836 15.1638 0.756479H15.0767C12.6813 0.320849 10.1554 0.582409 7.89097 1.62741H7.84753C7.84753 1.62741 7.80409 1.62741 7.80409 1.67085C6.54128 2.2371 5.36534 3.06463 4.31997 4.10961C-0.426968 8.85654 -0.426968 16.5215 4.31997 21.2685L8.89285 25.8414C8.93629 25.8849 8.98004 25.972 9.06692 26.0155L20.5643 37.5128C20.6077 37.5563 20.6077 37.5563 20.6515 37.5563H20.6949C20.7383 37.5563 20.7821 37.5997 20.7821 37.5997C20.8693 37.6432 20.9127 37.6432 20.9999 37.6432C21.0871 37.6432 21.1305 37.6432 21.2177 37.5997C21.2612 37.5997 21.3049 37.5563 21.3049 37.5563H21.3483C21.3918 37.5563 21.3918 37.5128 21.4355 37.5128L32.9329 26.0155C32.9763 25.972 33.0635 25.9283 33.107 25.8414L37.6798 21.2685C42.4265 16.5219 42.4265 8.81307 37.6795 4.06606L37.6794 4.06644ZM28.3596 28.7596C27.7499 27.8449 27.053 26.974 26.2256 26.1464H30.9725L28.3596 28.7596ZM11.0265 26.103H15.7734C14.9897 26.974 14.249 27.8449 13.6394 28.7162L11.0265 26.103ZM10.0684 18.0026C12.1153 18.6558 14.1184 19.4398 15.9913 20.398V24.7965H10.0684V18.0026ZM2.92608 8.4215C3.8408 8.81339 4.71173 9.20525 5.53927 9.64092L2.18549 14.3007C1.88079 12.2975 2.14205 10.2506 2.92611 8.4215H2.92608ZM20.9996 8.46494L26.6612 9.94558C27.8806 10.7731 28.5775 11.9925 28.7081 13.6038C27.3143 15.1282 26.0949 17.0007 25.0061 19.3088C23.6124 20.0057 22.2624 20.8332 20.9995 21.6604C19.7367 20.8328 18.3863 20.0054 16.9928 19.3088C15.9041 16.9572 14.6847 15.1278 13.2909 13.6038C13.4215 11.9488 14.0746 10.7731 15.3378 9.94558L20.9996 8.46494ZM35.2406 8.76994C35.1972 8.76994 35.1534 8.81338 35.0665 8.85713C34.4134 9.20557 33.8037 9.55401 33.194 9.90242V6.3749L37.4619 7.6815C36.7213 8.02964 35.9809 8.37777 35.2407 8.76995L35.2406 8.76994ZM29.8403 12.4716C29.579 11.2088 28.9693 10.2069 28.0546 9.37934L31.9306 6.72276V10.7728C31.1903 11.2959 30.4934 11.8619 29.8403 12.4716ZM26.8352 8.68276L22.2189 7.46335L27.053 2.28075L31.4515 5.50357L26.8352 8.68276ZM24.6577 24.5787C23.8739 23.8818 23.0464 23.1849 22.1751 22.5318C22.9589 22.0093 23.8301 21.5303 24.6577 21.0512V24.5787ZM17.3413 21.0949C18.2123 21.574 19.0398 22.053 19.8239 22.5755C18.9529 23.2287 18.1254 23.9255 17.3413 24.6224V21.0949ZM20.9995 23.3593C22.2189 24.2302 23.3511 25.145 24.3964 26.1465L20.9995 35.1615L17.6025 26.1465C18.6478 25.145 19.7801 24.2302 20.9995 23.3593ZM15.1638 8.68276L10.5475 5.50365L14.946 2.28083L19.7802 7.46343L15.1638 8.68276ZM13.9444 9.42308C13.0297 10.2506 12.4199 11.2522 12.1587 12.5153C11.5056 11.9056 10.8087 11.3394 10.0684 10.8169V6.76681L13.9444 9.42308ZM6.93273 8.85683C6.88899 8.85683 6.88899 8.85683 6.93273 8.85683C6.88929 8.81339 6.8021 8.76965 6.75866 8.76965C6.01834 8.37776 5.27802 8.02933 4.49396 7.68088L8.76183 6.37429V9.90181C8.15214 9.55367 7.54242 9.20523 6.93271 8.85675L6.93273 8.85683ZM6.71492 10.2071C7.4118 10.599 8.10869 10.9909 8.7618 11.4265V16.2173C6.84549 15.7382 4.92927 15.3897 3.05675 15.2157L6.71492 10.2071ZM10.0684 12.4281C10.8087 12.9944 11.4622 13.6041 12.1153 14.3444C13.1606 15.4767 14.1621 16.8704 15.0332 18.4817C13.4219 17.7413 11.7234 17.1317 10.025 16.6525L10.0247 12.4281H10.0684ZM16.601 27.1482L19.3447 34.4212L14.5975 29.6739C15.1637 28.803 15.8606 27.9754 16.601 27.1482ZM25.3982 27.1482C26.1819 27.9758 26.8354 28.8032 27.4017 29.6742L22.6547 34.4211L25.3982 27.1482ZM25.9644 24.7963V20.3978C27.8807 19.4397 29.8838 18.6559 31.8873 18.0024V24.7963L25.9644 24.7963ZM26.9226 18.4816C27.7935 16.8266 28.7951 15.4765 29.8404 14.3444C30.4936 13.6475 31.1904 12.9944 31.8873 12.4281V16.6525C30.2323 17.1315 28.5338 17.7412 26.9226 18.4816ZM33.2373 11.4699C33.8904 11.0343 34.5873 10.6424 35.2842 10.2505L38.8989 15.3025C37.0264 15.4765 35.1101 15.7815 33.1938 16.3041V11.4699H33.2373ZM36.4601 9.64082C37.2877 9.20519 38.1586 8.81328 39.0733 8.42141C39.8571 10.2939 40.1186 12.3408 39.8136 14.3009L36.4601 9.64082ZM37.9842 6.46171L33.4114 5.06793L34.1951 3.10824C35.1098 3.58731 35.9808 4.24048 36.721 4.98076C37.2439 5.45983 37.6361 5.93887 37.9842 6.46171H37.9842ZM33.0633 2.58571L32.2795 4.50201L28.7082 1.84543C30.1454 1.80168 31.6695 2.0195 33.0633 2.58575V2.58571ZM21.4788 4.98076C22.4804 3.97917 23.6129 3.23889 24.8323 2.71605L20.9998 6.85359L17.1672 2.71636C18.3866 3.23887 19.5188 3.97917 20.5207 4.98107C20.782 5.24232 21.2176 5.24232 21.4788 4.98076V4.98076ZM13.3349 1.84512L9.76355 4.5017L8.9798 2.5854C10.2426 2.10633 11.593 1.84508 12.8992 1.84508H13.3348L13.3349 1.84512ZM5.23445 4.98076C6.0182 4.197 6.84574 3.58698 7.76038 3.10824L8.54413 5.06793L4.01503 6.46171C4.36317 5.93889 4.75535 5.45981 5.23445 4.98076ZM2.79569 16.5652C4.75539 16.7393 6.80235 17.0877 8.80575 17.654L8.80545 23.8819L5.23414 20.3106C4.14569 19.2218 3.31815 17.9152 2.7957 16.5652H2.79569ZM33.2375 23.8819V17.654C35.241 17.0877 37.2442 16.7393 39.2476 16.5652C38.7251 17.9152 37.8976 19.2218 36.8088 20.3106L33.2375 23.8819Z" fill="#272B65"/>
</svg>
