<svg width="40" height="35" viewBox="0 0 40 35" fill="none" xmlns="http://www.w3.org/2000/svg">
<path fill-rule="evenodd" clip-rule="evenodd" d="M10.25 1.3L12.596 5.367L5.943 16.9H1.25L10.25 1.3ZM1.25 17.766H5.943L12.596 29.3L10.25 33.367L1.25 17.767V17.766ZM11 33.8H29L26.653 29.733H13.347L11 33.8ZM13.847 28.866H26.153L24.146 25.387H15.854L13.847 28.866ZM15.854 24.52H24.146L28.293 17.333L24.146 10.146H15.854L11.708 17.333L15.854 24.52ZM10.957 16.9L15.103 9.713L13.097 6.234L6.943 16.9H10.957ZM6.943 17.767L13.097 28.432L15.103 24.954L10.957 17.766H6.943V17.767ZM13.847 5.8L15.854 9.28H24.146L26.153 5.8H13.847ZM26.904 6.234L33.057 16.9H29.043L24.897 9.713L26.904 6.234ZM29.044 17.767L24.897 24.954L26.904 28.432L33.057 17.767H29.043H29.044ZM34.057 17.767L27.404 29.299L29.75 33.366L38.75 17.766H34.057V17.767ZM38.749 16.9H34.057L27.404 5.367L29.75 1.3L38.75 16.9H38.749ZM29 0.867L26.654 4.934H13.347L11 0.867H29ZM30 0L40 17.333L30 34.666H10L0 17.333L10 0H30Z" fill="#272B65"/>
</svg>
