<svg width="22" height="40" viewBox="0 0 22 40" fill="none" xmlns="http://www.w3.org/2000/svg">
<path fill-rule="evenodd" clip-rule="evenodd" d="M6.50767 11.6359H0.638672V10.9089H6.50767V11.6359ZM21.1787 11.6359H15.6767V10.9089H21.1787V11.6359Z" fill="#272B65"/>
<path fill-rule="evenodd" clip-rule="evenodd" d="M15.3066 10.982L10.9086 6.62204L6.51059 10.982L10.9086 25.624L15.3066 10.982ZM16.1346 10.775L10.9096 5.59204L5.68359 10.773L10.9096 28.171L16.1356 10.773L16.1346 10.775Z" fill="#272B65"/>
<path fill-rule="evenodd" clip-rule="evenodd" d="M18.2701 10.877L10.9101 3.57905L3.54813 10.877L10.9091 31.739L18.2701 10.877ZM19.1151 10.686L10.9091 2.55005L2.70312 10.686L10.9091 33.9421L19.1151 10.686Z" fill="#272B65"/>
<path fill-rule="evenodd" clip-rule="evenodd" d="M20.967 11L10.909 1.029L0.851 11L10.91 37.907L20.967 11ZM21.818 10.816L10.91 0L0 10.816L10.91 40L21.818 10.816Z" fill="#272B65"/>
<path fill-rule="evenodd" clip-rule="evenodd" d="M10.542 6.18201V0.364014H11.276V6.18201H10.542ZM10.542 38.545V26.182H11.276V38.545H10.542Z" fill="#272B65"/>
</svg>
