<svg width="27" height="40" viewBox="0 0 27 40" fill="none" xmlns="http://www.w3.org/2000/svg">
<path fill-rule="evenodd" clip-rule="evenodd" d="M13.09 0L26.182 20L13.09 40L0 20L13.09 0ZM1.073 20.352L12.74 38.178V35.301L2.955 20.352H1.072H1.073ZM3.798 20.352L12.741 34.016V30.447L6.132 20.352H3.797H3.798ZM6.743 20L13.091 29.698L19.439 20L13.091 10.302L6.743 20ZM13.443 9.555L20.05 19.648H22.385L13.443 5.987V9.555ZM12.739 5.987L3.797 19.648H6.132L12.74 9.555V5.987H12.739ZM12.739 4.701L2.956 19.648H1.072L12.739 1.823V4.701ZM13.443 4.701L23.226 19.648H25.11L13.443 1.823V4.701ZM25.11 20.352H23.226L13.444 35.298V38.175L25.11 20.352ZM13.444 34.012L22.385 20.352H20.05L13.444 30.444V34.012Z" fill="#272B65"/>
</svg>
