<svg width="24" height="42" viewBox="0 0 24 42" fill="none" xmlns="http://www.w3.org/2000/svg">
<path d="M19.1018 33.6664C19.1452 33.6227 19.1452 33.6227 19.1018 33.6664C20.19 32.0994 21.2347 30.2713 22.0181 28.2689C22.0615 28.2255 22.1052 28.1384 22.1052 28.0512C22.9757 25.8749 23.5417 23.4808 23.5417 20.9999C23.5417 18.4318 22.9323 15.9506 22.018 13.7308C22.018 13.6436 21.9746 13.6002 21.9309 13.5131C21.1476 11.5978 20.1462 9.85686 19.1451 8.377V8.33359L19.1017 8.29017C18.71 7.72422 18.3618 7.20198 17.9701 6.72318C17.3607 5.89608 16.7079 5.15619 16.0986 4.50335C14.1396 2.28299 12.4855 0.977085 12.3983 0.890263L12.3549 0.846846C12.3549 0.846846 12.3115 0.846846 12.3115 0.803428C12.3115 0.803428 12.2681 0.803428 12.2681 0.76001H12.2247H12.1812H12.0941H12.0507H12.0073H11.9638H11.8767H11.8333C11.7899 0.76001 11.7899 0.76001 11.7899 0.803428C11.7899 0.803428 11.7465 0.803428 11.7465 0.846846C11.7465 0.846846 11.703 0.846846 11.703 0.890263C11.6159 0.977404 9.96209 2.32667 7.91622 4.59025C7.35027 5.24304 6.7409 5.93953 6.17528 6.72318C5.82702 7.202 5.43535 7.72423 5.04364 8.29017C5.00022 8.33358 5.00022 8.37731 4.9565 8.42073C3.91176 9.94434 2.86726 11.7724 2.08361 13.7311C2.04019 13.7745 1.99647 13.8616 1.99647 13.9488C1.12599 16.1252 0.560059 18.5192 0.560059 21.0001C0.560059 23.5682 1.16943 26.0494 2.08368 28.2692C2.08368 28.3564 2.12709 28.3998 2.17082 28.4869C2.95416 30.4022 3.95552 32.1432 4.95658 33.623C4.95658 33.623 4.95658 33.6664 4.99999 33.6664L5.04341 33.7099C5.43509 34.2758 5.78334 34.798 6.17505 35.2768C8.91736 38.8463 11.616 41.0226 11.7031 41.1095C11.7465 41.1529 11.7903 41.1529 11.8337 41.1966C11.8771 41.1966 11.9642 41.24 12.0514 41.24C12.1385 41.24 12.1819 41.24 12.2691 41.1966C12.3125 41.1966 12.3562 41.1532 12.3996 41.1532C12.4868 41.066 14.1406 39.7168 16.1865 37.4098C16.7524 36.757 17.3618 36.0605 17.9274 35.2769C18.3619 34.7547 18.7098 34.2322 19.1018 33.6665L19.1018 33.6664ZM16.0546 35.538L15.6629 33.9275H17.3171C16.8817 34.4935 16.49 35.0157 16.0546 35.538H16.0546ZM6.6962 33.9275H8.35032L8.00206 35.5816C7.56666 35.0591 7.13159 34.5369 6.69616 33.9275H6.6962ZM1.90802 23.0457L4.25835 26.0054L2.90907 27.0936C2.43056 25.788 2.08228 24.4384 1.90802 23.0457ZM2.86562 15.0801L4.25866 16.0377L1.9517 18.9541C2.08226 17.6482 2.43052 16.3423 2.86562 15.0801ZM7.95857 6.46169L8.35025 8.07212H6.69613C7.13153 7.50617 7.52323 6.98394 7.95858 6.46169H7.95857ZM17.317 8.07212H15.6629L16.0111 6.418C16.4465 6.94054 16.8816 7.46274 17.317 8.07212H17.317ZM22.1052 18.954L19.7548 15.9943L21.1041 14.9061C21.5826 16.2117 21.9309 17.5613 22.1052 18.954ZM21.1476 26.9195L19.7545 25.9619L22.0615 23.0456C21.9309 24.3515 21.5827 25.6574 21.1476 26.9195ZM12.0068 28.7477L9.22103 26.6584L7.91512 20.9564L9.22103 15.2544L12.0068 13.1651L14.7925 15.2544L16.0984 20.9564L14.7925 26.6584L12.0068 28.7477ZM7.74117 26.1359L6.0436 25.6571L7.04465 23.1758L7.74117 26.1359ZM7.08808 18.8234L6.08702 16.3422L7.78459 15.8634L7.08808 18.8234ZM8.04568 14.4272L5.86931 15.0366L6.04329 9.37793H8.48075L8.04568 14.4272ZM4.99883 17.1692L6.52245 20.9997L4.99883 24.7865L1.95199 20.9997L4.99883 17.1692ZM5.86931 26.9629L8.04568 27.5723L8.48108 32.6215H6.08699L5.86931 26.9629ZM16.2724 15.8634L17.9699 16.3422L16.9254 18.8231L16.2724 15.8634ZM16.9255 23.1758L17.9265 25.6571L16.229 26.1359L16.9255 23.1758ZM19.0147 24.83L17.4911 20.9995L19.0147 17.2127L22.0616 20.9995L19.0147 24.83ZM18.1442 15.0363L15.9679 14.4269L15.5325 9.37765H17.9266L18.1442 15.0363ZM15.9679 27.5722L18.1442 26.9628L17.9703 32.6215H15.5762L15.9679 27.5722ZM19.4501 27.3111L20.6689 28.1816C20.2772 29.0958 19.7984 30.0097 19.3196 30.8802L19.4501 27.3111ZM19.4501 14.6011L19.3196 11.1625C19.7984 11.9896 20.2338 12.8167 20.5817 13.6871L19.4501 14.6011ZM14.3137 10.466L14.5749 13.5566L12.921 12.2942L14.3137 10.466ZM12.0068 11.3365L9.91754 8.59419L12.0068 3.24039L14.096 8.63787L12.0068 11.3365ZM11.0926 12.2941L9.43843 13.5562L9.69955 10.4656L11.0926 12.2941ZM4.56343 14.6882L3.34466 13.8177C3.73634 12.9035 4.21513 11.9896 4.69393 11.1191L4.56343 14.6882ZM4.56343 27.3982L4.69399 30.8367C4.21517 30.0096 3.77975 29.1826 3.43185 28.3121L4.56343 27.3982ZM9.69983 31.5332L9.39499 28.4429L11.0491 29.7051L9.69983 31.5332ZM12.0068 30.6628L14.096 33.4051L12.0068 38.7589L9.91754 33.3614L12.0068 30.6628ZM12.921 29.7052L14.5751 28.443L14.314 31.5336L12.921 29.7052ZM14.9231 5.15567L14.662 6.41782L13.6173 3.76264C14.0093 4.19804 14.4881 4.67687 14.9232 5.15567H14.9231ZM10.3964 3.8064L9.35169 6.54871L9.04685 5.24281C9.48224 4.72027 9.96108 4.24144 10.3964 3.8064H10.3964ZM9.09052 36.8438L9.35164 35.5816L10.3964 38.2368C10.0044 37.8014 9.52559 37.3226 9.09047 36.8438H9.09052ZM13.6172 38.193L14.662 35.4507L14.9668 36.7566C14.5314 37.2792 14.0526 37.758 13.6172 38.193H13.6172Z" fill="#272B65"/>
</svg>
