<svg width="34" height="34" viewBox="0 0 34 34" fill="none" xmlns="http://www.w3.org/2000/svg">
<path d="M24.3055 32.5719C24.3091 32.5719 24.3091 32.5719 24.3127 32.5684C26.415 31.9684 28.3508 30.8211 29.7693 29.3368C31.2999 27.9614 32.4867 26.0842 33.1018 24.0456C33.1018 24.0421 33.1018 24.0421 33.1055 24.0386C33.3985 23.0737 33.5469 22.1228 33.5469 21.2105V12.7895C33.5469 11.8772 33.3985 10.9263 33.1055 9.9614C33.1055 9.9579 33.1055 9.95789 33.1018 9.95439C32.4831 7.91579 31.2999 6.0386 29.7693 4.66316C28.3508 3.17895 26.415 2.02807 24.3127 1.43158C24.3091 1.43158 24.3091 1.43158 24.3055 1.42807C23.3104 1.14386 22.3298 1 21.389 1H12.7048C11.764 1 10.7834 1.14386 9.78827 1.42807C9.78467 1.42807 9.78467 1.42807 9.78107 1.43158C7.67878 2.03158 5.74292 3.17895 4.3245 4.66316C2.79391 6.0386 1.60707 7.91579 0.991945 9.95439C0.991945 9.95789 0.991945 9.9579 0.988325 9.9614C0.695235 10.9263 0.546875 11.8772 0.546875 12.7895V21.2105C0.546875 22.1228 0.695235 23.0737 0.988325 24.0386C0.988325 24.0421 0.988325 24.0421 0.991945 24.0456C1.6107 26.0842 2.79391 27.9614 4.3245 29.3368C5.74292 30.8211 7.67878 31.9719 9.78107 32.5684C9.78467 32.5684 9.78467 32.5684 9.78827 32.5719C10.7834 32.8561 11.764 33 12.7048 33H21.389C22.3298 33 23.3104 32.8561 24.3055 32.5719ZM1.03174 17L4.76233 12.0667L9.51332 17L4.76595 21.9333L1.03174 17ZM5.1278 11.8281L9.59297 10.2807V16.4667L5.1278 11.8281ZM9.59297 17.5333V23.7193L5.1278 22.1719L9.59297 17.5333ZM10.0272 10.193H24.0666V23.807H10.0272V10.193ZM11.9594 5.09123L17.0469 1.47018L22.1344 5.08772L17.0469 9.69474L11.9594 5.09123ZM16.4969 9.77193H10.1176L11.7133 5.44211L16.4969 9.77193ZM17.5969 9.77193L22.3805 5.44211L23.9762 9.77193H17.5969ZM33.062 17L29.3278 21.9333L24.5805 17L29.3278 12.0667L33.062 17ZM28.966 22.1719L24.5008 23.7193V17.5333L28.966 22.1719ZM24.5008 16.4667V10.2807L28.966 11.8281L24.5008 16.4667ZM16.4969 24.2281L11.7133 28.5579L10.1176 24.2281H16.4969ZM17.0469 24.3053L22.1344 28.9088L17.0469 32.5298L11.9594 28.9088L17.0469 24.3053ZM17.5969 24.2281H23.9762L22.3805 28.5579L17.5969 24.2281ZM21.389 32.5789H17.7091L22.3949 29.2456L23.9364 32.2351C23.068 32.4632 22.2104 32.5789 21.389 32.5789ZM24.3633 32.1158L22.8328 29.1509L29.1216 29.3789C27.8443 30.6 26.14 31.5789 24.3633 32.1158ZM29.393 28.9719L22.7785 28.7333L24.4538 24.186L29.1433 22.5614L29.393 28.9719ZM32.6351 24.0947C32.0814 25.8211 31.0719 27.4702 29.8127 28.7088L29.5775 22.6105L32.6351 24.0947ZM33.1127 21.2105C33.1127 22.007 32.9933 22.8386 32.7581 23.6842L29.6752 22.1895L33.1127 17.6456V21.2105ZM33.1127 12.7895V16.3579L29.6752 11.814L32.7581 10.3193C32.9933 11.1614 33.1127 11.993 33.1127 12.7895ZM32.6351 9.90526L29.5775 11.3895L29.8127 5.29123C31.0719 6.52982 32.0814 8.18246 32.6351 9.90526ZM29.1433 11.4421L24.4538 9.81754L22.7785 5.27018L29.393 5.03158L29.1433 11.4421ZM29.1216 4.61754L22.8328 4.84561L24.3633 1.8807C26.14 2.42105 27.8443 3.4 29.1216 4.61754ZM21.389 1.42105C22.2104 1.42105 23.068 1.53684 23.94 1.76491L22.3985 4.75439L17.7091 1.42105H21.389ZM12.7048 1.42105H16.3847L11.6989 4.75439L10.1574 1.76491C11.0258 1.53684 11.8834 1.42105 12.7048 1.42105ZM9.73048 1.88421L11.261 4.84912L4.97221 4.62105C6.24951 3.4 7.95379 2.42105 9.73048 1.88421ZM4.70083 5.02807L11.3153 5.26667L9.63997 9.81404L4.95049 11.4386L4.70083 5.02807ZM1.45871 9.90526C2.01233 8.17895 3.02187 6.52982 4.28109 5.29123L4.51628 11.3895L1.45871 9.90526ZM0.981085 12.7895C0.981085 11.993 1.1005 11.1614 1.3357 10.3158L4.41858 11.8105L0.981085 16.3579V12.7895ZM0.981085 21.2105V17.6421L4.41858 22.186L1.3357 23.6807C1.1005 22.8386 0.981085 22.007 0.981085 21.2105ZM1.45871 24.0947L4.51628 22.6105L4.28109 28.7088C3.02187 27.4702 2.01233 25.8175 1.45871 24.0947ZM4.95049 22.5579L9.63997 24.1825L11.3153 28.7298L4.70083 28.9684L4.95049 22.5579ZM4.97221 29.3825L11.261 29.1544L9.73048 32.1193C7.95379 31.5789 6.24951 30.6 4.97221 29.3825ZM12.7048 32.5789C11.8834 32.5789 11.0258 32.4632 10.1538 32.2351L11.6953 29.2456L16.3811 32.5789H12.7048Z" fill="#464646" stroke="#464646" stroke-width="0.365714"/>
</svg>
