<svg width="40" height="40" viewBox="0 0 40 40" fill="none" xmlns="http://www.w3.org/2000/svg">
<path fill-rule="evenodd" clip-rule="evenodd" d="M28.23 0L39.9622 11.6778L40 28.23L28.3222 39.9622L11.77 40L0.0377778 28.3222L0 11.77L11.6778 0.0377778L28.23 0ZM11.7 1.43333L12.3278 2.91333L2.88889 12.3956L1.41111 11.7689L11.7 1.43333ZM1.00222 12.6822L1.03556 27.4711L2.52444 26.8411L2.49222 13.3133L1.00222 12.6822ZM3.49333 13.7378L3.52222 26.4178L5.18667 25.7133L5.16 14.4444L3.49333 13.7378ZM6.16111 14.8678L6.18556 25.29L8.04778 24.5011L8.02778 15.6589L6.16111 14.8678ZM8.37667 14.7211L6.52667 13.9367L13.8711 6.55778L14.6567 8.41111L8.37667 14.7211ZM9.02667 15.4844L9.04889 24.5667L15.4422 30.9311L15.5422 30.9733L24.5667 30.9522L30.9733 24.5156L30.9511 15.4344L24.5156 9.02667L15.4333 9.04889L9.02667 15.4844ZM15.5889 8.04778L24.3156 8.02778L25.1067 6.16111L14.8 6.18556L15.5889 8.04778ZM14.3778 5.18667L25.5311 5.16111L26.2367 3.49333L13.6722 3.52222L14.3767 5.18667H14.3778ZM12.7489 3.90778L3.88222 12.8156L5.53444 13.5156L13.45 5.56333L12.7489 3.90778ZM13.2489 2.52333L26.6611 2.49222L27.2922 1.00222L12.6178 1.03556L13.2489 2.52333ZM28.2133 1.39333L27.5867 2.87111L37.0011 12.2422L38.4811 11.6144L28.2122 1.39333H28.2133ZM38.9633 12.4956L37.4767 13.1267L37.5078 26.5111L38.9967 27.1433L38.9633 12.4956ZM38.7111 28.1067L37.2333 27.4811L27.8222 36.9367L28.4489 38.4178L38.7111 28.1067ZM27.5933 38.9633L26.9633 37.4767L13.4633 37.5078L12.8322 38.9967L27.5933 38.9633ZM11.8744 38.6933L12.5011 37.2156L2.97667 27.7356L1.49667 28.3633L11.8744 38.6933ZM3.97 27.3144L12.9211 36.2233L13.6211 34.5711L5.62667 26.6122L3.97111 27.3144H3.97ZM6.62111 26.1922L14.0422 33.5789L14.8256 31.7289L8.47444 25.4067L6.62111 26.1911V26.1922ZM15.8089 31.9722L15.0178 33.8389L25.4122 33.8144L24.6233 31.9522L15.8089 31.9722ZM25.4922 31.4389L26.2778 33.2933L33.5967 25.94L31.7467 25.1567L25.4911 31.44L25.4922 31.4389ZM31.9722 24.1656L33.8389 24.9567L33.8144 14.6778L31.9522 15.4667L31.9722 24.1667V24.1656ZM31.5033 14.5711L33.3567 13.7856L26.0456 6.50778L25.2611 8.35889L31.5033 14.5711ZM26.4656 5.51556L34.3511 13.3644L36.0067 12.6633L27.1667 3.86333L26.4667 5.51667L26.4656 5.51556ZM36.4767 13.5489L34.8133 14.2544L34.8389 25.3811L36.5056 26.0878L36.4778 13.55L36.4767 13.5489ZM36.2411 27.0611L34.5889 26.3611L26.6989 34.2878L27.4 35.9433L36.2411 27.0611ZM26.5411 36.4778L25.8356 34.8133L14.5933 34.84L13.8878 36.5067L26.54 36.4778H26.5411Z" fill="#272B65"/>
</svg>
