<svg width="40" height="40" viewBox="0 0 40 40" fill="none" xmlns="http://www.w3.org/2000/svg">
<path fill-rule="evenodd" clip-rule="evenodd" d="M20.19 0L31.7189 1.6362L36.3767 3.3911L36.8156 3.34631L36.7811 3.69572L38.5833 8.7219L40 20.0991L38.0278 31.604L36.2311 36.5238L31.4856 38.1678L19.8133 39.9574L19.75 40L19.69 39.9597L8.59 38.1678L3.34111 36.5271L1.69333 30.9813L0 19.5504L1.90333 8.11042L3.62778 3.28695L8.90889 1.3327L20.1889 0H20.19ZM21.8667 38.6203L30.6067 37.2797L29.1067 33.9021L21.8667 38.6203ZM30.2278 33.9502L31.6067 37.0557L34.3589 36.1038L33.5089 35.6659C32.6256 35.2068 31.49 34.6132 30.2278 33.9491V33.9502ZM35.8933 34.5225L36.9267 31.6891L33.8878 30.4012C34.5625 31.7719 35.2311 33.1457 35.8933 34.5225ZM33.72 29.232L37.1656 30.6935L38.6633 21.9604L33.7211 29.232H33.72ZM38.78 18.4237L37.6733 9.53832L33.8844 11.095L38.78 18.4237ZM33.7944 10.04L37.45 8.53935L36.2378 5.15497C36.1089 5.41927 35.9567 5.72724 35.7856 6.07218C35.1263 7.39706 34.4626 8.71969 33.7944 10.04ZM34.97 3.94098L31.9289 2.79531L30.4511 6.17521C31.8844 5.45847 33.1767 4.81563 34.1589 4.33519C34.4589 4.18848 34.7322 4.05521 34.97 3.94098ZM29.3144 6.26368L30.9411 2.54669L22.2133 1.30806L29.3156 6.26368H29.3144ZM18.27 1.24535L9.69778 2.25887L11.1811 5.97027L18.27 1.24423V1.24535ZM8.62222 2.51645L5.62778 3.62516C5.90444 3.75955 6.23111 3.92082 6.6 4.10449C7.49778 4.55245 8.64889 5.13369 9.92667 5.78212L8.62222 2.51645ZM10.4944 7.20217C9.05041 6.46671 7.60373 5.73652 6.15444 5.01162C5.59444 4.73164 5.13556 4.50654 4.80778 4.34863C4.94889 4.65101 5.13222 5.03626 5.35222 5.49094C5.88333 6.59518 6.61778 8.09474 7.43333 9.74886L7.58333 10.0546L12.5889 12.4445L10.4944 7.20329V7.20217ZM12.9278 13.7246L8.30667 11.5183C9.44444 13.8197 10.65 16.2421 11.6367 18.221L12.9267 13.7246H12.9278ZM11.24 19.6758C10.0756 17.3441 8.46222 14.1031 7.01667 11.1756L1.27 19.5683L6.78333 28.4996L8.02 26.0548C9.18889 23.7467 10.3567 21.4397 11.24 19.6758ZM5.87333 28.9397L1.31111 21.5505L2.59556 30.2243L5.87333 28.9397ZM2.81333 31.2243L3.78333 34.4855L4.2 33.64C4.68556 32.659 5.33 31.3778 6.04667 29.9566L2.81333 31.2243ZM7.45444 29.4011L7.28222 29.7416C6.54919 31.189 5.82104 32.6389 5.09778 34.0913C4.90889 34.4721 4.74333 34.8081 4.60889 35.0858L5.44 34.6737C6.89077 33.948 8.33893 33.2171 9.78444 32.4809L10.6067 32.062L12.5811 27.3102L7.45444 29.4011ZM13.82 26.9485L18.2822 28.1468C16.1825 29.2162 14.0836 30.2872 11.9856 31.3599L13.8189 26.9485H13.82ZM10.0089 33.4989C8.63656 34.1979 7.26174 34.8918 5.88444 35.5808C5.57111 35.7376 5.28667 35.8776 5.04 35.9985L8.51778 37.086L10.0089 33.4989ZM9.51778 37.2932L17.6933 38.6113L10.8789 34.0163L9.51778 37.2932ZM11.2744 33.0666L11.3867 32.7956C12.7067 32.1236 14.08 31.4237 15.3989 30.7495C17.0156 29.9252 18.55 29.1413 19.8067 28.5041C22.728 30.0071 25.641 31.5265 28.5456 33.0621L19.7589 38.7882L11.2744 33.0655V33.0666ZM29.5667 32.4596L29.7111 32.5358C31.3644 33.4048 32.8633 34.1932 33.9667 34.7644C34.4644 35.022 34.88 35.2348 35.1922 35.3915C35.0086 35 34.8227 34.6095 34.6344 34.2201C34.1022 33.1159 33.3678 31.6163 32.5533 29.9622L32.4656 29.7864L27.2967 27.345L29.5667 32.4596ZM27.0011 26.0884L31.7467 28.3294C30.612 26.0354 29.4734 23.7433 28.3311 21.4531L27.0011 26.0884ZM26.0011 25.9339L27.69 20.0487L27.6933 20.0498L26.2044 13.9597L20.5767 12.3247L14.04 13.8231L12.3333 19.7732L14.1144 25.9798L19.6278 27.4614L19.7122 27.4189L19.7411 27.476L19.8944 27.4379L19.9033 27.42L19.9256 27.4312L26.0011 25.9339ZM21.2978 28.1334C23.3156 29.1738 25.7956 30.4762 28.1333 31.7059L26.03 26.9687L21.2967 28.1334H21.2978ZM13.9156 12.8152L19.1489 11.6146L15.6589 9.83397L11.9744 7.95476L13.9156 12.8152ZM11.83 6.74861L16.1133 8.93244C17.73 9.75782 19.2656 10.5418 20.5211 11.1801C22.7656 10.0412 25.8567 8.47888 28.69 7.05658L20.2278 1.15127L11.83 6.74861ZM21.8444 11.6404C23.7722 10.6638 26.1444 9.46552 28.4133 8.32545L26.3856 12.9597L21.8444 11.6404ZM27.2122 13.8578L28.3622 18.5592C29.1622 16.9678 30.1178 15.0797 31.0733 13.1915L31.6733 12.0088L27.2122 13.8578ZM32.3722 10.6246L32.7033 9.96948C33.5503 8.29596 34.3907 6.61906 35.2244 4.93882L34.5967 5.24344C33.0004 6.02804 31.4078 6.8202 29.8189 7.6199L27.6456 12.5845L32.3722 10.6246ZM33.0089 11.5922L31.9644 13.6551C30.7967 15.9633 29.6289 18.2703 28.7456 20.0342C29.9122 22.3681 31.5267 25.6125 32.9733 28.5422L38.7011 20.1148L33.0089 11.5922ZM11.6622 21.0734C10.4946 23.3929 9.32307 25.7104 8.14778 28.0259L13.0789 26.0145L11.6611 21.0734H11.6622ZM1.32222 17.7081L2.76222 9.06011L6.22222 10.553L1.32333 17.7092L1.32222 17.7081ZM6.15 9.42296C5.57782 8.26156 5.01003 7.09796 4.44667 5.93219C4.31244 5.65377 4.1791 5.37491 4.04667 5.09561L2.98889 8.05667L6.15111 9.42296H6.15Z" fill="#272B65"/>
</svg>
