<svg width="42" height="40" viewBox="0 0 42 40" fill="none" xmlns="http://www.w3.org/2000/svg">
<path fill-rule="evenodd" clip-rule="evenodd" d="M0 0H17.8947V25.7242H0V0ZM0.911579 0.558947L3.45474 3.35579H14.2389L16.9547 0.557895H0.911579V0.558947ZM17.3358 0.969474L14.6316 3.75053V22.1632L17.3347 24.7821V0.968421L17.3358 0.969474ZM16.9253 25.1642L14.3284 22.6484H3.37053L0.938947 25.1642H16.9253ZM0.557895 24.7526V1.00316L2.96842 3.65158V22.2589L0.557895 24.7526ZM3.90947 22.0895H13.7505L12.8842 21.2505H4.72105L3.91053 22.0884L3.90947 22.0895ZM4.88105 20.6905H12.7179V5.31158H4.88211V20.6905H4.88105ZM4.72421 4.75368H12.88L13.6947 3.91474H3.96316L4.72526 4.75368H4.72421ZM3.52632 4.26632V21.68L4.32105 20.8579V5.14105L3.52632 4.26737V4.26632ZM14.0726 4.32737L13.2779 5.14632V20.8516L14.0726 21.6221V4.32737ZM30.5263 16.8421H33.7832L38.9337 21.2284L40.0495 24.9063L41.0526 28.4716L39.0442 35.6126L33.7684 40L27.2716 39.9874L21.8968 35.6021L20 28.4716L21.8958 21.24L27.2579 16.8547L30.5253 16.8421H30.5263ZM29.6211 17.3495L27.6684 17.3558L27.96 18.3979C28.3684 18.1558 28.7053 17.9379 29.0442 17.7179L29.0463 17.7168C29.2326 17.5958 29.42 17.4747 29.62 17.3484L29.6211 17.3495ZM27.5 18.5726L25.48 18.9516L27.2095 17.5368L27.5 18.5726ZM24.1537 20.0358L22.5011 21.3874L23.2579 22.0253L24.1537 20.0358ZM23.8726 22.5432L24.9758 23.4726C25.2705 22.9947 25.56 22.5095 25.8495 21.9989C25.2295 22.18 24.5779 22.3579 23.8726 22.5432ZM26.5274 21.7958C26.1379 22.5011 25.7547 23.1537 25.3568 23.7937L30.0726 27.7653L28.2421 21.2253C27.6811 21.4274 27.1158 21.6147 26.5274 21.7958ZM28.1063 20.7411C27.7 20.8874 27.2916 21.0263 26.8737 21.1611C27.1579 20.6326 27.4463 20.0726 27.7505 19.4684L28.1063 20.7411ZM28.7042 21.0558L30.5253 27.56L32.3337 21.0674C31.7171 20.837 31.107 20.5895 30.5042 20.3253C29.8863 20.5937 29.2937 20.8337 28.7042 21.0558ZM29.8832 20.0453C29.4358 20.2347 29.0011 20.4074 28.5674 20.5716L28.1937 19.2347C28.7926 19.5347 29.3495 19.8032 29.8821 20.0453H29.8832ZM31.1284 20.0474C31.5821 20.24 32.0253 20.4158 32.4684 20.5821L32.8442 19.2347C32.2379 19.5337 31.6705 19.8032 31.1284 20.0474ZM33.2926 19.4505L32.9305 20.7516C33.3411 20.8989 33.7579 21.04 34.1874 21.1779C33.8814 20.6065 33.5831 20.031 33.2926 19.4516V19.4505ZM34.5347 21.8137C33.951 21.6337 33.3712 21.441 32.7958 21.2358L30.9821 27.7474L35.6442 23.7105C35.2591 23.0873 34.8892 22.4548 34.5347 21.8137ZM36.0211 23.3832C35.7484 22.9411 35.4821 22.4905 35.2147 22.02C35.7747 22.1863 36.3663 22.3537 37.0063 22.5305L36.0211 23.3832ZM35.9116 24.1368L31.1958 28.22H37.0526C37.0495 27.4758 37.0632 26.7179 37.0989 25.9158C36.6903 25.3315 36.2944 24.7384 35.9116 24.1368ZM37.14 25.1063C36.8432 24.6705 36.5611 24.2432 36.2874 23.8105L37.3053 22.9295C37.2384 23.6542 37.1834 24.3799 37.14 25.1063ZM37.5632 26.5737C37.5464 27.1223 37.5393 27.6711 37.5421 28.22H38.7705C38.3625 27.6753 37.96 27.1265 37.5632 26.5737ZM38.7705 28.7232H37.5474C37.5558 29.26 37.5726 29.7937 37.5989 30.3358C37.96 29.8232 38.3484 29.2905 38.7705 28.7232ZM37.1432 30.9905C37.0989 30.22 37.0695 29.4747 37.0579 28.7232H31.2105L35.9926 32.7505C36.3547 32.1674 36.7337 31.5884 37.1432 30.9905ZM36.3737 33.0716C36.6368 32.6463 36.9084 32.2242 37.1947 31.7958C37.2411 32.4653 37.2968 33.1611 37.3611 33.9032L36.3737 33.0716ZM35.7295 33.1789L30.9779 29.1779L32.8074 35.7137C33.4129 35.4846 34.0243 35.2715 34.6411 35.0747C34.9896 34.4351 35.3525 33.8033 35.7295 33.18V33.1789ZM35.319 34.8642C35.5821 34.3958 35.8432 33.9442 36.1116 33.5011L37.1274 34.3568C36.4853 34.5253 35.8884 34.6937 35.32 34.8642H35.319ZM34.2958 35.7168C33.8358 35.8695 33.3884 36.0295 32.9432 36.1989L33.3326 37.5905C33.6684 36.9189 33.9853 36.3 34.2958 35.7168ZM32.8789 37.7884L32.4832 36.3768C32.0432 36.5505 31.6 36.7347 31.1463 36.9347C31.6989 37.1937 32.2705 37.4768 32.8789 37.7884ZM30.5411 36.6547C31.1371 36.3859 31.7394 36.1311 32.3474 35.8905L30.5263 29.3789L28.6968 35.88C29.3084 36.1158 29.9158 36.3716 30.5421 36.6547H30.5411ZM28.56 36.3653C29.0158 36.5421 29.4705 36.7295 29.9326 36.9326C29.3386 37.2088 28.7481 37.4924 28.1611 37.7832L28.56 36.3653ZM28.2358 35.7053L30.0747 29.1684L25.2958 33.1358C25.6768 33.7642 26.0453 34.4053 26.4179 35.0905C27.0293 35.2791 27.6354 35.4841 28.2358 35.7053ZM26.76 35.7263C27.2179 35.8737 27.6611 36.0284 28.1 36.1895L27.7105 37.5758C27.3779 36.9126 27.0653 36.3021 26.76 35.7253V35.7263ZM25.7442 34.8884C25.4684 34.3937 25.1937 33.92 24.9126 33.4547L23.8158 34.3642C24.5021 34.5389 25.14 34.7116 25.7442 34.8884ZM23.5884 33.9063L24.6495 33.0253C24.363 32.5642 24.0683 32.1083 23.7653 31.6579C23.7168 32.3716 23.6579 33.1126 23.5884 33.9063ZM23.8137 30.8537C24.2505 31.4853 24.6505 32.0947 25.0326 32.7074L29.8326 28.7232H23.8916C23.8811 29.4305 23.8537 30.1316 23.8137 30.8537ZM23.4021 28.7232C23.3942 29.2156 23.3791 29.708 23.3568 30.2C23.0036 29.7036 22.6446 29.2113 22.28 28.7232H23.4021ZM23.8968 28.22H29.84L25.0895 24.2179C24.6919 24.8392 24.2806 25.4517 23.8558 26.0547C23.8874 26.8053 23.8989 27.5179 23.8958 28.22H23.8968ZM23.3895 26.7116C23.4042 27.2263 23.4095 27.7253 23.4074 28.22H22.2811C22.6779 27.6884 23.0453 27.1895 23.3895 26.7116ZM23.8168 25.2453C24.1284 24.7905 24.4232 24.3463 24.7084 23.8979L23.6516 23.0074C23.7232 23.8032 23.7779 24.5432 23.8168 25.2453ZM23.1621 23.0347C23.2568 24.0726 23.32 25.0137 23.36 25.9011C22.9221 26.5221 22.4474 27.1705 21.9189 27.8779L21.4021 25.1621L23.1621 23.0337V23.0347ZM22.9979 22.4558L21.6589 24.0747L22.2484 21.8263L22.9979 22.4568V22.4558ZM21.1021 26.2021L20.5726 28.22H21.4863L21.1021 26.2021ZM21.4916 28.7232L21.1316 30.8179L20.5737 28.7232H21.4916ZM21.7053 32.9768L22.2484 35.019L22.9337 34.4495L21.7053 32.9768ZM23.1 33.8758C23.1895 32.8463 23.2632 31.9053 23.3158 31.0011C22.8937 30.3937 22.4368 29.7611 21.9274 29.0768L21.4432 31.8895L23.1 33.8758ZM23.1989 34.8758L22.5032 35.4547L24.0568 36.7221L23.1989 34.8758ZM25.7 38.0632L27.2232 39.3053L27.4653 38.4463L25.7 38.0632ZM27.9253 38.6211L29.5295 39.4884L27.6821 39.4853L27.9242 38.6221L27.9253 38.6211ZM31.5211 39.4926L33.3568 39.4958L33.1158 38.6368L31.5211 39.4926ZM33.5758 38.4611L35.3021 38.0768L33.8147 39.3137L33.5758 38.4611ZM36.9168 36.7347L38.4432 35.4653L37.7484 34.8789L36.9168 36.7347ZM38.0095 34.4484L39.2779 32.9705L38.6989 35.0295L38.0095 34.4484ZM39.8832 30.8168L39.5558 28.7221H40.4726L39.8832 30.8168ZM40.4726 28.22H39.5547L39.8832 26.1253L40.4726 28.22ZM39.2453 23.9484L38.5979 21.8116L37.9063 22.4095L39.2453 23.9484ZM37.7874 23.0274C37.6979 24.0168 37.6347 24.9168 37.5947 25.7642C38.0558 26.4211 38.5558 27.1063 39.1168 27.8568L39.5547 25.0568L37.7874 23.0274ZM39.1168 29.0863C38.6131 29.761 38.1214 30.4446 37.6421 31.1368C37.6947 31.9979 37.7653 32.8947 37.8505 33.8737L39.5558 31.8863L39.1168 29.0863ZM37.6621 21.9632L36.8589 20.1147L38.34 21.3758L37.6621 21.9632ZM35.3716 18.8474L33.54 18.5611L33.8274 17.5326L35.3716 18.8484V18.8474ZM33.3705 17.3453H31.4063L33.0811 18.3832L33.3705 17.3453ZM32.7126 18.7421L30.5221 17.3842C30.0537 17.6589 29.6811 17.9 29.3053 18.1432V18.1442C29.0032 18.3389 28.7 18.5358 28.3453 18.7505C29.1242 19.1411 29.8316 19.4779 30.5053 19.7779C31.2484 19.4485 31.9843 19.1031 32.7126 18.7421ZM27.3821 19.1063C27.0019 19.8687 26.6075 20.624 26.1989 21.3716C25.4516 21.5979 24.6621 21.8168 23.7884 22.0453L24.9021 19.5716L27.3821 19.1063ZM33.6621 19.0895C34.0832 19.9316 34.4768 20.6874 34.8621 21.3895C35.5705 21.6063 36.3253 21.8211 37.1653 22.0526L36.0389 19.4632L33.6621 19.0895ZM37.2211 34.8516C36.4664 35.0493 35.7163 35.2645 34.9716 35.4968C34.5414 36.2955 34.1245 37.1012 33.7211 37.9137L36.0853 37.3874L37.2221 34.8505L37.2211 34.8516ZM32.7316 38.2758C31.9526 37.8758 31.2326 37.5221 30.54 37.2042C29.8453 37.52 29.1158 37.8695 28.3168 38.2653L30.5263 39.4579L32.7316 38.2758ZM27.3211 37.9C26.9232 37.0983 26.5122 36.3031 26.0884 35.5147C25.3089 35.2793 24.5242 35.0617 23.7347 34.8621L24.9032 37.3758L27.3221 37.9H27.3211Z" fill="#272B65"/>
</svg>
