<svg width="29" height="42" viewBox="0 0 29 42" fill="none" xmlns="http://www.w3.org/2000/svg">
<path d="M27.2536 28.6176C27.297 28.5742 27.297 28.4871 27.297 28.3999C27.9064 26.093 28.2546 23.6117 28.2546 21.0003C28.2546 18.258 27.863 15.6899 27.2099 13.2958C27.2099 13.2524 27.1665 13.1652 27.1665 13.1218C26.5137 10.8149 25.556 8.7256 24.3807 6.94088V6.89746V6.85404C24.3807 6.81063 24.3373 6.81063 24.3373 6.81063C24.3373 6.81063 24.3373 6.76721 24.2939 6.76721L24.2067 6.68007C22.9879 4.8519 21.5081 3.37203 19.854 2.37074C19.8105 2.2833 19.7668 2.23988 19.6797 2.23988C18.1127 1.28227 16.3716 0.76001 14.5869 0.76001C12.7154 0.76001 10.8869 1.32596 9.27654 2.37046C9.18939 2.41388 9.14597 2.4576 9.05883 2.50102C7.53521 3.50208 6.0991 4.9385 4.92377 6.67984L4.83694 6.76668C4.83694 6.76668 4.83694 6.8101 4.79352 6.8101L4.7501 6.85352V6.89693V6.94035C3.53132 8.76852 2.57371 10.9449 1.92095 13.3824C1.87753 13.4258 1.87753 13.5129 1.87753 13.6001C1.26816 15.9071 0.919922 18.3883 0.919922 20.9997C0.919922 23.7421 1.3116 26.3101 1.96467 28.7042C1.96467 28.7476 2.00808 28.8348 2.00808 28.8782C2.66088 31.1852 3.61853 33.2744 4.79386 35.0591C4.79386 35.1026 4.83728 35.1463 4.881 35.1897V35.2331C4.92442 35.2765 4.92442 35.3203 4.96814 35.3203C6.18692 37.1484 7.66679 38.6283 9.32092 39.6296C9.36434 39.673 9.45148 39.7167 9.53862 39.7602C11.1056 40.7178 12.8467 41.24 14.6747 41.24C16.5463 41.24 18.3748 40.6741 20.0286 39.6296C20.1157 39.5861 20.1591 39.5424 20.2463 39.499C21.7699 38.4979 23.206 37.0615 24.3813 35.3202C24.4685 35.233 24.5119 35.1462 24.5553 35.0591C25.5995 33.2315 26.5571 31.0118 27.2536 28.6177L27.2536 28.6176ZM2.87807 14.6452L5.31555 16.0816L2.18155 19.3462C2.26838 17.6924 2.52981 16.1253 2.87806 14.6452H2.87807ZM26.2089 27.3553L23.7715 25.9189L26.9055 22.6543C26.8186 24.3082 26.5572 25.8752 26.209 27.3553H26.2089ZM24.2068 32.8831L23.554 27.3116L25.9044 28.6609C25.4256 30.1845 24.8596 31.5772 24.2068 32.883L24.2068 32.8831ZM17.4166 31.7515L15.5447 29.7057L17.7646 28.3126L17.4166 31.7515ZM11.6708 10.2488L13.5423 12.2946L11.3225 13.6876L11.6708 10.2488ZM22.9009 24.9612L20.9856 21L22.9009 17.0389L26.6878 21L22.9009 24.9612ZM20.42 19.172L19.5058 15.8202L21.7693 16.3425L20.42 19.172ZM18.0259 26.6587L14.5436 28.8351L11.0613 26.6587L9.49429 21L11.0613 15.3414L14.5436 13.165L18.0259 15.3414L19.5929 21L18.0259 26.6587ZM17.4599 10.2488L17.8082 13.6873L15.5447 12.2946L17.4599 10.2488ZM14.5436 11.4675L11.9318 8.59463L14.5436 2.97971L17.1554 8.63839L14.5436 11.4675ZM8.66717 19.172L7.31788 16.3863L9.58141 15.864L8.66717 19.172ZM6.18624 17.0391L8.10154 21.0002L6.18624 24.9613L2.3994 21.0002L6.18624 17.0391ZM8.66717 22.8283L9.58141 26.18L7.31788 25.6578L8.66717 22.8283ZM11.6272 31.7515L11.2789 28.3129L13.4988 29.706L11.6272 31.7515ZM14.5436 30.5327L17.1554 33.4056L14.5436 39.0205L11.9318 33.3619L14.5436 30.5327ZM20.42 22.8282L21.7693 25.614L19.5057 26.1362L20.42 22.8282ZM26.9055 19.3025L23.728 15.9945L26.1655 14.3841C26.5572 15.9507 26.8186 17.605 26.9054 19.3025L26.9055 19.3025ZM23.5541 14.6015L24.2068 9.11712C24.8596 10.3359 25.3822 11.6417 25.8173 13.0782L23.5541 14.6015ZM22.161 15.1238L19.1575 14.4273L18.6353 9.24739L22.988 8.07206L22.161 15.1238ZM15.5884 2.15251C16.6766 2.28307 17.7211 2.63133 18.6787 3.15357L17.7645 6.76637L15.5884 2.15251ZM11.2791 6.89696L10.1909 3.28415C11.2356 2.67478 12.3673 2.28309 13.4989 2.15251L11.2791 6.89696ZM9.88602 14.4275L6.92629 15.124L6.05581 8.0289L10.452 9.20423L9.88602 14.4275ZM4.88048 9.11711L5.53328 14.6887L3.22631 13.3394C3.66171 11.8158 4.22768 10.423 4.88044 9.11718L4.88048 9.11711ZM2.18184 22.6978L5.35929 26.0058L2.92181 27.6163C2.53013 26.0496 2.26872 24.3954 2.18188 22.6978L2.18184 22.6978ZM5.53325 27.3988L4.88045 32.8832C4.22766 31.6644 3.70513 30.3586 3.27 28.9221L5.53325 27.3988ZM6.92629 26.8765L9.92978 27.573L10.452 32.7529L6.09925 33.9283L6.92629 26.8765ZM13.4989 39.8478C12.4107 39.7172 11.366 39.369 10.4083 38.8467L11.3225 35.2339L13.4989 39.8478ZM17.8082 35.1034L18.8964 38.7162C17.8517 39.2821 16.7635 39.6738 15.6318 39.8478L17.8082 35.1034ZM19.2013 27.5728L22.161 26.8763L23.0315 33.9714L18.6353 32.7961L19.2013 27.5728ZM22.7269 6.76654L18.853 7.81129L19.854 3.89394C20.8988 4.63388 21.8562 5.6349 22.7269 6.76654ZM9.10276 4.02453L10.2344 7.81137L6.40388 6.76662C7.18754 5.67843 8.10177 4.72082 9.10283 4.02461L9.10276 4.02453ZM6.36043 35.2339L10.2344 34.1892L9.23334 38.1065C8.1886 37.3666 7.23122 36.3656 6.36043 35.2339ZM19.9846 37.976L18.8964 34.2326L22.7269 35.2773C21.8998 36.3221 20.9857 37.2797 19.9846 37.976Z" fill="#272B65"/>
</svg>
