<svg width="29" height="42" viewBox="0 0 29 42" fill="none" xmlns="http://www.w3.org/2000/svg">
<path d="M26.6896 8.46446C26.733 8.50788 26.733 8.5516 26.7767 8.59502C27.5167 9.98803 28.0389 11.6418 28.3003 13.5571V13.6005C28.3875 14.3404 28.4309 15.0803 28.4309 15.864C28.4309 20.4777 26.2111 26.1363 21.7713 32.6653C18.5502 37.4968 15.242 41.0225 15.1986 41.066C15.1552 41.1094 15.1114 41.1532 15.068 41.1532H15.0246C14.9812 41.1966 14.9375 41.1966 14.894 41.1966H14.8506C14.8072 41.1966 14.7635 41.24 14.6767 41.24C14.5027 41.24 14.3284 41.1529 14.1978 41.0223C14.1544 40.9789 10.8028 37.4529 7.49487 32.6216C3.05505 26.0926 0.835259 20.4341 0.922391 15.7767C0.922391 15.0802 0.965808 14.4275 1.05295 13.7743C1.27064 12.0334 1.70573 10.4227 2.35883 8.98622V8.9428C3.18592 7.0713 4.40459 5.50434 5.97156 4.19846C8.93123 1.6739 12.5006 0.759987 14.6334 0.759987C15.6781 0.759987 17.2452 1.06482 18.9861 1.76103C19.0732 1.76103 19.1166 1.76103 19.2038 1.80445C19.2472 1.84786 19.2909 1.84786 19.3343 1.89158C20.5531 2.41381 21.8155 3.11034 22.9905 4.06793C23.1211 4.11134 23.2082 4.19848 23.2516 4.28562C24.6437 5.41724 25.7753 6.7665 26.6895 8.46404L26.6896 8.46446ZM19.3335 3.28469L18.9852 4.06833H20.7699C20.2911 3.76349 19.8123 3.5458 19.3335 3.28469H19.3335ZM8.49531 4.06833H10.4977L10.1494 3.19787C9.5835 3.45898 9.06096 3.7201 8.49535 4.06833H8.49531ZM2.74961 19.6509H3.40239L2.35766 17.0392C2.40139 17.9099 2.53194 18.7804 2.74964 19.6509H2.74961ZM25.7318 9.46565H24.3825L26.5589 11.6854C26.3412 10.9021 26.0801 10.1622 25.7318 9.46565ZM14.7195 31.142L12.456 33.3184C13.3702 35.7124 14.1969 37.7145 14.7195 38.9769C15.2417 37.7148 16.1125 35.669 16.983 33.275L14.7195 31.142ZM17.5052 31.9688C18.1146 30.3147 18.724 28.5737 19.2461 26.8328L15.6768 30.2279L17.5052 31.9688ZM13.8053 30.2279L10.1925 26.7894C10.7585 28.5303 11.3678 30.315 11.9335 31.9692L13.8053 30.2279ZM14.7195 29.3137L19.9426 24.3516C20.6391 21.7836 21.1179 19.3895 21.1179 17.5615C21.1179 13.4699 19.4204 11.0759 17.6795 9.81372C17.6361 9.7703 17.5489 9.72657 17.5055 9.68316C16.4173 8.94324 15.3292 8.63844 14.7198 8.63844C14.067 8.63844 13.0222 8.94327 11.9341 9.68316C11.8906 9.72657 11.8035 9.7703 11.7601 9.81372C10.0192 11.0758 8.32162 13.4699 8.32162 17.5615C8.32162 19.3462 8.80043 21.7402 9.45324 24.2645L14.7195 29.3137ZM24.9918 18.8672L26.9071 13.818L23.1638 10.0747L22.0756 14.1226L24.9918 18.8672ZM22.4238 17.1697V17.5613C22.4238 18.9977 22.1627 20.7387 21.7273 22.654L24.2953 20.2166L22.4238 17.1697ZM7.01532 17.1697L5.18719 20.2165L7.66837 22.6105C7.23298 20.739 6.97188 18.9978 6.97188 17.6051C7.01529 17.4308 7.01529 17.3003 7.01529 17.1697L7.01532 17.1697ZM9.71422 9.90069H7.49442L8.19092 12.1205C8.62601 11.2066 9.1482 10.5101 9.71421 9.90069H9.71422ZM7.1459 8.59481H10.8024V5.37374H7.14621L7.1459 8.59481ZM12.108 8.02886C12.5434 7.81116 12.935 7.6372 13.3701 7.50664L12.108 6.28789V8.02886ZM14.7197 7.07128L17.07 4.72098L14.7197 2.37069L12.3694 4.72098L14.7197 7.07128ZM16.069 7.55008C16.4607 7.68064 16.8961 7.85492 17.3311 8.07232V6.33139L16.069 7.55008ZM18.637 8.59481H22.1626L22.1629 5.37374H18.637L18.637 8.59481ZM19.7252 9.90069C20.2911 10.51 20.8133 11.2499 21.2488 12.1642L21.8581 9.90069H19.7252ZM26.0802 19.6507H26.6025C26.8202 18.7802 26.9507 17.9098 27.0379 17.0827L26.0802 19.6507ZM25.8191 20.9566L25.8625 22.2625C26.0365 21.8271 26.1674 21.392 26.2979 20.9566H25.8191ZM24.5132 21.827L21.1181 25.0481C20.6393 26.8328 20.03 28.7043 19.4206 30.489L24.5566 25.1352L24.5132 21.827ZM16.9832 36.9744C17.5054 36.3216 18.0713 35.6251 18.6373 34.8415L18.0279 34.2756C17.6359 35.2769 17.2877 36.1908 16.9832 36.9745L16.9832 36.9744ZM11.4117 34.2755L10.8024 34.8849C11.4117 35.7119 12.0211 36.4518 12.5433 37.1046C12.195 36.2345 11.8034 35.3203 11.4117 34.2756L11.4117 34.2755ZM8.2778 24.9607L5.05673 21.9139L5.18729 25.875L10.0622 30.6631C9.45286 28.7913 8.8001 26.8326 8.27785 24.9608L8.2778 24.9607ZM3.75085 20.9563H3.09807C3.31577 21.6528 3.53346 22.3493 3.79457 23.0455L3.75085 20.9563ZM2.79326 11.9897L4.88247 9.90053H3.48945C3.22864 10.5533 2.96754 11.2498 2.79326 11.9897ZM2.57587 14.079L4.49112 18.8671L7.4508 13.9485L6.31917 10.3791L2.57587 14.079ZM11.7165 3.54546L12.9786 2.28333C12.4564 2.37047 11.9339 2.54445 11.4117 2.71873L11.7165 3.54546ZM17.7667 3.58918L18.115 2.80585C17.549 2.58816 17.0268 2.4576 16.5046 2.32704L17.7667 3.58918ZM23.4687 8.15927H25.0356C24.5568 7.41935 24.0346 6.81001 23.4687 6.20063V8.15927ZM22.3805 29.2698L18.6806 33.1002L19.3771 33.7967C20.3784 32.4037 21.4228 30.8802 22.3805 29.2698L22.3805 29.2698ZM10.0189 33.8402L10.7588 33.1437L7.14607 29.5743C8.06029 31.0979 9.06133 32.5343 10.0189 33.8402L10.0189 33.8402ZM4.09923 8.59462H5.79677V6.24432C5.144 6.94051 4.57802 7.72416 4.09923 8.59462Z" fill="#272B65"/>
</svg>
