<svg width="40" height="40" viewBox="0 0 40 40" fill="none" xmlns="http://www.w3.org/2000/svg">
<path fill-rule="evenodd" clip-rule="evenodd" d="M20 0L40 15.291L32.3705 40H7.62947L0 15.291L20 0ZM1.34737 16.276L8.18947 38.4398L10.1632 35.546L4.54947 17.3674L1.34737 16.276ZM5.71474 17.7635L10.88 34.4925L13.1516 31.1614L9.40316 19.0203L5.71474 17.7635ZM10.3821 18.8149L14.0663 30.7453H25.9347L29.6189 18.8149L20 11.4617L10.3821 18.8149ZM20.4979 10.5873L30.2874 18.0722L34.0095 16.7996L20.4979 6.47037V10.5884V10.5873ZM19.5021 6.47037L5.98632 16.8027L9.71263 18.0711L19.5021 10.5873V6.46826V6.47037ZM19.5021 5.21675L4.85158 16.4161L1.61053 15.3131L19.5021 1.63497V5.21675ZM20.4979 5.21675L35.1432 16.4119L38.3789 15.3058L20.4979 1.63497V5.21675ZM38.6568 16.2634L35.4526 17.359L29.8495 35.5049L31.8305 38.3735L38.6568 16.2634ZM31.0537 39.0024L29.0411 36.0874H11L9.01053 39.0034H31.0526L31.0537 39.0024ZM11.6779 35.0909H28.3526L26.04 31.7408H13.9611L11.6779 35.0909ZM26.8484 31.1593L29.1295 34.4619L34.2874 17.7582L30.5968 19.0192L26.8495 31.1593H26.8484Z" fill="#272B65"/>
</svg>
