<svg width="42" height="42" viewBox="0 0 42 42" fill="none" xmlns="http://www.w3.org/2000/svg">
<path d="M0.759766 0.76001V41.24H41.2398V0.76001H0.759766ZM34.7543 12.2076L30.445 11.5111L29.7485 7.20184L39.2374 2.76233L34.7543 12.2076ZM7.24527 29.7924L11.5545 30.4889L12.251 34.7982L2.76215 39.2377L7.24527 29.7924ZM34.1884 28.5737L30.7062 29.1396L31.6638 23.1762L34.1884 28.5737ZM30.6628 21.0871L29.3136 29.3136L21.0434 30.6629L20.9997 30.6195L20.9126 30.6629L12.686 29.3136L11.3368 21.0435L11.3802 20.9564L11.3368 20.8693L12.686 12.5991L20.9126 11.2499L20.9997 11.2933L21.0869 11.2499L29.357 12.5991L30.7062 20.8257L30.6194 20.9997L30.6628 21.0871ZM7.8112 13.4262L11.2934 12.8602L10.3358 18.8236L7.8112 13.4262ZM23.1762 10.3359L28.5299 7.81136L29.0959 11.2936L23.1762 10.3359ZM20.9998 9.94425L15.8638 7.50651H26.1797L20.9998 9.94425ZM18.8235 10.3359L12.9038 11.2935L13.4698 7.81129L18.8235 10.3359ZM11.5111 11.5112L7.2019 12.2077L2.76208 2.76239L12.2074 7.20221L11.5111 11.5112ZM9.94417 21.0001L7.50643 26.1361V15.8638L9.94417 21.0001ZM10.3358 23.1764L11.2934 29.0961L7.81121 28.5301L10.3358 23.1764ZM12.8604 30.7065L18.8235 31.6641L13.4698 34.1887L12.8604 30.7065ZM20.9999 32.0558L26.1359 34.4935H15.8636L20.9999 32.0558ZM23.1763 31.6641L29.0959 30.7065L28.53 34.1887L23.1763 31.6641ZM30.4886 30.4888L34.7979 29.7923L39.2377 39.2376L29.7924 34.7547L30.4886 30.4888ZM32.0556 20.9999L34.4933 15.8639V26.1798L32.0556 20.9999ZM31.6639 18.8236L30.7063 12.9039L34.1886 13.4699L31.6639 18.8236ZM28.922 6.20078H13.0782L4.32928 2.0655H37.6709L28.922 6.20078ZM6.20094 13.0778V28.9216L2.06565 37.6705V4.3289L6.20094 13.0778ZM13.078 35.7988H28.9217L37.6706 39.9338L4.32905 39.9341L13.078 35.7988ZM35.799 28.9218V13.078L39.934 4.32913V37.6707L35.799 28.9218Z" fill="#272B65"/>
</svg>
