<svg width="31" height="42" viewBox="0 0 31 42" fill="none" xmlns="http://www.w3.org/2000/svg">
<path fill-rule="evenodd" clip-rule="evenodd" d="M1.95015 7.30268L5.31741 8.74578L9.26743 5.36045L7.3332 2.45881L1.95015 7.30268ZM5.43742 10.2058C5.34785 10.2058 5.25657 10.1883 5.17159 10.1512L0.449056 8.12714C0.237776 8.03671 0.0867789 7.84466 0.0497479 7.61731C0.0118556 7.39053 0.0922323 7.15973 0.263614 7.00586L7.00996 0.934142C7.15579 0.803244 7.34726 0.740374 7.54562 0.766205C7.73997 0.790319 7.91422 0.898258 8.02273 1.06159L10.7215 5.1095C10.9103 5.39284 10.8584 5.77349 10.5986 5.99593L5.87606 10.0433C5.75176 10.1506 5.59531 10.2057 5.43742 10.2057V10.2058Z" fill="#272B65"/>
<path fill-rule="evenodd" clip-rule="evenodd" d="M21.1723 5.3598L25.1218 8.74543L28.4896 7.30233L23.1066 2.45898L21.1723 5.3598ZM25.0023 10.206C24.8439 10.206 24.688 10.15 24.5631 10.0433L19.8406 5.99535C19.5817 5.77345 19.5288 5.39308 19.7186 5.10892L22.417 1.06101C22.5258 0.897671 22.6998 0.790598 22.8941 0.765627C23.0919 0.740078 23.284 0.802658 23.4298 0.933563L30.1764 7.00528C30.3478 7.15915 30.4279 7.38995 30.3903 7.6173C30.3524 7.84466 30.202 8.03642 29.9901 8.12742L25.2676 10.1512C25.1826 10.1877 25.0922 10.2061 25.0023 10.2061V10.206Z" fill="#272B65"/>
<path fill-rule="evenodd" clip-rule="evenodd" d="M10.5208 4.80837H19.9186L21.7176 2.10993H8.7211L10.5208 4.80837ZM20.2794 6.15784H10.1593C9.93422 6.15784 9.72293 6.04502 9.59806 5.85757L6.89933 1.80967C6.76183 1.60241 6.74834 1.33658 6.86575 1.11669C6.98316 0.897655 7.21195 0.760437 7.46084 0.760437H22.978C23.2269 0.760437 23.4557 0.897655 23.5728 1.11669C23.6902 1.33658 23.6767 1.60241 23.5392 1.80967L20.8465 5.84868C20.8284 5.87653 20.8089 5.90265 20.7874 5.92705C20.767 5.95059 20.7449 5.97212 20.7211 5.9925V5.99308C20.6031 6.09498 20.4501 6.15699 20.2819 6.15785L20.2794 6.15784Z" fill="#272B65"/>
<path fill-rule="evenodd" clip-rule="evenodd" d="M1.95014 34.6979L7.3332 39.5418L9.26742 36.6402L5.3174 33.2548L1.95014 34.6979ZM7.46151 41.2401C7.29616 41.2401 7.13483 41.1786 7.00996 41.0667L0.263614 34.9946C0.0922383 34.8408 0.0118561 34.6103 0.0497469 34.3835C0.0867787 34.1561 0.237776 33.9638 0.449056 33.8734L5.17159 31.8496C5.40784 31.7482 5.68114 31.7901 5.87605 31.9575L10.5986 36.0045C10.8584 36.2273 10.9103 36.6079 10.7215 36.8912L8.02272 40.9392C7.91421 41.1022 7.73996 41.2101 7.54562 41.2345C7.51749 41.238 7.48907 41.24 7.46151 41.24V41.2401Z" fill="#272B65"/>
<path fill-rule="evenodd" clip-rule="evenodd" d="M1.38925 8.53013V33.47L4.76253 32.024V9.97594L1.38925 8.53013ZM0.714644 35.1676C0.584893 35.1676 0.454847 35.1306 0.342894 35.0562C0.154006 34.9314 0.0400391 34.7195 0.0400391 34.493V7.50718C0.0400391 7.2804 0.154006 7.06884 0.342894 6.94396C0.531783 6.81851 0.772635 6.79755 0.980468 6.88712L5.70301 8.91122C5.95132 9.01772 6.11179 9.26144 6.11179 9.53128V32.4693C6.11179 32.7392 5.95132 32.9835 5.70301 33.0894L0.980468 35.1132C0.895501 35.1505 0.805072 35.168 0.714644 35.168V35.1676Z" fill="#272B65"/>
<path fill-rule="evenodd" clip-rule="evenodd" d="M21.1723 36.6403L23.1065 39.5415L28.4896 34.6981L25.1217 33.255L21.1723 36.6403ZM22.9785 41.2394C22.9507 41.2394 22.9225 41.2383 22.8941 41.2348C22.6998 41.2098 22.5258 41.1025 22.417 40.9391L19.7186 36.8915C19.5288 36.6073 19.5817 36.227 19.8406 36.0048L24.5631 31.9569C24.7589 31.7904 25.0333 31.7485 25.2676 31.849L29.9901 33.8731C30.202 33.9641 30.3524 34.1558 30.3903 34.3832C30.4279 34.6105 30.3478 34.841 30.1764 34.9949L23.4298 41.0669C23.3049 41.1789 23.1439 41.2395 22.9785 41.2395V41.2394Z" fill="#272B65"/>
<path fill-rule="evenodd" clip-rule="evenodd" d="M20.2795 39.8903H21.7179L19.9186 37.1915H10.5209L8.72159 39.8903H20.2795ZM22.9782 41.2394H7.46104C7.21216 41.2394 6.98336 41.1025 6.86624 40.8832C6.74882 40.6633 6.76232 40.3975 6.89982 40.1905L9.59855 36.1426C9.724 35.9548 9.93442 35.8423 10.1598 35.8423H20.2821C20.4501 35.8429 20.6033 35.9052 20.7213 36.0068V36.0077C20.7449 36.0278 20.7673 36.0493 20.7874 36.0731C20.8089 36.0972 20.8284 36.1236 20.8468 36.1512L23.5392 40.1905C23.677 40.3975 23.6905 40.6633 23.5731 40.8832C23.4556 41.1025 23.2269 41.2395 22.978 41.2395L22.9782 41.2394Z" fill="#272B65"/>
<path fill-rule="evenodd" clip-rule="evenodd" d="M25.6772 32.0249L29.0504 33.4705V8.53064L25.6772 9.97573V32.0249ZM29.7251 35.168C29.6346 35.168 29.5442 35.1499 29.4592 35.1134L24.7367 33.0893C24.4884 32.9834 24.3276 32.7394 24.3276 32.4696V9.5315C24.3276 9.26166 24.4884 9.01737 24.7367 8.91144L29.4592 6.88763C29.6671 6.79864 29.9071 6.81931 30.0968 6.94418C30.2857 7.06906 30.3997 7.28091 30.3997 7.5077V34.4935C30.3997 34.7203 30.2857 34.9322 30.0968 35.057C29.9849 35.1311 29.8545 35.1681 29.7251 35.1681V35.168Z" fill="#272B65"/>
<path fill-rule="evenodd" clip-rule="evenodd" d="M6.11239 13.4694V28.5302L8.76975 20.9998L6.11239 13.4694ZM5.43836 33.1431C5.39989 33.1431 5.36229 33.1405 5.32382 33.1336C5.00002 33.0776 4.76318 32.7969 4.76318 32.4685V9.53042C4.76318 9.20201 5.00002 8.92126 5.32382 8.86528C5.64476 8.81275 5.96398 8.99618 6.07392 9.30593L10.1218 20.7746C10.1732 20.9199 10.1732 21.0789 10.1218 21.2241L6.07392 32.6928C5.97747 32.9661 5.71968 33.1429 5.43836 33.1429V33.1431Z" fill="#272B65"/>
<path fill-rule="evenodd" clip-rule="evenodd" d="M21.6702 20.9999L24.3279 28.5303V13.4695L21.6702 20.9999ZM25.0016 33.144C24.7203 33.144 24.4634 32.9674 24.3661 32.6941L20.3182 21.2247C20.2676 21.0798 20.2676 20.9205 20.3182 20.7755L24.3661 9.30608C24.4763 8.99634 24.7973 8.81233 25.1165 8.86544C25.4409 8.92142 25.6771 9.20216 25.6771 9.53086V32.4689C25.6771 32.7976 25.4409 33.0781 25.1165 33.134C25.0786 33.1409 25.0401 33.1435 25.0017 33.1435L25.0016 33.144Z" fill="#272B65"/>
<path fill-rule="evenodd" clip-rule="evenodd" d="M20.8226 6.83668L20.398 11.079L23.7917 9.38211L20.8226 6.83668ZM19.6049 12.9044C19.4705 12.9044 19.3371 12.8639 19.2222 12.7849C19.0199 12.6454 18.9093 12.4072 18.9334 12.1623L19.6081 5.41565C19.633 5.16562 19.7958 4.95032 20.0283 4.85644C20.2606 4.76401 20.5278 4.80735 20.7187 4.97041L25.4412 9.01832C25.6132 9.16616 25.6996 9.38892 25.6712 9.61341C25.6436 9.83732 25.5058 10.0331 25.3043 10.1344L19.9069 12.8329C19.8113 12.8808 19.708 12.9043 19.6049 12.9043L19.6049 12.9044Z" fill="#272B65"/>
<path fill-rule="evenodd" clip-rule="evenodd" d="M6.64789 9.3821L10.0413 11.079L9.61703 6.83667L6.64789 9.3821ZM10.8348 12.9044C10.7323 12.9044 10.6284 12.8809 10.5333 12.8329L5.13596 10.1342C4.93358 10.0332 4.79608 9.83738 4.76823 9.61348C4.74067 9.3887 4.82708 9.16623 4.99903 9.01839L9.72156 4.97048C9.91189 4.80713 10.1792 4.76408 10.4111 4.85651C10.6445 4.95038 10.8064 5.16539 10.8314 5.41572L11.5063 12.1624C11.5304 12.4072 11.4198 12.6455 11.2175 12.785C11.1035 12.8639 10.9692 12.9044 10.8348 12.9044L10.8348 12.9044Z" fill="#272B65"/>
<path fill-rule="evenodd" clip-rule="evenodd" d="M11.5391 6.15766L14.917 10.5004L18.7774 6.15766H11.5391ZM14.8819 12.2294H14.8595C14.6592 12.2228 14.4723 12.1275 14.3497 11.969L9.62687 5.89729C9.46927 5.69405 9.43999 5.41818 9.55338 5.1868C9.66678 4.95543 9.90159 4.80817 10.1594 4.80817H20.2788C20.5446 4.80817 20.7855 4.96404 20.8943 5.20633C21.0028 5.44919 20.9597 5.73252 20.7829 5.93146L15.3855 12.0035C15.258 12.147 15.074 12.2294 14.8817 12.2294L14.8819 12.2294Z" fill="#272B65"/>
<path fill-rule="evenodd" clip-rule="evenodd" d="M11.0636 7.74464L11.4339 11.4458L13.6549 11.0752L11.0636 7.74464ZM10.8342 12.9044C10.6872 12.9044 10.5434 12.8564 10.4246 12.7651C10.2762 12.652 10.1811 12.4818 10.1631 12.2969L9.48816 5.55059C9.4586 5.25089 9.62998 4.96842 9.90929 4.85646C10.1852 4.74508 10.5075 4.83063 10.6918 5.06889L15.4143 11.1406C15.5607 11.3283 15.5972 11.5792 15.5108 11.8006C15.4244 12.0219 15.2275 12.1818 14.9926 12.2203L10.9447 12.8949C10.9083 12.9015 10.8712 12.9043 10.8342 12.9043L10.8342 12.9044Z" fill="#272B65"/>
<path fill-rule="evenodd" clip-rule="evenodd" d="M16.2217 11.0645L19.0039 11.4618L19.4018 7.48593L16.2217 11.0645ZM19.6056 12.9043C19.574 12.9043 19.5416 12.9015 19.51 12.8969L14.7872 12.2223C14.5418 12.1878 14.3345 12.0204 14.249 11.7862C14.164 11.5537 14.2131 11.2919 14.3793 11.1061L19.7764 5.03442C19.9699 4.81511 20.2845 4.74707 20.5509 4.86506C20.8187 4.98247 20.9806 5.25891 20.9516 5.54971L20.277 12.2963C20.2581 12.4792 20.1662 12.6471 20.0218 12.7605C19.9018 12.8535 19.7554 12.9043 19.6056 12.9043L19.6056 12.9043Z" fill="#272B65"/>
<path fill-rule="evenodd" clip-rule="evenodd" d="M6.6296 10.8804L9.22758 18.2411L10.0931 12.6123L6.6296 10.8804ZM9.48479 21.6745C9.20202 21.6745 8.94568 21.4956 8.84923 21.2243L4.80131 9.75494C4.70945 9.49544 4.78495 9.20665 4.99078 9.02436C5.19804 8.84236 5.49401 8.80389 5.7397 8.92647L11.1368 11.6252C11.3986 11.7561 11.5464 12.0414 11.5019 12.3308L10.1525 21.101C10.1054 21.4073 9.85622 21.6421 9.5479 21.6705C9.52724 21.6725 9.50628 21.6739 9.48475 21.6739L9.48479 21.6745Z" fill="#272B65"/>
<path fill-rule="evenodd" clip-rule="evenodd" d="M20.3469 12.6124L21.2124 18.2409L23.8104 10.8803L20.3469 12.6124ZM20.9547 21.6743C20.9337 21.6743 20.9127 21.6731 20.8918 21.6711C20.5835 21.6427 20.334 21.4079 20.2875 21.1016L18.938 12.3314C18.8935 12.0421 19.0408 11.7567 19.3032 11.6258L24.7003 8.9271C24.9446 8.80424 25.2414 8.84271 25.4484 9.02499C25.6551 9.20699 25.7297 9.49577 25.6387 9.75557L21.5908 21.225C21.4944 21.4962 21.238 21.6748 20.9547 21.6748L20.9547 21.6743Z" fill="#272B65"/>
<path fill-rule="evenodd" clip-rule="evenodd" d="M20.3988 30.9214L20.8231 35.1637L23.7922 32.6182L20.3988 30.9214ZM20.28 37.1917C20.195 37.1917 20.11 37.1759 20.0291 37.1429C19.7957 37.0493 19.6338 36.834 19.6088 36.5843L18.9339 29.8379C18.9098 29.5931 19.0203 29.3542 19.2227 29.2153C19.4245 29.0755 19.6869 29.0565 19.9068 29.1665L25.3042 31.8652C25.5066 31.9663 25.6441 32.1621 25.6719 32.3868C25.6995 32.6107 25.6131 32.8341 25.4417 32.981L20.7192 37.029C20.5951 37.1355 20.4384 37.1917 20.2799 37.1917H20.28Z" fill="#272B65"/>
<path fill-rule="evenodd" clip-rule="evenodd" d="M6.64796 32.6179L9.61705 35.1633L10.0413 30.921L6.64796 32.6179ZM10.1602 37.1914C10.0023 37.1914 9.84501 37.136 9.72157 37.0295L4.99903 32.9816C4.82708 32.8337 4.74067 32.611 4.76823 32.3865C4.79608 32.1623 4.93358 31.9668 5.13596 31.8655L10.5333 29.167C10.7538 29.0562 11.015 29.0757 11.2174 29.215C11.4198 29.3545 11.5303 29.5927 11.5062 29.8376L10.8313 36.5839C10.8063 36.8343 10.6444 37.0496 10.4111 37.1434C10.3301 37.1759 10.2451 37.1914 10.1602 37.1914L10.1602 37.1914Z" fill="#272B65"/>
<path fill-rule="evenodd" clip-rule="evenodd" d="M11.5393 35.8423H18.7776L14.9172 31.4995L11.5393 35.8423ZM20.2793 37.1915H10.1599C9.90208 37.1915 9.66726 37.0445 9.55387 36.8131C9.44048 36.5817 9.46976 36.3059 9.62736 36.1026L14.3502 30.0309C14.4728 29.8722 14.6596 29.7771 14.86 29.7702C15.0773 29.7616 15.2542 29.8472 15.3862 29.9965L20.7836 36.0682C20.9604 36.2674 21.0035 36.5507 20.895 36.7936C20.7862 37.0356 20.5453 37.1915 20.2795 37.1915H20.2793Z" fill="#272B65"/>
<path fill-rule="evenodd" clip-rule="evenodd" d="M11.434 30.5547L11.0637 34.2558L13.6547 30.9241L11.434 30.5547ZM10.1594 37.1919C10.0753 37.1919 9.99001 37.1755 9.90906 37.1439C9.62975 37.032 9.45837 36.7492 9.48822 36.4495L10.1628 29.7032C10.1818 29.5174 10.2762 29.3475 10.4246 29.2341C10.573 29.1216 10.7614 29.0742 10.9448 29.1052L14.9927 29.7801C15.2275 29.8186 15.4244 29.9785 15.5109 30.1995C15.5973 30.4208 15.5608 30.672 15.4144 30.8595L10.6919 36.9312C10.5615 37.0994 10.3632 37.1919 10.1594 37.1919L10.1594 37.1919Z" fill="#272B65"/>
<path fill-rule="evenodd" clip-rule="evenodd" d="M16.2216 30.9353L19.4017 34.5139L19.0038 30.538L16.2216 30.9353ZM20.2802 37.1913C20.0913 37.1913 19.9064 37.1124 19.7764 36.9654L14.3793 30.8937C14.2131 30.708 14.164 30.4462 14.249 30.2137C14.3345 29.9794 14.5418 29.8121 14.7872 29.7776L19.51 29.103C19.692 29.0775 19.8769 29.126 20.0219 29.2394C20.1663 29.3528 20.2581 29.5207 20.2771 29.7035L20.9517 36.4502C20.9807 36.7407 20.8188 37.0174 20.5509 37.1348C20.464 37.1733 20.3715 37.1914 20.2802 37.1914L20.2802 37.1913Z" fill="#272B65"/>
<path fill-rule="evenodd" clip-rule="evenodd" d="M9.22666 23.758L6.62869 31.1187L10.0921 29.3868L9.22666 23.758ZM5.43714 33.1433C5.27667 33.1433 5.11677 33.0859 4.99075 32.9748C4.78407 32.7925 4.70943 32.5037 4.80043 32.2439L8.84834 20.7745C8.95226 20.4832 9.2422 20.2963 9.54792 20.3281C9.85623 20.3563 10.1051 20.5911 10.1516 20.8968L11.5011 29.667C11.5462 29.9563 11.3983 30.2417 11.1359 30.3734L5.73885 33.0719C5.64297 33.1192 5.53991 33.1428 5.43714 33.1428V33.1433Z" fill="#272B65"/>
<path fill-rule="evenodd" clip-rule="evenodd" d="M20.3474 29.3867L23.8109 31.1185L21.2129 23.7579L20.3474 29.3867ZM25.0025 33.1432C24.8997 33.1432 24.7967 33.1203 24.7008 33.0723L19.3037 30.3736C19.0413 30.2427 18.894 29.9573 18.9385 29.668L20.288 20.8978C20.3345 20.5915 20.584 20.3567 20.8923 20.3283C21.196 20.2979 21.4874 20.4836 21.5913 20.775L25.6392 32.2444C25.7302 32.5042 25.6556 32.7926 25.4489 32.9749C25.3229 33.0863 25.1635 33.1437 25.0025 33.1437L25.0025 33.1432Z" fill="#272B65"/>
</svg>
