<svg width="40" height="40" viewBox="0 0 40 40" fill="none" xmlns="http://www.w3.org/2000/svg">
<path fill-rule="evenodd" clip-rule="evenodd" d="M20.2105 0L29.9695 2.91789L37.4926 10.1368L40.0021 20.2789L37.4937 29.7253L29.9716 37.7758L20.2074 40L10.3095 37.7768L2.65158 29.7295L0 20.2737L2.92632 10.1389L9.89474 3.05789L9.93369 2.90632L10.0232 2.92737L10.0316 2.91789L20.2105 0ZM9.38526 4.9979L4.27368 10.1926L7.51579 12.0589L7.54105 12.0453L9.38632 4.9979H9.38526ZM7.04316 12.94L3.70947 11.0221L1.54421 18.5211L7.04316 12.94ZM1.49474 21.9021L3.48 28.9842L6.85474 27.0421L1.49474 21.9021ZM7.40632 27.8779L4.08632 29.7874L9.79895 35.7916L7.40632 27.8779ZM12.1747 37.1726L19.7074 38.8632V35.1337L12.1737 37.1716L12.1747 37.1726ZM20.7063 35.1368V38.8621L28.1242 37.1726L20.7063 35.1368ZM30.5084 35.7368L36.1579 29.6905L32.9674 27.8547L30.5084 35.7368ZM33.5411 27.0316L36.6926 28.8453L38.6126 21.6211L33.5411 26.8842V27.0316ZM33.5411 25.4442L38.5368 20.2589L33.5411 14.5537V25.4442ZM33.5411 13.0379L38.6147 18.8316L36.6853 11.0316L33.5411 12.8411V13.0379ZM33.0326 11.9811L36.12 10.2042L30.5621 4.87053L32.9179 11.9147L33.0326 11.9811ZM31.6126 11.1642L29.2453 4.08632L22.1579 5.72421L31.6126 11.1642ZM20.8863 4.99263L27.9558 3.35895L20.7063 1.19053V4.88947L20.8853 4.99263H20.8863ZM19.7074 5.04211L12.0684 3.37368L19.7074 1.18421V5.04211ZM18.4232 5.78421L8.75789 11.3453L10.6579 4.08737L18.4242 5.78421H18.4232ZM19.7074 6.1979L8.51789 12.6358L19.7074 19.0726V6.2V6.1979ZM20.7063 6.05895L20.7274 6.05474L32.0305 12.5568L20.7063 19.0726V6.05895ZM19.7063 20.8L8.63684 27.1695L19.7084 33.54V20.8H19.7063ZM19.0053 34.2884L8.57368 28.2863L11.04 36.4442L19.0053 34.2884ZM8.14211 26.3011L19.2053 19.9368L8.14211 13.5716V26.3011ZM7.14526 14.2632V25.9347L1.23158 20.2642L7.14526 14.2632ZM21.5874 34.3421L29.2432 36.4432L31.7158 28.5147L21.5874 34.3421ZM32.5432 26.4579L21.2084 19.9368L32.5421 13.4158V26.4579H32.5432ZM31.9137 27.2474L20.7063 20.8V33.6958L31.9126 27.2484L31.9137 27.2474Z" fill="#272B65"/>
</svg>
