<svg width="35" height="35" viewBox="0 0 35 35" fill="none" xmlns="http://www.w3.org/2000/svg">
<g clip-path="url(#clip0_214_76)">
<path d="M33.9705 17.5138V17.5V17.4862C33.967 15.2612 33.5206 13.1401 32.7179 11.2025C32.7144 11.1921 32.7144 11.1782 32.711 11.1678C32.7075 11.1609 32.7006 11.154 32.6971 11.1471C31.8667 9.17128 30.6626 7.38928 29.1747 5.89101C29.1574 5.86333 29.1366 5.84257 29.1089 5.82526C27.6107 4.33738 25.832 3.13323 23.8563 2.30624C23.8494 2.30277 23.8459 2.29585 23.839 2.29239C23.8286 2.28894 23.8182 2.28894 23.8044 2.28548C21.8598 1.47578 19.7318 1.02942 17.4999 1.02942C15.268 1.02942 13.14 1.47578 11.1989 2.28548C11.1885 2.28894 11.1747 2.28894 11.1643 2.29239C11.1574 2.29585 11.1539 2.30277 11.147 2.30624C9.17116 3.13669 7.39262 4.33738 5.89435 5.82526C5.86667 5.84257 5.8459 5.86333 5.82861 5.89101C4.34072 7.38928 3.13656 9.16782 2.30612 11.1471C2.30265 11.154 2.29573 11.1575 2.29227 11.1678C2.28535 11.1782 2.28881 11.1921 2.28535 11.2025C1.47912 13.1401 1.03276 15.2612 1.0293 17.4862V17.5V17.5138C1.03276 19.7388 1.47912 21.8599 2.28535 23.7975C2.28881 23.8079 2.28881 23.8218 2.29227 23.8322C2.29573 23.8391 2.30265 23.846 2.30612 23.8529C3.13656 25.8288 4.34072 27.6108 5.82861 29.109C5.8459 29.1367 5.86667 29.1575 5.89435 29.1748C7.39262 30.6627 9.17116 31.8668 11.147 32.6938C11.1539 32.6972 11.1574 32.7041 11.1643 32.7076C11.1747 32.7111 11.185 32.7111 11.1954 32.7145C13.14 33.5207 15.268 33.9706 17.4999 33.9706C19.7318 33.9706 21.8598 33.5207 23.8009 32.7145C23.8113 32.7111 23.8217 32.7111 23.8321 32.7076C23.839 32.7041 23.8424 32.6972 23.8494 32.6938C25.8252 31.8633 27.6037 30.6627 29.102 29.1748C29.1297 29.1575 29.1504 29.1367 29.1678 29.109C30.6556 27.6108 31.8598 25.8322 32.6902 23.8564C32.6937 23.8495 32.7006 23.8425 32.7041 23.8356C32.711 23.8252 32.7075 23.8114 32.711 23.801C33.5206 21.8599 33.967 19.7388 33.9705 17.5138ZM32.3995 23.4723L28.9566 21.9429L33.5449 17.9672C33.4895 19.9048 33.0882 21.7595 32.3995 23.4723ZM23.8563 32.2405L22.3269 28.8011L28.5034 29.1782C27.1504 30.4516 25.5829 31.4931 23.8563 32.2405ZM6.49643 29.1782L12.6729 28.8011L11.1435 32.2405C9.41684 31.4931 7.84937 30.4516 6.49643 29.1782ZM1.45491 17.9637L6.04314 21.9394L2.60023 23.4688C1.91165 21.7595 1.51027 19.9048 1.45491 17.9637ZM2.60023 11.5277L6.04314 13.0571L1.45491 17.0364C1.51027 15.0952 1.91165 13.2405 2.60023 11.5277ZM11.1435 2.75952L12.6729 6.19897L6.49643 5.8218C7.84937 4.54845 9.41684 3.50692 11.1435 2.75952ZM28.5034 5.8218L22.3269 6.19897L23.8563 2.75952C25.5829 3.50692 27.1504 4.54845 28.5034 5.8218ZM33.5449 17.0364L28.9566 13.0571L32.3995 11.5277C33.0882 13.2405 33.4895 15.0952 33.5449 17.0364ZM28.3788 12.763L23.0051 11.9913L22.2334 6.61765L28.7767 6.21973L28.3788 12.763ZM22.666 22.6661L17.4999 24.8876L12.3338 22.6661L10.1123 17.5L12.3338 12.3339L17.4999 10.1125L22.666 12.3339L24.8875 17.5L22.666 22.6661ZM9.83552 17.0917L6.80785 13.1574L11.8389 12.4343L9.83552 17.0917ZM9.83552 17.9083L11.8389 22.5657L6.80785 21.8426L9.83552 17.9083ZM25.1643 17.9083L28.192 21.8461L23.1608 22.5692L25.1643 17.9083ZM25.1643 17.0917L23.1608 12.4343L28.192 13.1574L25.1643 17.0917ZM21.8425 6.80797L22.5656 11.8391L17.9082 9.83565L21.8425 6.80797ZM17.4999 9.62457L13.3027 6.39621L17.4999 1.55537L21.6971 6.39966L17.4999 9.62457ZM17.0916 9.83565L12.4342 11.8391L13.1573 6.80797L17.0916 9.83565ZM11.9947 11.9948L6.62099 12.7665L6.22307 6.22319L12.7663 6.62111L11.9947 11.9948ZM6.39608 13.3028L9.62445 17.5L6.39608 21.6972L1.55524 17.5L6.39608 13.3028ZM6.62099 22.2371L11.9947 23.0087L12.7663 28.3823L6.22307 28.7803L6.62099 22.2371ZM13.1573 28.1921L12.4342 23.1609L17.0916 25.1644L13.1573 28.1921ZM17.4999 25.3754L21.6971 28.6039L17.4999 33.4447L13.3027 28.6004L17.4999 25.3754ZM17.9082 25.1644L22.5656 23.1609L21.8425 28.1921L17.9082 25.1644ZM23.0051 23.0052L28.3788 22.2336L28.7767 28.7768L22.2334 28.3789L23.0051 23.0052ZM28.6037 21.6972L25.3753 17.5L28.6037 13.3028L33.4479 17.5L28.6037 21.6972ZM28.801 12.673L29.178 6.49655C30.4514 7.84603 31.4964 9.41696 32.2438 11.1436L28.801 12.673ZM21.9393 6.04326L17.9635 1.45503C19.9047 1.51039 21.7594 1.91177 23.4687 2.60035L21.9393 6.04326ZM13.0604 6.04326L11.531 2.60035C13.2404 1.91177 15.0951 1.51039 17.0362 1.45503L13.0604 6.04326ZM6.19885 12.673L2.7594 11.1436C3.5068 9.41696 4.55179 7.84603 5.82514 6.49655L6.19885 12.673ZM6.19885 22.327L5.82168 28.5035C4.54833 27.154 3.50334 25.5831 2.75594 23.8564L6.19885 22.327ZM13.0604 28.9567L17.0362 33.545C15.0951 33.4897 13.2404 33.0883 11.531 32.3996L13.0604 28.9567ZM21.9393 28.9567L23.4687 32.3996C21.7594 33.0883 19.9047 33.4897 17.9635 33.545L21.9393 28.9567ZM28.801 22.327L32.2403 23.8564C31.493 25.5831 30.448 27.154 29.1747 28.5035L28.801 22.327Z" fill="#804294" stroke="#804294" stroke-width="0.376471"/>
</g>
<defs>
<clipPath id="clip0_214_76">
<rect width="35" height="35" fill="white"/>
</clipPath>
</defs>
</svg>
