<svg width="40" height="40" viewBox="0 0 40 40" fill="none" xmlns="http://www.w3.org/2000/svg">
<path fill-rule="evenodd" clip-rule="evenodd" d="M19.8 0L40 5.36632L34.6274 25.5158L19.7979 40L5.16211 25.5126L0 5.36737L19.8 0ZM20.3179 1.17053V4.59474L34.1926 8.28L38.1968 5.92L20.3179 1.17053ZM38.5705 6.85895L33.8337 24.6242L31.1758 23.0853L34.9305 9.00421L38.5695 6.85895H38.5705ZM32.9842 8.99263L20.3179 5.62737V8.74316L29.3411 11.14L32.9842 8.99263ZM29.8663 11.9895L33.7063 9.72632L30.2821 22.5684L27.4789 20.9442L29.8663 11.9895ZM28.8211 12.0347L19.9032 9.66632L11.1684 12.0347L13.4463 20.9274L19.9042 27.3189L26.4516 20.9232L28.8211 12.0358V12.0347ZM26.9758 21.8063L20.3179 28.3095V32.7411L29.8242 23.4568L26.9758 21.8063ZM30.7211 23.9747L20.3179 34.1358V38.0979L33.2674 25.4505L30.72 23.9758L30.7211 23.9747ZM19.3211 38.1221V34.0737L9.01684 23.8737L6.40632 25.34L19.32 38.1232L19.3211 38.1221ZM5.92316 24.4663L8.63579 22.9453L5.07789 9.06211L1.42105 6.88947L5.92421 24.4653L5.92316 24.4663ZM1.75368 5.92632L5.74211 8.29474L19.3211 4.61368V1.16421L1.75263 5.92632H1.75368ZM19.3211 5.64737L6.93684 9.00526L10.5695 11.1611L19.32 8.78947V5.64737H19.3211ZM10.1474 12.0716L6.29263 9.78211L9.53474 22.4389L12.3937 20.8358L10.1484 12.0716H10.1474ZM12.8379 21.7295L9.9221 23.3663L19.32 32.6684V28.1453L12.8379 21.7295Z" fill="#272B65"/>
</svg>
