<svg width="42" height="42" viewBox="0 0 42 42" fill="none" xmlns="http://www.w3.org/2000/svg">
<path d="M41.0654 5.99455L35.0456 0.89085C35.0021 0.847338 34.9148 0.803521 34.8712 0.803521H34.8277C34.7404 0.76001 34.6969 0.76001 34.6096 0.76001H7.34621C7.25888 0.76001 7.21537 0.76001 7.12804 0.803521H7.08453C7.04102 0.847033 6.95369 0.847033 6.91017 0.89085L0.933814 6.03833L0.846789 6.12535C0.846789 6.16886 0.803277 6.16886 0.803277 6.21268V6.25619C0.803277 6.2997 0.759766 6.2997 0.759766 6.34352V6.38703V6.51787V35.4825V35.6133V35.6568C0.759766 35.7003 0.759766 35.7441 0.803277 35.7441V35.7877C0.803277 35.8312 0.846789 35.8312 0.846789 35.875C0.846789 35.875 0.846789 35.9185 0.890301 35.9185L0.933812 35.962L6.90986 41.1092C6.95337 41.1527 7.0407 41.1965 7.08421 41.1965H7.12773C7.21505 41.24 7.25857 41.24 7.34589 41.24H34.6092C34.6966 41.24 34.7401 41.24 34.8274 41.1965H34.8709C34.9144 41.153 35.0018 41.153 35.0453 41.1092L41.0657 36.0061C41.1966 35.8753 41.2839 35.7006 41.2839 35.5262L41.2836 6.51803C41.2836 6.30017 41.1963 6.12539 41.0654 5.99455ZM29.244 11.2729C27.4119 11.2729 25.5799 11.0112 23.6605 10.4005C25.798 9.83337 27.9353 8.69931 30.0728 6.95461C29.6365 8.52467 29.3749 9.96417 29.244 11.2729ZM12.3189 11.2729C12.2754 9.96417 12.0573 8.56844 11.7083 7.04162C13.802 8.83017 15.9395 9.96425 18.1206 10.4441C16.1142 11.0983 14.1948 11.3599 12.3189 11.2729ZM9.48371 18.9502C9.22203 16.2893 8.34963 13.7592 6.95367 11.5346C8.30585 12.0145 9.65812 12.3635 11.0542 12.4943C11.0106 15.1987 10.3561 17.3363 9.48371 18.9502ZM9.4402 22.9633C10.3564 24.621 11.0979 26.7583 11.1849 29.5065C9.65799 29.6809 8.13148 30.0299 6.64843 30.5971C8.17502 28.2417 9.09115 25.6242 9.4402 22.9633ZM18.3826 31.6004C16.2451 32.1675 14.1078 33.3016 11.9267 35.0463C12.2757 33.4759 12.4501 32.0364 12.4939 30.7277C14.4133 30.641 16.3762 30.9462 18.3826 31.6004ZM21 31.1643C18.0774 29.9429 15.2418 29.3758 12.5375 29.4196C12.4066 25.6682 11.1414 22.92 9.78925 21.0007C11.1414 19.1252 12.3193 16.3769 12.4067 12.5818H12.9739C15.5913 12.5818 18.2957 12.0146 21.0438 10.8371C23.792 12.0149 26.4965 12.5818 29.1138 12.5818H29.1573C28.9391 16.0274 29.5933 18.8192 31.1202 20.9999C29.6371 23.1375 29.0264 25.9292 29.2881 29.4189C26.6268 29.3754 23.8351 29.943 21 31.1643ZM29.4189 30.728C29.5933 32.0367 29.8553 33.4324 30.2478 34.9593C28.1541 33.2146 26.0166 32.0366 23.8355 31.5568C25.7549 30.9461 27.6307 30.6845 29.4189 30.728ZM31.4257 23.0943C31.8182 25.537 32.9087 27.9362 34.6537 30.3355C33.345 29.8991 31.9928 29.594 30.5971 29.4631C30.3786 26.9331 30.6841 24.8393 31.4257 23.0943ZM31.4257 18.9503C30.5968 17.2056 30.2478 15.0245 30.4225 12.538C31.862 12.4071 33.3016 12.1016 34.6973 11.6218C32.9087 14.021 31.8182 16.464 31.4257 18.9503ZM30.5533 11.2292C30.7277 9.70234 31.0767 8.00119 31.6003 6.21294L35.7881 9.79005C34.0866 10.5751 32.3419 11.0548 30.5533 11.2292ZM20.5204 9.48455C17.7286 9.44104 14.9369 8.13236 12.1451 5.68957H29.55C26.4528 8.26315 23.4429 9.57187 20.5204 9.48455ZM11.011 11.1858C9.35327 10.9676 7.7829 10.5316 6.21245 9.78974L10.1821 6.21263C10.6619 8.04496 10.9236 9.70273 11.011 11.1858ZM5.68915 11.9708C7.25952 14.4574 8.17572 17.2492 8.26273 20.2152C8.39357 23.5304 7.4777 26.7585 5.68915 29.6375V11.9708ZM11.1854 30.8152C11.1419 32.2983 10.8799 33.956 10.3565 35.7881L6.21253 32.211C7.87022 31.4694 9.52767 30.9896 11.1854 30.8152ZM21.48 32.5165C24.2718 32.56 27.0635 33.8687 29.8553 36.3115H12.4504C15.5477 33.7379 18.5575 32.473 21.48 32.5165ZM30.7277 30.8152C32.429 30.9896 34.1302 31.4694 35.7879 32.2113L31.8621 35.7884C31.3385 33.9561 30.9458 32.2983 30.7277 30.8152ZM36.3113 30.3354C33.8685 27.282 32.6033 24.1847 32.6033 21.0877C32.6033 17.9469 33.8682 14.8061 36.3113 11.7091V30.3354ZM36.922 9.04816L32.2543 5.035C33.0832 4.20611 33.912 3.2903 34.7409 2.33055L39.6264 6.51836C38.6232 7.34693 37.7073 8.17574 36.922 9.04816ZM30.9895 4.38083H10.7928C10.0947 3.68282 9.39672 2.89778 8.69901 2.02543L33.2142 2.02513C32.4727 2.89779 31.7312 3.68281 30.9895 4.38083ZM7.25943 2.33063C8.00095 3.33384 8.78633 4.20619 9.57136 5.03507L5.1219 9.04824C4.33687 8.13204 3.42067 7.30354 2.41745 6.5182L7.25943 2.33063ZM2.02463 7.82684C2.89698 8.52485 3.68232 9.30989 4.38003 10.1822V31.5131C3.68201 32.3854 2.89698 33.2578 2.02463 34.0431V7.82684ZM4.99104 32.8655L9.78954 37.0095C8.96066 37.8383 8.13185 38.7542 7.30297 39.7139L2.37368 35.4829C3.33335 34.6541 4.2057 33.7814 4.99104 32.8655ZM11.0109 37.6202H31.2076C31.9056 38.3182 32.6036 39.1032 33.3013 39.9756L8.78609 39.9759C9.52762 39.1032 10.2691 38.3182 11.0109 37.6202ZM34.7409 39.6704C33.9994 38.7107 33.214 37.7948 32.4725 36.9659L36.922 32.9528C37.7508 33.7816 38.6667 34.654 39.6264 35.4828L34.7409 39.6704ZM37.62 31.8185V10.2259C38.318 9.44091 39.103 8.69904 39.9754 7.91401V34.0868C39.103 33.3453 38.318 32.6039 37.62 31.8185Z" fill="#272B65"/>
</svg>
