<svg width="40" height="40" viewBox="0 0 40 40" fill="none" xmlns="http://www.w3.org/2000/svg">
<path fill-rule="evenodd" clip-rule="evenodd" d="M0 0H40V40H0V0ZM1.70667 1L6.12333 5.41667H33.8778L38.2933 1H1.70667ZM39 1.70667L34.5833 6.12333V33.8778L39 38.2944V1.70667ZM38.2933 39L33.8767 34.5833H6.12222L1.70667 39H38.2933ZM1 38.2933V1.70667L5.41667 6.12333V33.8778L1 38.2933ZM7.12333 33.5833H32.8778L27.3778 28.0833H12.6222L7.12222 33.5833H7.12333ZM12.9167 27.0833H27.0833V12.9167H12.9167V27.0833ZM12.6233 11.9167H27.3778L32.8778 6.41667H7.12222L12.6222 11.9167H12.6233ZM6.41667 7.12333V32.8778L11.9167 27.3778V12.6222L6.41667 7.12222V7.12333ZM33.5833 7.12333L28.0833 12.6233V27.3778L33.5833 32.8778V7.12222V7.12333Z" fill="#272B65"/>
</svg>
