<svg width="40" height="40" viewBox="0 0 40 40" fill="none" xmlns="http://www.w3.org/2000/svg">
<path fill-rule="evenodd" clip-rule="evenodd" d="M19.3358 0L30.2084 2.35585L30.2695 2.42645L30.3242 2.39905L30.3284 2.49282L37.1989 10.2947L39.9684 19.7803L39.9558 19.8204L40 19.8499L39.9337 19.892L36.8768 29.7916L30.2137 37.3217L19.6495 40L8.81789 36.7812L8.8 36.7602H8.79579V36.7549L2.48421 29.2048L0 20.2797L2.06316 10.3042L9.31158 2.44225L9.31579 2.40643L9.33474 2.41696L9.38947 2.35796L19.3358 0ZM9.07789 4.17016L3.32526 10.4096C4.95158 11.2103 6.48632 11.9057 7.95158 12.501L9.07789 4.17016ZM7.81368 13.523C6.14071 12.8455 4.49392 12.105 2.87684 11.303L1.24 19.2156L7.79579 13.6505L7.81368 13.523ZM8.67053 14.2184L1.67053 20.1596L8.71789 25.1505C10.3368 23.8019 12.1674 22.0687 13.8526 19.8183C12.363 17.7446 10.6223 15.8636 8.67053 14.2184ZM14.4495 20.6843C13.2794 22.2 11.9741 23.6061 10.5495 24.885C12.4 24.2792 14.2747 23.8736 16.1916 23.6839C15.6707 22.6504 15.089 21.6488 14.4495 20.6843ZM17.2653 23.6007C16.628 22.2931 15.8974 21.0332 15.0789 19.8309C15.934 18.6278 16.6925 17.3588 17.3474 16.0358C18.7252 16.1734 20.112 16.1967 21.4937 16.1054C22.1345 17.447 22.8733 18.7394 23.7042 19.9721C22.8984 21.1673 22.179 22.4186 21.5516 23.7166C20.1283 23.5618 18.6948 23.523 17.2653 23.6007ZM16.6547 24.6437C14.1284 24.8566 11.6726 25.4592 9.23579 26.4201L9.7179 35.3178L18.8789 31.666C18.4259 29.2437 17.6789 26.8859 16.6547 24.6448V24.6437ZM19.9832 31.6797L29.3621 35.6465V26.7099C26.8495 25.7384 24.4558 25.1094 22.1495 24.7965C21.1559 26.9963 20.4286 29.3071 19.9832 31.6797ZM21.1095 24.6754C19.9831 24.5672 18.8507 24.5348 17.72 24.5784C18.3937 26.0956 18.9779 27.7498 19.4337 29.5483C19.8811 27.7888 20.4526 26.1662 21.1084 24.6754H21.1095ZM22.5979 23.8504C24.3979 24.1159 26.2421 24.5647 28.1432 25.2053C26.7379 23.8741 25.4578 22.4164 24.3189 20.8508C23.6866 21.8158 23.1119 22.8174 22.5979 23.8504ZM24.9168 19.9721C26.2973 21.9161 27.8989 23.6928 29.6895 25.2664L38.1863 19.8246L30.0947 14.3248C28.1411 15.9846 26.4017 17.8817 24.9168 19.9721ZM31.0726 13.7822L38.6884 18.9585L36.4674 11.3515C34.5695 12.2997 32.7832 13.111 31.0726 13.7822ZM36.0137 10.4602L30.4032 4.09008L30.8168 12.8097C32.5821 12.1018 34.316 11.3179 36.0137 10.4602ZM29.8347 13.1848L29.3989 3.97419L20.0526 8.61846C20.4949 10.8333 21.1837 12.9916 22.1063 15.0528C24.5853 14.8158 27.1042 14.1941 29.8347 13.1848ZM22.5579 16.0105C23.082 17.0725 23.6701 18.1017 24.3189 19.0923C25.4245 17.572 26.6634 16.1534 28.0211 14.8537C26.1474 15.4279 24.3453 15.8146 22.5579 16.0105ZM21.0484 15.1297C20.3824 13.5956 19.8417 12.01 19.4316 10.3885C19.0223 11.9941 18.4765 13.5616 17.8 15.0739C18.8803 15.1658 19.9656 15.1845 21.0484 15.1297ZM16.7537 14.9633C14.2853 14.6493 11.7221 13.9581 8.90737 12.8792L10.1126 3.96576L18.8137 8.61214C18.3792 10.803 17.6878 12.9348 16.7537 14.9633ZM16.2937 15.9094C15.7528 16.967 15.1427 17.9877 14.4674 18.9648C13.2899 17.3602 11.964 15.8702 10.5074 14.5144C12.52 15.1835 14.4284 15.6481 16.2937 15.9094ZM19.4337 7.81035L10.6063 3.09759L19.3453 1.0241L28.9168 3.0997L19.4337 7.81035ZM38.6316 20.7275L30.4842 25.9449C30.5979 26.0398 30.7116 26.1314 30.8232 26.221C32.5389 26.9417 34.3032 27.8119 36.1253 28.8402L38.6305 20.7275H38.6316ZM35.6211 29.7031L30.3611 35.6486V27.1303L30.4463 27.1987L30.4779 27.1598C32.2396 27.9082 33.9568 28.7574 35.6211 29.7031ZM29.0295 36.5916L19.6716 38.9643L10.2747 36.1723L19.42 32.5268L29.0305 36.5916H29.0295ZM8.70526 35.0902L8.25789 26.8258C6.7076 27.506 5.20551 28.2913 3.76211 29.1763L8.70526 35.0902ZM3.26947 28.3061C4.70946 27.425 6.20606 26.6401 7.74947 25.9565L7.73895 25.9428L7.91368 25.8048L1.26316 21.0952L3.26947 28.3061Z" fill="#272B65"/>
</svg>
