<svg width="20" height="40" viewBox="0 0 20 40" fill="none" xmlns="http://www.w3.org/2000/svg">
<path fill-rule="evenodd" clip-rule="evenodd" d="M0 0H19.33L16.966 40H2.363L0 0ZM0.79 1.271L3.01 38.831L4.654 37.194L2.353 2.826L0.79 1.271ZM3.12 3.59L5.326 36.525L6.684 35.173L4.362 4.826L3.12 3.59ZM5.17 4.622L3.564 3.025H15.763L14.16 4.622H5.17ZM5.137 5.598L7.35 34.51L8.424 33.441L6.128 6.584L5.137 5.598ZM6.62 6.066L5.887 5.336H13.443L12.709 6.066H6.62ZM6.862 6.78L9.122 33.22H10.207L12.467 6.78H6.862ZM13.202 6.584L10.905 33.441L11.979 34.511L14.192 5.598L13.202 6.584ZM14.967 4.826L12.645 35.173L14.004 36.525L16.209 3.59L14.967 4.826ZM16.977 2.826L14.675 37.194L16.319 38.831L18.539 1.271L16.977 2.826ZM18.084 0.714H1.244L2.848 2.311H16.48L18.084 0.714ZM15.763 39.286L14.159 37.689H5.17L3.565 39.286H15.764H15.763ZM5.886 36.975H13.442L12.128 35.667H7.2L5.886 36.975ZM7.917 34.953H11.41L10.387 33.933H8.94L7.917 34.953Z" fill="#272B65"/>
</svg>
