<svg width="27" height="40" viewBox="0 0 27 40" fill="none" xmlns="http://www.w3.org/2000/svg">
<path fill-rule="evenodd" clip-rule="evenodd" d="M0 0H26.667L24.074 28.634L13.334 40L2.592 28.634L0 0ZM1.005 1.593L3.383 27.856L5.804 27.015L3.323 3.955L1.005 1.593ZM4.291 4.941L6.636 26.726L9.057 25.884L6.587 7.28L4.29 4.94L4.291 4.941ZM7.482 7.511L9.936 25.987L13.333 29.796L16.731 25.988L19.184 7.51H7.482V7.511ZM20.08 7.28L17.61 25.884L20.031 26.726L22.375 4.94L20.08 7.28ZM21.922 4.173H4.744L7.171 6.646H19.496L21.922 4.173ZM22.772 3.308H3.894L1.498 0.865H25.168L22.771 3.308H22.772ZM23.344 3.954L20.862 27.014L23.283 27.856L25.661 1.593L23.344 3.954ZM22.889 28.634L20.522 27.812L13.762 35.064V38.292L22.889 28.634ZM12.905 38.292V35.064L6.145 27.811L3.778 28.634L12.905 38.292ZM7.035 27.502L12.905 33.802V30.608L9.4 26.68L7.034 27.502H7.035ZM13.762 30.609V33.8L19.633 27.501L17.267 26.679L13.762 30.607V30.609Z" fill="#272B65"/>
</svg>
