<svg width="40" height="40" viewBox="0 0 40 40" fill="none" xmlns="http://www.w3.org/2000/svg">
<path fill-rule="evenodd" clip-rule="evenodd" d="M0 0H40L29.7642 40H9.85684L0 0ZM2.02632 1L6.17368 4.41474H33.7968L37.9632 1H2.02632ZM38.5021 1.84737L34.7411 4.93053L26.84 34.9547L29.1695 38.32L38.5021 1.84737ZM28.4284 39H11.3579L13.8032 35.5853H26.0663L28.4305 39H28.4284ZM26.0958 33.88L33.4326 6.00421L30.3747 8.50947L24.5695 31.6747L26.0958 33.88ZM23.6463 31.2737L29.2968 8.72632H10.6547L16.3063 31.2737H23.6463ZM15.3811 31.6705L9.57684 8.50842L6.94526 6.34105L13.6463 34.0926L15.3811 31.6705ZM14.5179 34.5853H25.3737L23.7737 32.2737H16.1737L14.5179 34.5853ZM12.8821 35.16L5.66842 5.29053L1.47579 1.83789L10.5053 38.48L12.8821 35.16ZM7.38737 5.41474L10.1968 7.72632H29.7579L32.5789 5.41474H7.38737Z" fill="#272B65"/>
</svg>
