<svg width="40" height="35" viewBox="0 0 40 35" fill="none" xmlns="http://www.w3.org/2000/svg">
<path fill-rule="evenodd" clip-rule="evenodd" d="M14.9632 19.7671L19.0892 2.20605L19.9882 2.41705L15.8002 20.2451L1.38316 34.0761L0.743164 33.4091L14.9632 19.7671ZM25.0372 19.7671L20.9122 2.20605L20.0122 2.41705L24.2012 20.2451L37.6942 33.1521L38.3322 32.4841L25.0372 19.7671Z" fill="#272B65"/>
<path fill-rule="evenodd" clip-rule="evenodd" d="M19.8261 28.468L2.3561 33.952L2.0791 33.07L19.8231 27.5L38.6111 33.3L38.3391 34.184L19.8261 28.468ZM19.5381 12.942V1.15601H20.4621V12.942H19.5381Z" fill="#272B65"/>
<path fill-rule="evenodd" clip-rule="evenodd" d="M0.814941 33.8139L10.9759 27.3439L11.4719 28.1239L1.31094 34.5939L0.814941 33.8139ZM38.7169 33.3479L28.5549 27.1079L28.0719 27.8959L38.2339 34.1359L38.7169 33.3479Z" fill="#272B65"/>
<path fill-rule="evenodd" clip-rule="evenodd" d="M20 0L0 34.667H40L20 0ZM20 1.849L1.6 33.742H38.4L20 1.85V1.849Z" fill="#272B65"/>
<path fill-rule="evenodd" clip-rule="evenodd" d="M19.9999 11.5559L10.3999 28.1959H29.5999L19.9999 11.5559ZM19.9999 13.4049L11.9999 27.2699H27.9999L19.9999 13.4039V13.4049Z" fill="#272B65"/>
</svg>
