<svg width="44" height="42" viewBox="0 0 44 42" fill="none" xmlns="http://www.w3.org/2000/svg">
<path d="M43.5207 38.245C43.5207 38.1983 43.5674 38.1513 43.5674 38.1046V38.0579V37.9175V37.8709V37.7305C41.0871 27.7624 35.7054 17.607 27.1878 6.79654C27.1878 6.79654 27.1878 6.74986 27.1412 6.74986L27.0945 6.70318C25.5968 4.78434 24.0057 2.86551 22.2742 0.900052L22.2275 0.853372H22.1809C22.1342 0.853372 22.1342 0.806691 22.0872 0.806691H22.0405C21.9938 0.806691 21.9938 0.76001 21.9468 0.76001H21.9001H21.8534H21.8068H21.7601H21.7134H21.6667H21.62H21.5734H21.5267C21.48 0.76001 21.48 0.806691 21.433 0.806691H21.3863H21.3396L21.2929 0.853372H21.2463L21.1996 0.900052C16.6134 6.09471 12.6822 11.3362 9.4531 16.5776C8.79794 17.4669 8.23642 18.4028 7.76835 19.3857C6.0836 22.2871 4.63284 25.1888 3.41624 28.0435C3.41624 28.0435 3.41624 28.0902 3.36956 28.0902C3.32287 28.1368 3.32288 28.1838 3.32288 28.2305C1.96588 31.366 0.889259 34.5015 0 37.6371V37.7774V37.8241V37.9645V38.0112C0 38.0578 0.0466812 38.1049 0.0466812 38.1515C0.093362 38.1982 0.0933622 38.2452 0.140371 38.2919C0.140371 38.2919 0.187051 38.2919 0.187051 38.3386L0.280741 38.4323C0.280741 38.4323 0.327421 38.4323 0.327421 38.479C0.374102 38.479 0.421111 38.5256 0.467792 38.5256H0.514474C3.18217 39.2275 5.80281 39.7423 8.47017 40.1638H8.51685H8.56353C12.6349 40.8189 16.7533 41.1467 20.8248 41.1933C21.1055 41.1933 21.3863 41.24 21.667 41.24C21.9477 41.24 22.2285 41.24 22.5092 41.1933C26.6276 41.1467 30.699 40.8189 34.7705 40.1638H34.8172H34.9108C37.5785 39.7426 40.2459 39.1808 42.8665 38.5256H42.9132C42.9599 38.5256 43.0069 38.479 43.0536 38.479C43.0536 38.479 43.1003 38.479 43.1003 38.4323C43.1469 38.4323 43.1469 38.3856 43.194 38.3386L43.2406 38.2919C43.4737 38.3853 43.4737 38.3386 43.5207 38.2449L43.5207 38.245ZM35.5647 38.7598C35.5647 38.5727 35.518 38.3853 35.518 38.245C36.2199 38.2916 36.922 38.3853 37.6239 38.432C36.922 38.5257 36.2201 38.6661 35.5646 38.7598H35.5647ZM31.6337 36.4198H31.4933C29.2001 36.0921 26.9538 35.718 24.7542 35.2499C27.6089 34.4076 30.417 33.4714 33.1312 32.3484C33.4119 33.7991 33.646 35.2499 33.88 36.7005C33.1315 36.6068 32.3826 36.5132 31.6338 36.4198L31.6337 36.4198ZM21.0572 39.9297C18.5302 39.7894 16.0966 38.9468 14.0374 37.5431C16.7051 37.122 19.3257 36.6072 21.8527 35.9987C24.3797 36.6072 27.0008 37.1687 29.6681 37.5431C27.5623 38.9471 25.1753 39.7893 22.6483 39.9297H21.0573H21.0572ZM12.0718 36.4198C11.323 36.5135 10.5741 36.6069 9.82556 36.7006C10.0596 35.2028 10.2937 33.7522 10.5744 32.3485C13.2887 33.4717 16.0965 34.4543 18.9514 35.2499C16.7518 35.718 14.5056 36.0921 12.2123 36.4199C12.2123 36.3728 12.1186 36.3728 12.0719 36.4199L12.0718 36.4198ZM6.1283 38.3854C6.83015 38.3387 7.53234 38.2917 8.23416 38.1983C8.23416 38.3854 8.18748 38.5728 8.18748 38.7131C7.4853 38.6661 6.78343 38.5257 6.12825 38.3854H6.1283ZM4.49018 29.4936C4.72424 29.634 4.9583 29.7277 5.19202 29.868C4.49018 30.851 3.83503 31.8802 3.1328 32.9568C3.55424 31.7869 3.97534 30.6169 4.49013 29.4937L4.49018 29.4936ZM2.05689 37.2156C3.50757 34.8756 4.95833 32.6294 6.45606 30.4765C7.39195 30.8976 8.32784 31.3187 9.26414 31.7401C8.9364 33.3782 8.65566 35.063 8.42194 36.7944C6.31541 36.9814 4.20955 37.1218 2.05698 37.2155L2.05689 37.2156ZM7.85977 25.9371C7.85977 23.8779 8.32789 21.9124 9.12342 20.0872C9.63822 19.198 10.153 18.3088 10.7145 17.4195C11.7441 16.0626 13.0544 14.8926 14.5521 13.9564C13.6163 16.1559 12.8207 18.4022 12.0718 20.6484C10.6678 22.3799 9.26373 24.1583 7.8601 26.0301C7.85977 26.0307 7.85977 25.9837 7.85977 25.9371L7.85977 25.9371ZM17.1727 8.24717L17.2194 8.29385C16.6109 9.51053 16.0027 10.7275 15.441 11.9441C14.8795 12.2249 14.3177 12.5056 13.7562 12.8334C14.8328 11.2891 15.9561 9.79166 17.1728 8.24722L17.1727 8.24717ZM29.9956 12.8803C29.4341 12.5526 28.8723 12.2252 28.2641 11.9444C27.7026 10.7278 27.1408 9.51082 26.4856 8.29414L26.5323 8.24746C27.749 9.79156 28.919 11.3359 29.9955 12.8804L29.9956 12.8803ZM18.3427 9.18306C19.1849 9.88491 20.0274 10.5871 20.823 11.336C18.7171 13.3015 16.6113 15.4543 14.5988 17.7473C15.6751 14.8459 16.892 11.9912 18.3428 9.18314L18.3427 9.18306ZM35.8454 26.0774C34.4413 24.2056 33.0373 22.4271 31.6337 20.6957C30.8848 18.4025 30.0893 16.2029 29.1533 14.0037C33.2717 16.5306 35.8454 21.0235 35.8454 25.9373V26.0774V26.0774ZM29.153 17.7939C27.0938 15.5007 25.0346 13.3481 22.9288 11.3826C23.771 10.6337 24.5669 9.93192 25.4091 9.22969C26.8132 11.9911 28.0301 14.8458 29.1531 17.7939L29.153 17.7939ZM21.8525 10.4C20.9166 9.55778 19.9337 8.71524 18.9978 7.91966C19.887 6.23491 20.8696 4.50344 21.8525 2.81869C22.8821 4.50344 23.818 6.18819 24.7072 7.91966C23.7713 8.7152 22.7884 9.55745 21.8525 10.4ZM21.8525 12.3185C24.7539 15.0328 27.6087 18.0746 30.3699 21.3974C31.3528 24.4862 32.195 27.6217 32.8502 30.8976C29.2933 32.3483 25.643 33.5653 21.8525 34.5479C18.0619 33.612 14.4116 32.395 10.8548 30.8976C11.51 27.6217 12.3525 24.4393 13.3351 21.3974C16.0965 18.0279 18.9512 15.0328 21.8525 12.3185ZM32.7098 24.299C33.7394 25.656 34.769 27.0133 35.7986 28.464C35.9856 28.7448 36.173 29.0255 36.4071 29.3063C35.6582 29.6807 34.9094 30.0081 34.1608 30.3358C33.7391 28.2766 33.2712 26.2644 32.7098 24.299H32.7098ZM37.1086 27.8556C37.2023 27.2471 37.249 26.5919 37.249 25.9367C37.249 25.5623 37.249 25.1412 37.2023 24.7668C37.7638 25.89 38.2786 27.013 38.7934 28.1363C38.419 28.3233 38.0915 28.5107 37.7171 28.6978C37.53 28.417 37.296 28.1363 37.1086 27.8556L37.1086 27.8556ZM7.85943 28.4641C8.889 27.0134 9.91866 25.6093 10.9949 24.299C10.4335 26.2645 9.96537 28.277 9.54427 30.3358C8.79541 30.0081 8.04654 29.6807 7.29802 29.3063C7.48507 29.0255 7.67245 28.7448 7.8595 28.4641H7.85943ZM34.4411 31.7399C35.377 31.3188 36.3129 30.8977 37.2492 30.4762C38.7469 32.6291 40.1976 34.8754 41.6483 37.2153C39.4954 37.1687 37.3896 37.0283 35.3304 36.8409C35.0496 35.0625 34.7685 33.3777 34.4411 31.7399V31.7399ZM38.5125 29.8678C38.7932 29.7274 39.074 29.587 39.3547 29.4467C39.8695 30.7103 40.3843 31.9736 40.8054 33.2373C40.0569 32.0673 39.2613 30.9443 38.5124 29.8678L38.5125 29.8678ZM6.59578 27.8556C6.40873 28.1363 6.22135 28.4171 5.9873 28.6978C5.65955 28.5574 5.33214 28.3701 5.00436 28.2297C5.47248 27.2001 5.94025 26.1705 6.45504 25.0942C6.45504 25.3749 6.40836 25.6557 6.40836 25.9834C6.45536 26.5919 6.50205 27.2004 6.59573 27.8555L6.59578 27.8556ZM9.54385 38.9937C9.59053 38.7129 9.63754 38.3852 9.68422 38.1044C10.4798 38.0107 11.2753 37.9174 12.0709 37.8237C12.9131 38.5255 13.8023 39.134 14.7852 39.6021C13.0071 39.4614 11.2756 39.2744 9.54383 38.9936L9.54385 38.9937ZM31.6328 37.8237C32.4284 37.9174 33.2239 38.0108 34.0195 38.1045C34.0662 38.3852 34.1132 38.7129 34.1599 38.9937C32.4284 39.2745 30.65 39.4618 28.9185 39.6022C29.9014 39.1341 30.7906 38.5256 31.6328 37.8238L31.6328 37.8237Z" fill="#272B65"/>
</svg>
