<svg width="24" height="24" viewBox="0 0 24 24" fill="none" xmlns="http://www.w3.org/2000/svg">
<path d="M22.5 7.5V5.25C22.5 4.65326 22.2629 4.08097 21.841 3.65901C21.419 3.23705 20.8467 3 20.25 3H17.25V2.25C17.25 2.05109 17.171 1.86032 17.0303 1.71967C16.8897 1.57902 16.6989 1.5 16.5 1.5C16.3011 1.5 16.1103 1.57902 15.9697 1.71967C15.829 1.86032 15.75 2.05109 15.75 2.25V3H8.25V2.25C8.25 2.05109 8.17098 1.86032 8.03033 1.71967C7.88968 1.57902 7.69891 1.5 7.5 1.5C7.30109 1.5 7.11032 1.57902 6.96967 1.71967C6.82902 1.86032 6.75 2.05109 6.75 2.25V3H3.75C3.15326 3 2.58097 3.23705 2.15901 3.65901C1.73705 4.08097 1.5 4.65326 1.5 5.25V7.5H22.5Z" fill="#804294"/>
<path d="M1.5 9V20.25C1.5 20.8467 1.73705 21.419 2.15901 21.841C2.58097 22.2629 3.15326 22.5 3.75 22.5H20.25C20.8467 22.5 21.419 22.2629 21.841 21.841C22.2629 21.419 22.5 20.8467 22.5 20.25V9H1.5ZM16.2375 13.3193L10.9875 17.8193C10.844 17.9419 10.6595 18.006 10.4708 17.9986C10.2822 17.9913 10.1032 17.913 9.96975 17.7795L7.71975 15.5295C7.58313 15.388 7.50754 15.1986 7.50924 15.0019C7.51095 14.8053 7.58983 14.6172 7.72889 14.4781C7.86794 14.3391 8.05605 14.2602 8.2527 14.2585C8.44935 14.2568 8.6388 14.3324 8.78025 14.469L10.5398 16.2285L15.2648 12.1785C15.3391 12.1115 15.4261 12.06 15.5207 12.0272C15.6153 11.9943 15.7155 11.9807 15.8154 11.9872C15.9153 11.9936 16.0129 12.02 16.1024 12.0648C16.1919 12.1096 16.2716 12.1719 16.3367 12.2479C16.4018 12.324 16.451 12.4123 16.4814 12.5077C16.5118 12.6031 16.5229 12.7036 16.5138 12.8033C16.5048 12.903 16.4759 12.9999 16.4288 13.0882C16.3817 13.1766 16.3175 13.2546 16.2397 13.3177L16.2375 13.3193Z" fill="#804294"/>
</svg>
