<svg width="30" height="30" viewBox="0 0 30 30" fill="none" xmlns="http://www.w3.org/2000/svg">
<path d="M5.625 18.75C5.625 18.5014 5.72377 18.2629 5.89959 18.0871C6.0754 17.9113 6.31386 17.8125 6.5625 17.8125H8.4375V15.9375C8.4375 15.6889 8.53627 15.4504 8.71209 15.2746C8.8879 15.0988 9.12636 15 9.375 15C9.62364 15 9.8621 15.0988 10.0379 15.2746C10.2137 15.4504 10.3125 15.6889 10.3125 15.9375V17.8125H12.1875C12.4361 17.8125 12.6746 17.9113 12.8504 18.0871C13.0262 18.2629 13.125 18.5014 13.125 18.75C13.125 18.9986 13.0262 19.2371 12.8504 19.4129C12.6746 19.5887 12.4361 19.6875 12.1875 19.6875H10.3125V21.5625C10.3125 21.8111 10.2137 22.0496 10.0379 22.2254C9.8621 22.4012 9.62364 22.5 9.375 22.5C9.12636 22.5 8.8879 22.4012 8.71209 22.2254C8.53627 22.0496 8.4375 21.8111 8.4375 21.5625V19.6875H6.5625C6.31386 19.6875 6.0754 19.5887 5.89959 19.4129C5.72377 19.2371 5.625 18.9986 5.625 18.75ZM21.5625 23.4375H23.4375C23.6861 23.4375 23.9246 23.3387 24.1004 23.1629C24.2762 22.9871 24.375 22.7486 24.375 22.5C24.375 22.2514 24.2762 22.0129 24.1004 21.8371C23.9246 21.6613 23.6861 21.5625 23.4375 21.5625H21.5625C21.3139 21.5625 21.0754 21.6613 20.8996 21.8371C20.7238 22.0129 20.625 22.2514 20.625 22.5C20.625 22.7486 20.7238 22.9871 20.8996 23.1629C21.0754 23.3387 21.3139 23.4375 21.5625 23.4375ZM21.5625 15.9375H23.4375C23.6861 15.9375 23.9246 15.8387 24.1004 15.6629C24.2762 15.4871 24.375 15.2486 24.375 15C24.375 14.7514 24.2762 14.5129 24.1004 14.3371C23.9246 14.1613 23.6861 14.0625 23.4375 14.0625H21.5625C21.3139 14.0625 21.0754 14.1613 20.8996 14.3371C20.7238 14.5129 20.625 14.7514 20.625 15C20.625 15.2486 20.7238 15.4871 20.8996 15.6629C21.0754 15.8387 21.3139 15.9375 21.5625 15.9375ZM15.9375 15.9375H17.8125C18.0611 15.9375 18.2996 15.8387 18.4754 15.6629C18.6512 15.4871 18.75 15.2486 18.75 15C18.75 14.7514 18.6512 14.5129 18.4754 14.3371C18.2996 14.1613 18.0611 14.0625 17.8125 14.0625H15.9375C15.6889 14.0625 15.4504 14.1613 15.2746 14.3371C15.0988 14.5129 15 14.7514 15 15C15 15.2486 15.0988 15.4871 15.2746 15.6629C15.4504 15.8387 15.6889 15.9375 15.9375 15.9375ZM21.5625 19.6875H23.4375C23.6861 19.6875 23.9246 19.5887 24.1004 19.4129C24.2762 19.2371 24.375 18.9986 24.375 18.75C24.375 18.5014 24.2762 18.2629 24.1004 18.0871C23.9246 17.9113 23.6861 17.8125 23.4375 17.8125H21.5625C21.3139 17.8125 21.0754 17.9113 20.8996 18.0871C20.7238 18.2629 20.625 18.5014 20.625 18.75C20.625 18.9986 20.7238 19.2371 20.8996 19.4129C21.0754 19.5887 21.3139 19.6875 21.5625 19.6875ZM28.125 7.5V25.3125C28.125 26.0584 27.8287 26.7738 27.3012 27.3012C26.7738 27.8287 26.0584 28.125 25.3125 28.125H4.6875C3.94158 28.125 3.22621 27.8287 2.69876 27.3012C2.17132 26.7738 1.875 26.0584 1.875 25.3125V7.5C1.875 6.75408 2.17132 6.03871 2.69876 5.51126C3.22621 4.98382 3.94158 4.6875 4.6875 4.6875H5.625V2.8125C5.625 2.56386 5.72377 2.3254 5.89959 2.14959C6.0754 1.97377 6.31386 1.875 6.5625 1.875C6.81114 1.875 7.0496 1.97377 7.22541 2.14959C7.40123 2.3254 7.5 2.56386 7.5 2.8125V4.6875H22.5V2.8125C22.5 2.56386 22.5988 2.3254 22.7746 2.14959C22.9504 1.97377 23.1889 1.875 23.4375 1.875C23.6861 1.875 23.9246 1.97377 24.1004 2.14959C24.2762 2.3254 24.375 2.56386 24.375 2.8125V4.6875H25.3125C26.0584 4.6875 26.7738 4.98382 27.3012 5.51126C27.8287 6.03871 28.125 6.75408 28.125 7.5ZM26.25 11.25H3.75V25.3125C3.75 25.5611 3.84877 25.7996 4.02459 25.9754C4.2004 26.1512 4.43886 26.25 4.6875 26.25H25.3125C25.5611 26.25 25.7996 26.1512 25.9754 25.9754C26.1512 25.7996 26.25 25.5611 26.25 25.3125V11.25ZM26.25 7.5C26.25 7.25136 26.1512 7.0129 25.9754 6.83709C25.7996 6.66127 25.5611 6.5625 25.3125 6.5625H4.6875C4.43886 6.5625 4.2004 6.66127 4.02459 6.83709C3.84877 7.0129 3.75 7.25136 3.75 7.5V9.375H26.25V7.5ZM15.9375 23.4375H17.8125C18.0611 23.4375 18.2996 23.3387 18.4754 23.1629C18.6512 22.9871 18.75 22.7486 18.75 22.5C18.75 22.2514 18.6512 22.0129 18.4754 21.8371C18.2996 21.6613 18.0611 21.5625 17.8125 21.5625H15.9375C15.6889 21.5625 15.4504 21.6613 15.2746 21.8371C15.0988 22.0129 15 22.2514 15 22.5C15 22.7486 15.0988 22.9871 15.2746 23.1629C15.4504 23.3387 15.6889 23.4375 15.9375 23.4375ZM15.9375 19.6875H17.8125C18.0611 19.6875 18.2996 19.5887 18.4754 19.4129C18.6512 19.2371 18.75 18.9986 18.75 18.75C18.75 18.5014 18.6512 18.2629 18.4754 18.0871C18.2996 17.9113 18.0611 17.8125 17.8125 17.8125H15.9375C15.6889 17.8125 15.4504 17.9113 15.2746 18.0871C15.0988 18.2629 15 18.5014 15 18.75C15 18.9986 15.0988 19.2371 15.2746 19.4129C15.4504 19.5887 15.6889 19.6875 15.9375 19.6875Z" fill="#804294"/>
</svg>
