<svg width="24" height="24" viewBox="0 0 24 24" fill="none" xmlns="http://www.w3.org/2000/svg">
<path d="M22.4325 11.7L20.775 7.95C20.717 7.81701 20.6216 7.70371 20.5005 7.62384C20.3793 7.54396 20.2376 7.50095 20.0925 7.5H16.08L16.32 5.3325C16.3318 5.22728 16.3212 5.12075 16.2889 5.01992C16.2566 4.91909 16.2033 4.82625 16.1325 4.7475C16.0624 4.66981 15.9768 4.60765 15.8812 4.56502C15.7856 4.5224 15.6822 4.50025 15.5775 4.5H5.25C5.05109 4.5 4.86032 4.57902 4.71967 4.71967C4.57902 4.86032 4.5 5.05109 4.5 5.25C4.5 5.44891 4.57902 5.63968 4.71967 5.78033C4.86032 5.92098 5.05109 6 5.25 6H9C9.19891 6 9.38968 6.07902 9.53033 6.21967C9.67098 6.36032 9.75 6.55109 9.75 6.75C9.75 6.94891 9.67098 7.13968 9.53033 7.28033C9.38968 7.42098 9.19891 7.5 9 7.5H3.75C3.55109 7.5 3.36032 7.57902 3.21967 7.71967C3.07902 7.86032 3 8.05109 3 8.25C3 8.44891 3.07902 8.63968 3.21967 8.78033C3.36032 8.92098 3.55109 9 3.75 9H11.25C11.4489 9 11.6397 9.07902 11.7803 9.21967C11.921 9.36032 12 9.55109 12 9.75C12 9.94891 11.921 10.1397 11.7803 10.2803C11.6397 10.421 11.4489 10.5 11.25 10.5H6C5.80109 10.5 5.61032 10.579 5.46967 10.7197C5.32902 10.8603 5.25 11.0511 5.25 11.25C5.25 11.4489 5.32902 11.6397 5.46967 11.7803C5.61032 11.921 5.80109 12 6 12H9C9.19891 12 9.38968 12.079 9.53033 12.2197C9.67098 12.3603 9.75 12.5511 9.75 12.75C9.75 12.9489 9.67098 13.1397 9.53033 13.2803C9.38968 13.421 9.19891 13.5 9 13.5H3C2.80109 13.5 2.61032 13.579 2.46967 13.7197C2.32902 13.8603 2.25 14.0511 2.25 14.25C2.25 14.4489 2.32902 14.6397 2.46967 14.7803C2.61032 14.921 2.80109 15 3 15H4.5C4.69891 15 4.88968 15.079 5.03033 15.2197C5.17098 15.3603 5.25 15.5511 5.25 15.75C5.25 15.9489 5.17098 16.1397 5.03033 16.2803C4.88968 16.421 4.69891 16.5 4.5 16.5H3.75C3.55109 16.5 3.36032 16.579 3.21967 16.7197C3.07902 16.8603 3 17.0511 3 17.25C3 17.4489 3.07902 17.6397 3.21967 17.7803C3.36032 17.921 3.55109 18 3.75 18H5.8875C5.96849 18.3163 6.12262 18.6092 6.3375 18.855C6.51959 19.0586 6.74271 19.2213 6.99219 19.3325C7.24168 19.4436 7.51187 19.5007 7.785 19.5C8.24719 19.4868 8.69518 19.3374 9.07278 19.0705C9.45038 18.8037 9.74076 18.4313 9.9075 18H15.6375C15.7185 18.3163 15.8726 18.6092 16.0875 18.855C16.2696 19.0586 16.4927 19.2213 16.7422 19.3325C16.9917 19.4436 17.2619 19.5007 17.535 19.5C17.9972 19.4868 18.4452 19.3374 18.8228 19.0705C19.2004 18.8037 19.4908 18.4313 19.6575 18H21.1575C21.3429 18.0011 21.5222 17.9335 21.6607 17.8103C21.7992 17.687 21.8871 17.5168 21.9075 17.3325L22.485 12.0825C22.5056 11.9526 22.4873 11.8195 22.4325 11.7ZM7.785 18C7.72281 18.0027 7.66081 17.9913 7.60366 17.9666C7.54651 17.9419 7.49569 17.9046 7.455 17.8575C7.39613 17.7847 7.35305 17.7004 7.32852 17.61C7.30399 17.5196 7.29853 17.4251 7.3125 17.3325C7.33166 17.1219 7.42257 16.9243 7.57003 16.7728C7.71748 16.6212 7.91252 16.5249 8.1225 16.5C8.18469 16.4973 8.24669 16.5087 8.30384 16.5334C8.36099 16.5581 8.41181 16.5954 8.4525 16.6425C8.51137 16.7153 8.55445 16.7996 8.57898 16.89C8.60351 16.9804 8.60897 17.0749 8.595 17.1675C8.57584 17.3781 8.48493 17.5757 8.33747 17.7272C8.19002 17.8788 7.99498 17.9751 7.785 18ZM17.535 18C17.4728 18.0027 17.4108 17.9913 17.3537 17.9666C17.2965 17.9419 17.2457 17.9046 17.205 17.8575C17.1461 17.7847 17.1031 17.7004 17.0785 17.61C17.054 17.5196 17.0485 17.4251 17.0625 17.3325C17.0817 17.1219 17.1726 16.9243 17.32 16.7728C17.4675 16.6212 17.6625 16.5249 17.8725 16.5C17.9347 16.4973 17.9967 16.5087 18.0538 16.5334C18.111 16.5581 18.1618 16.5954 18.2025 16.6425C18.2614 16.7153 18.3044 16.7996 18.329 16.89C18.3535 16.9804 18.359 17.0749 18.345 17.1675C18.3258 17.3781 18.2349 17.5757 18.0875 17.7272C17.94 17.8788 17.745 17.9751 17.535 18ZM20.91 12.75H17.595C17.4903 12.7498 17.3869 12.7276 17.2913 12.685C17.1957 12.6424 17.1101 12.5802 17.04 12.5025C16.9692 12.4237 16.9159 12.3309 16.8836 12.2301C16.8513 12.1292 16.8407 12.0227 16.8525 11.9175L17.1 9.6675C17.1221 9.48457 17.2108 9.31617 17.3491 9.19445C17.4874 9.07272 17.6657 9.00617 17.85 9.0075H19.5975L21 12.12L20.91 12.75Z" fill="#804294"/>
<path d="M3 12C3.19891 12 3.38968 11.921 3.53033 11.7803C3.67098 11.6397 3.75 11.4489 3.75 11.25C3.75 11.0511 3.67098 10.8603 3.53033 10.7197C3.38968 10.579 3.19891 10.5 3 10.5H2.25C2.05109 10.5 1.86032 10.579 1.71967 10.7197C1.57902 10.8603 1.5 11.0511 1.5 11.25C1.5 11.4489 1.57902 11.6397 1.71967 11.7803C1.86032 11.921 2.05109 12 2.25 12H3Z" fill="#804294"/>
</svg>
