<svg width="30" height="30" viewBox="0 0 30 30" fill="none" xmlns="http://www.w3.org/2000/svg">
<g clip-path="url(#clip0_197_15621)">
<path d="M21.3281 1.875C20.1416 1.87638 18.968 2.12082 17.8797 2.59326C16.7913 3.06569 15.8113 3.75609 15 4.62187C13.8111 3.35302 12.2683 2.47086 10.5717 2.08993C8.87513 1.709 7.10323 1.84688 5.48602 2.48568C3.8688 3.12448 2.48097 4.23469 1.50269 5.67219C0.524409 7.10968 0.000856078 8.80807 0 10.5469C0 19.1812 13.9266 27.6562 14.5312 27.9891C14.6771 28.0767 14.844 28.1229 15.0141 28.1229C15.1842 28.1229 15.3511 28.0767 15.4969 27.9891C16.0734 27.6562 30 19.1812 30 10.5469C29.9975 8.24771 29.0831 6.04343 27.4573 4.41767C25.8316 2.79192 23.6273 1.87748 21.3281 1.875ZM15 26.0812C12.5766 24.5344 1.875 17.3062 1.875 10.5469C1.8762 9.1031 2.33712 7.69721 3.19095 6.53297C4.04477 5.36872 5.24715 4.50661 6.62383 4.07156C8.0005 3.63652 9.47994 3.65116 10.8477 4.11335C12.2155 4.57554 13.4006 5.46128 14.2313 6.64219C14.3178 6.76502 14.4326 6.86526 14.566 6.93445C14.6993 7.00364 14.8474 7.03975 14.9977 7.03975C15.1479 7.03975 15.296 7.00364 15.4293 6.93445C15.5627 6.86526 15.6775 6.76502 15.7641 6.64219C16.594 5.45925 17.7794 4.5716 19.148 4.10811C20.5167 3.64461 21.9975 3.6294 23.3755 4.06467C24.7534 4.49994 25.9567 5.36305 26.8108 6.52869C27.6649 7.69433 28.1252 9.10183 28.125 10.5469C28.125 17.3016 17.4234 24.5297 15 26.0812Z" fill="#804294"/>
</g>
<defs>
<clipPath id="clip0_197_15621">
<rect width="30" height="30" fill="white"/>
</clipPath>
</defs>
</svg>
