<svg width="24" height="24" viewBox="0 0 24 24" fill="none" xmlns="http://www.w3.org/2000/svg">
<g clip-path="url(#clip0_197_15614)">
<path d="M22.244 9.95907C22.1779 6.51376 21.6979 3.97267 21.7045 3.97032C21.5048 3.58079 21.1546 3.25501 20.7262 3.0886C17.9137 1.99782 15.1481 0.956729 12.4518 0.0684473C12.1762 -0.0224902 11.8856 -0.0224902 11.6104 0.0684473C8.91464 0.954385 6.14948 1.9936 3.33745 3.08298C2.95917 3.2297 2.64182 3.5011 2.43511 3.8311C2.45104 3.83298 1.85714 5.68688 1.75589 9.78142C1.69589 13.8764 2.20589 15.1031 2.18901 15.1045C2.46511 16.0045 2.98167 16.92 3.72182 17.8509C4.54917 18.8906 5.66714 19.9645 7.01761 21.0202C9.25307 22.7747 11.3451 23.8233 11.4328 23.8603C11.6226 23.9531 11.8237 24.0005 12.0309 24C12.2385 24 12.4396 23.9527 12.629 23.8594C12.7171 23.8224 14.8115 22.7705 17.046 21.0164C18.397 19.9599 19.5149 18.8859 20.3428 17.8467C21.1359 16.8497 21.6721 15.8714 21.9314 14.9105C21.921 14.9091 22.296 13.4053 22.244 9.95954V9.95907ZM13.1437 12.6464V14.8294C13.1437 15.4444 12.6454 15.9427 12.0304 15.9431C11.4154 15.9431 10.9167 15.4449 10.9167 14.8299V12.6774C10.1142 12.2784 9.56198 11.4506 9.56198 10.4939C9.56198 9.14767 10.6532 8.05595 11.9995 8.05595C13.3457 8.05595 14.437 9.1472 14.4374 10.4934C14.4374 11.4263 13.9134 12.2367 13.1437 12.6464Z" fill="#804294"/>
</g>
<defs>
<clipPath id="clip0_197_15614">
<rect width="24" height="24" fill="white"/>
</clipPath>
</defs>
</svg>
