<svg width="30" height="30" viewBox="0 0 30 30" fill="none" xmlns="http://www.w3.org/2000/svg">
<g clip-path="url(#clip0_197_16082)">
<path d="M25.9716 11.465C24.556 10.8988 22.9141 11.5237 22.2335 12.8869L21.251 14.8525V4.375C21.251 2.99625 20.1297 1.875 18.751 1.875C18.2897 1.875 17.8566 2.00063 17.4854 2.21938C17.3454 0.9725 16.2847 0 15.001 0C13.6222 0 12.501 1.12125 12.501 2.5V2.83563C12.1329 2.6225 11.706 2.5 11.251 2.5C9.87223 2.5 8.75098 3.62125 8.75098 5V5.96062C8.38285 5.7475 7.95598 5.625 7.50098 5.625C6.12223 5.625 5.00098 6.74625 5.00098 8.125V17.2087C5.00098 18.7356 5.3216 20.2156 5.95348 21.6056L8.12598 26.385V28.1244C8.12598 29.1581 8.96723 29.9994 10.001 29.9994H18.751C19.7847 29.9994 20.626 29.1581 20.626 28.1244V26.4756L22.5197 24.2019C23.286 23.2844 23.8866 22.2506 24.3066 21.1306L27.031 13.8637C27.386 12.9169 26.911 11.8412 25.9716 11.465ZM9.37535 13.125V11.875H13.1254V13.125H9.37535ZM10.0004 5C10.0004 4.31063 10.561 3.75 11.2504 3.75C11.9397 3.75 12.5004 4.31063 12.5004 5V10.625H10.0004V5ZM25.8604 13.4256L23.136 20.6925C22.7654 21.6806 22.2354 22.5925 21.5597 23.4025L19.5204 25.85C19.4272 25.9625 19.376 26.1031 19.376 26.25V28.125C19.376 28.47 19.096 28.75 18.751 28.75H10.001C9.65598 28.75 9.37598 28.47 9.37598 28.125V26.25C9.37598 26.1606 9.35723 26.0725 9.31973 25.9912L7.0916 21.0881C6.53348 19.8612 6.25098 18.5562 6.25098 17.2087V8.125C6.25098 7.43563 6.8116 6.875 7.50098 6.875C8.19035 6.875 8.75098 7.43563 8.75098 8.125V10.7987C8.3791 11.0156 8.12598 11.4144 8.12598 11.875V13.125C8.12598 13.5856 8.3791 13.9844 8.75098 14.2013V15.625C8.75098 15.9706 9.03035 16.25 9.37598 16.25C9.7216 16.25 10.001 15.9706 10.001 15.625V14.375H12.501V15.625C12.501 15.9706 12.7804 16.25 13.126 16.25C13.4716 16.25 13.751 15.9706 13.751 15.625V14.2013C14.1229 13.9844 14.376 13.5856 14.376 13.125V11.875C14.376 11.4144 14.1229 11.0156 13.751 10.7987V2.5C13.751 1.81062 14.3116 1.25 15.001 1.25C15.6904 1.25 16.251 1.81062 16.251 2.5V15.625C16.251 15.9706 16.5304 16.25 16.876 16.25C17.2216 16.25 17.501 15.9706 17.501 15.625V4.375C17.501 3.68563 18.0616 3.125 18.751 3.125C19.4404 3.125 20.001 3.68563 20.001 4.375V17.5C20.001 17.79 20.2004 18.0413 20.4829 18.1088C20.7616 18.1731 21.056 18.0394 21.1854 17.78L23.3522 13.4462C23.7454 12.66 24.6941 12.3019 25.5079 12.6262C25.821 12.7519 25.9797 13.1106 25.861 13.4263L25.8604 13.4256Z" fill="#804294"/>
</g>
<defs>
<clipPath id="clip0_197_16082">
<rect width="30" height="30" fill="white"/>
</clipPath>
</defs>
</svg>
