<svg width="30" height="30" viewBox="0 0 30 30" fill="none" xmlns="http://www.w3.org/2000/svg">
<path d="M1.875 27.1875C1.80352 27.1875 1.73133 27.1793 1.65984 27.1629C1.2368 27.0621 0.9375 26.6848 0.9375 26.25C0.9375 17.7309 2.01516 10.6458 15 10.3235V3.75C15 3.37734 15.2205 3.04055 15.5613 2.89125C15.9009 2.74289 16.2991 2.80711 16.5738 3.06164L28.7613 14.3116C28.9535 14.4881 29.0625 14.7382 29.0625 15C29.0625 15.2618 28.9535 15.5119 28.7613 15.6886L16.5738 26.9386C16.3001 27.1931 15.9019 27.259 15.5613 27.109C15.2205 26.9595 15 26.6227 15 26.25V19.6985C6.09281 19.9118 4.44938 23.1977 2.71359 26.6693C2.55258 26.9925 2.22375 27.1875 1.875 27.1875ZM15.9375 17.8125C16.4557 17.8125 16.875 18.2318 16.875 18.75V24.1085L26.7427 15L16.875 5.89148V11.25C16.875 11.7682 16.4557 12.1875 15.9375 12.1875C5.58094 12.1875 3.35086 16.193 2.91234 22.5907C4.85414 19.9823 8.16375 17.8125 15.9375 17.8125Z" fill="#804294"/>
</svg>
