<svg width="30" height="27" viewBox="0 0 30 27" fill="none" xmlns="http://www.w3.org/2000/svg">
<path fill-rule="evenodd" clip-rule="evenodd" d="M15.4886 0.130806C15.1866 -0.0436019 14.8144 -0.0436019 14.5124 0.130806L7.66585 4.08365C7.36382 4.25802 7.17773 4.58029 7.17773 4.92906V12.8347C7.17773 13.1835 7.36382 13.5058 7.66585 13.6802L14.5124 17.633C14.8144 17.8074 15.1866 17.8074 15.4886 17.633L22.3351 13.6802C22.6372 13.5058 22.8232 13.1835 22.8232 12.8347V4.92906C22.8232 4.58029 22.6372 4.25802 22.3351 4.08365L15.4886 0.130806ZM9.1302 12.2711V6.61982L14.0243 9.44541V15.0967L9.1302 12.2711ZM15.0005 7.75454L10.1065 4.92899L15.0005 2.10351L19.957 4.96511L15.0005 7.75454ZM15.9767 9.45202L20.8708 6.69259V12.2711L15.9767 15.0967V9.45202Z" fill="#804294"/>
<path d="M1.95247 4.09916C1.95247 2.97939 2.86022 2.0716 3.98003 2.0716H7.22773C7.76691 2.0716 8.20396 1.63455 8.20396 1.09537C8.20396 0.55623 7.76691 0.119141 7.22773 0.119141H3.98003C1.78193 0.119141 0 1.90106 0 4.09916V17.6674C0 19.8655 1.78193 21.6474 3.98003 21.6474H14.0238V24.9345H8.11389C7.57474 24.9345 7.13765 25.3716 7.13765 25.9107C7.13765 26.4499 7.57474 26.887 8.11389 26.887H21.8865C22.4256 26.887 22.8627 26.4499 22.8627 25.9107C22.8627 25.3716 22.4256 24.9345 21.8865 24.9345H15.9763V21.6474H26.02C28.2181 21.6474 30 19.8655 30 17.6674V4.09916C30 1.90106 28.2181 0.119141 26.02 0.119141H22.758C22.2189 0.119141 21.7818 0.55623 21.7818 1.09537C21.7818 1.63455 22.2189 2.0716 22.758 2.0716H26.02C27.1398 2.0716 28.0475 2.97939 28.0475 4.09916V17.6674C28.0475 18.7872 27.1398 19.695 26.02 19.695H3.98003C2.86022 19.695 1.95247 18.7872 1.95247 17.6674V4.09916Z" fill="#804294"/>
</svg>
