<svg width="24" height="24" viewBox="0 0 24 24" fill="none" xmlns="http://www.w3.org/2000/svg">
<g clip-path="url(#clip0_188_15109)">
<path d="M23.8815 8.78822L19.96 2.48761C19.8167 2.25755 19.565 2.11768 19.2941 2.11768H4.706C4.43516 2.11768 4.1834 2.25755 4.0401 2.48761L0.118571 8.78822C-0.0696772 9.0907 -0.0307244 9.48182 0.213727 9.7409L11.4293 21.6359C11.5775 21.7931 11.7841 21.8822 12 21.8822C12.216 21.8822 12.4225 21.7931 12.5707 21.6357L23.7863 9.7409C24.0305 9.48154 24.0698 9.0907 23.8815 8.78822ZM12.0001 19.9547L1.76954 9.10429L5.1418 3.68629H18.8585L22.2306 9.10429L12.0001 19.9547Z" fill="#804294"/>
<path d="M23.2156 8.41833H0.784424V9.98695H23.2156V8.41833Z" fill="#804294"/>
<path d="M8.05659 9.12757L9.266 3.0552L7.72744 2.74878L6.47256 9.04939C6.44303 9.1984 6.45713 9.35266 6.51362 9.49385L11.2718 21.3892L12.7282 20.8067L8.05659 9.12757Z" fill="#804294"/>
<path d="M17.5775 8.98638L16.2703 2.86877L14.7365 3.19662L15.9937 9.07971L11.2727 20.8051L12.7276 21.3907L17.5383 9.44336C17.5963 9.29829 17.6102 9.13905 17.5775 8.98638Z" fill="#804294"/>
</g>
<defs>
<clipPath id="clip0_188_15109">
<rect width="24" height="24" fill="white"/>
</clipPath>
</defs>
</svg>
