<svg width="50" height="50" viewBox="0 0 50 50" fill="none" xmlns="http://www.w3.org/2000/svg">
<path d="M24.6192 43.9648H24.5996C23.7598 43.9551 22.959 43.6035 22.3828 42.9883L0.82035 19.6875C-0.263635 18.5254 -0.2734 16.7187 0.800819 15.5469C1.09379 15.2148 1.45512 14.834 1.83597 14.4629C3.31058 13.0176 4.82426 11.5527 6.27933 10.1465C7.40238 9.05272 8.56449 7.92968 9.70707 6.81639C10.2051 6.31835 10.8887 6.03514 11.5918 6.04491H23.4961H38.0567C38.7012 6.03514 39.3164 6.26952 39.8047 6.68944C42.2754 8.99413 46.8262 13.2617 49.0235 15.332C50.2539 16.4941 50.3125 18.4277 49.1504 19.6484C49.1407 19.6582 49.1407 19.6582 49.1309 19.668L26.836 43.0176C26.2598 43.623 25.459 43.9648 24.6192 43.9648ZM3.25199 17.6074L24.6192 40.6934L46.7383 17.5586C44.5703 15.5176 40.3321 11.5332 37.8614 9.23827C33.0762 9.23827 28.2129 9.23827 23.5059 9.23827C19.6094 9.23827 15.7032 9.23827 11.8067 9.23827C10.7032 10.3125 9.58988 11.3965 8.5059 12.4414C7.05082 13.8476 5.54691 15.3125 4.0723 16.748C3.7891 17.0312 3.5059 17.334 3.25199 17.6074Z" fill="white"/>
</svg>
