<svg width="50" height="50" viewBox="0 0 50 50" fill="none" xmlns="http://www.w3.org/2000/svg">
<path fill-rule="evenodd" clip-rule="evenodd" d="M26.0416 16.1458C18.2751 16.1458 11.9791 22.4419 11.9791 30.2083C11.9791 37.9748 18.2751 44.2708 26.0416 44.2708C33.8081 44.2708 40.1041 37.9748 40.1041 30.2083C40.1041 22.4419 33.8081 16.1458 26.0416 16.1458ZM8.85413 30.2083C8.85413 20.7159 16.5492 13.0208 26.0416 13.0208C35.5339 13.0208 43.2291 20.7159 43.2291 30.2083C43.2291 39.7006 35.5339 47.3958 26.0416 47.3958C16.5492 47.3958 8.85413 39.7006 8.85413 30.2083Z" fill="#464646"/>
<path fill-rule="evenodd" clip-rule="evenodd" d="M20.625 3.22916C20.9202 2.83572 21.3833 2.60416 21.875 2.60416H30.2642C30.7608 2.60416 31.2277 2.84018 31.5223 3.23999L34.5915 7.40666C35.0767 8.06549 34.9715 8.98714 34.3502 9.51966L27.0585 15.7697C26.4733 16.2712 25.61 16.2712 25.0248 15.7697L17.7332 9.51966C17.108 8.98376 17.006 8.05459 17.5 7.39582L20.625 3.22916ZM22.6563 5.72916L20.8783 8.0997L26.0417 12.5254L31.2146 8.09149L29.4746 5.72916H22.6563Z" fill="#464646"/>
</svg>
