<svg width="50" height="50" viewBox="0 0 50 50" fill="none" xmlns="http://www.w3.org/2000/svg">
<g clip-path="url(#clip0_162_8166)">
<path d="M45.3431 32.3921V25.5294H34.8651C33.8235 22.0293 30.9913 19.3334 27.4409 18.4691L30.8212 14.972L27.8972 10.2197H22.102L19.179 14.972L22.5593 18.4691C19.0112 19.3328 16.1774 22.027 15.135 25.5294H4.65686V32.3921H0V43.2029C0 46.432 2.62726 49.0588 5.85657 49.0588H44.1433C47.3727 49.0588 49.9999 46.4319 49.9999 43.2029V32.3921H45.3431ZM23.7459 13.161H26.2534L27.12 14.5691L25 16.7623L22.8798 14.5691L23.7459 13.161ZM25 21.1176C28.0155 21.1176 30.6131 22.9065 31.7461 25.5294H18.2539C19.3869 22.9065 21.9845 21.1176 25 21.1176ZM7.59804 28.4706H42.402V32.3921H7.59804V28.4706ZM47.0588 43.2029C47.0588 44.8102 45.751 46.1176 44.1434 46.1176H5.85657C4.24902 46.1176 2.94118 44.8102 2.94118 43.2029V35.3333H47.0588V43.2029Z" fill="#464646"/>
<path d="M23.5293 0.941162H26.4705V6.98685H23.5293V0.941162Z" fill="#464646"/>
<path d="M29.4946 7.02505L33.769 2.75069L35.8484 4.8301L31.574 9.10447L29.4946 7.02505Z" fill="#464646"/>
<path d="M14.1453 4.82864L16.2247 2.74923L20.499 7.0236L18.4196 9.10301L14.1453 4.82864Z" fill="#464646"/>
</g>
<defs>
<clipPath id="clip0_162_8166">
<rect width="50" height="50" fill="white"/>
</clipPath>
</defs>
</svg>
