<svg width="20" height="20" viewBox="0 0 20 20" fill="none" xmlns="http://www.w3.org/2000/svg">
<g clip-path="url(#clip0_277_6)">
<path d="M19.9013 7.32354L16.6333 2.07303C16.514 1.88132 16.3042 1.76476 16.0784 1.76476H3.92167C3.69597 1.76476 3.48617 1.88132 3.36675 2.07303L0.0988094 7.32354C-0.0580643 7.57561 -0.0256037 7.90154 0.178106 8.11744L9.52444 18.03C9.64795 18.1609 9.82006 18.2352 10 18.2352C10.18 18.2352 10.3521 18.1609 10.4756 18.0298L19.8219 8.11744C20.0255 7.90131 20.0581 7.57561 19.9013 7.32354ZM10.0001 16.6289L1.47462 7.58694L4.28483 3.07193H15.7154L18.5255 7.58694L10.0001 16.6289Z" fill="#804294"/>
<path d="M19.3465 7.01526H0.653809V8.32244H19.3465V7.01526Z" fill="#804294"/>
<path d="M6.71366 7.60634L7.72151 2.54603L6.43937 2.29068L5.39363 7.54118C5.36903 7.66536 5.38078 7.79392 5.42785 7.91157L9.39298 17.8243L10.6067 17.339L6.71366 7.60634Z" fill="#804294"/>
<path d="M14.648 7.48869L13.5587 2.39069L12.2805 2.66389L13.3282 7.56647L9.39404 17.3376L10.6065 17.8256L14.6154 7.86951C14.6637 7.74861 14.6753 7.61592 14.648 7.48869Z" fill="#804294"/>
</g>
<defs>
<clipPath id="clip0_277_6">
<rect width="20" height="20" fill="white"/>
</clipPath>
</defs>
</svg>
